<?xml version="1.0" encoding="UTF-8" standalone="no"?>
<!-- Created with Inkscape (http://www.inkscape.org/) -->

<svg
   width="156.21461mm"
   height="119.2997mm"
   viewBox="0 0 156.21461 119.2997"
   version="1.1"
   id="svg1"
   inkscape:version="1.4 (e7c3feb100, 2024-10-09)"
   sodipodi:docname="constrained.svg"
   xmlns:inkscape="http://www.inkscape.org/namespaces/inkscape"
   xmlns:sodipodi="http://sodipodi.sourceforge.net/DTD/sodipodi-0.dtd"
   xmlns="http://www.w3.org/2000/svg"
   xmlns:svg="http://www.w3.org/2000/svg">
  <sodipodi:namedview
     id="namedview1"
     pagecolor="#3672ff"
     bordercolor="#cccccc"
     borderopacity="1"
     inkscape:showpageshadow="0"
     inkscape:pageopacity="1"
     inkscape:pagecheckerboard="0"
     inkscape:deskcolor="#d1d1d1"
     inkscape:document-units="mm"
     inkscape:zoom="1.1188095"
     inkscape:cx="307.46967"
     inkscape:cy="248.0315"
     inkscape:window-width="1536"
     inkscape:window-height="836"
     inkscape:window-x="0"
     inkscape:window-y="0"
     inkscape:window-maximized="1"
     inkscape:current-layer="layer1" />
  <defs
     id="defs1" />
  <g
     inkscape:label="Layer 1"
     inkscape:groupmode="layer"
     id="layer1"
     transform="translate(-6.458045,-5.7340888)">
    <path
       style="fill:none;stroke:#ffffff;stroke-width:1"
       id="path1"
       d="m 116.582,51.904121 c -0.20719,-0.110106 -0.39595,-0.265903 -0.62156,-0.330316 -1.83025,-0.522552 -4.70373,-0.417878 -6.536,-0.327353 -3.07569,0.151953 -4.27221,0.353187 -7.37579,0.725816 -1.25628,0.185933 -2.514169,0.361235 -3.768823,0.557805 -3.518104,0.551182 -3.261849,0.551836 -6.56354,1.129847 -1.400767,0.245227 -2.814023,0.511321 -4.235047,0.625774 -0.434981,0.03504 -0.872467,0.02326 -1.308701,0.03489 -0.652669,-0.06763 -1.777312,-0.08505 -1.907299,-0.966039 -0.05454,-0.369652 0.164859,-0.635169 0.322839,-0.946767 0.268192,-0.272356 0.509855,-0.573667 0.804577,-0.81707 2.478434,-2.046859 5.919374,-3.222588 8.985676,-4.008038 1.022284,-0.261863 2.062924,-0.445976 3.094389,-0.668964 4.939359,-0.852168 10.022839,-0.883545 14.944149,0.1296 0.91679,0.188738 1.81572,0.455687 2.72359,0.68353 0.90605,0.298749 1.82482,0.561412 2.71817,0.89625 1.83205,0.686681 3.74801,1.604454 5.49639,2.472597 2.56881,1.275517 5.02002,2.638378 7.47967,4.107786 2.06427,1.32194 1.11979,0.709009 2.83678,1.833631 0.29576,0.193718 0.56972,-0.224552 0.27396,-0.418266 v 0 c -1.72567,-1.130261 -0.77537,-0.51362 -2.85434,-1.84462 -2.47292,-1.476877 -4.9372,-2.847472 -7.51986,-4.129368 -1.77432,-0.880676 -3.69721,-1.800907 -5.55614,-2.496648 -0.90485,-0.338658 -1.83539,-0.604242 -2.75308,-0.906364 -0.92182,-0.230712 -1.83462,-0.500978 -2.76544,-0.692134 -4.98286,-1.02329 -10.1293,-0.989449 -15.129619,-0.12468 -1.043974,0.226208 -2.097286,0.412959 -3.131923,0.678627 -3.078025,0.790353 -6.741036,2.044168 -9.202724,4.140438 -0.332042,0.282753 -0.598194,0.634797 -0.897289,0.952196 -0.235829,0.539567 -0.466469,0.782934 -0.322083,1.37138 0.262123,1.068287 1.485532,1.183421 2.373328,1.252734 0.451414,-0.01273 0.904116,-0.0019 1.354238,-0.03822 1.430885,-0.115793 2.853537,-0.383167 4.264189,-0.630127 3.299291,-0.577601 3.03248,-0.576381 6.548358,-1.127363 1.250133,-0.195911 2.503495,-0.370657 3.755235,-0.555985 3.08752,-0.371102 4.26726,-0.570018 7.32535,-0.722331 1.85001,-0.09214 4.44844,-0.191135 6.29989,0.272979 0.17761,0.04452 0.32995,0.158887 0.49493,0.238329 0.25,0.250002 0.60355,-0.103553 0.35355,-0.353553 z" />
    <path
       style="fill:none;stroke:#ffffff;stroke-width:1"
       id="path2"
       d="M 86.182146,54.777925 C 79.761804,50.864116 73.046772,47.447906 66.097401,44.568882 62.721931,43.170474 59.280064,41.938053 55.871395,40.62264 42.905407,35.990321 29.517324,32.584458 15.92136,30.425628 c -1.630781,-0.258943 -3.273544,-0.435777 -4.910316,-0.653664 -0.350464,-0.04664 -0.416421,0.448993 -0.06596,0.495631 v 0 c 1.629976,0.216839 3.265923,0.392742 4.889928,0.65052 13.564032,2.153021 26.920699,5.550355 39.856384,10.171001 3.400269,1.311908 6.833632,2.541064 10.200804,3.93572 5.943939,2.461932 11.700639,5.32076 17.270907,8.533344 0.660194,0.380757 1.300628,0.794864 1.955773,1.184246 0.289375,0.171987 0.585045,0.333158 0.877568,0.499737 0.328266,0.131305 0.513961,-0.332933 0.185695,-0.464238 z" />
    <path
       style="fill:none;stroke:#ffffff;stroke-width:1"
       id="path3"
       d="m 10.609277,29.460335 c -0.45429,-0.434581 -2.0333026,-1.003366 -1.7974737,-1.755711 0.078729,-0.251161 0.2914611,-0.438375 0.4371915,-0.657564 0.4436951,-0.29128 0.8567832,-0.635623 1.3310852,-0.873838 1.748423,-0.878135 4.119133,-1.636495 5.962575,-2.079498 3.368864,-0.809582 5.907346,-1.102347 9.411301,-1.307676 1.918173,-0.112403 3.841426,-0.107402 5.76214,-0.161103 5.739524,0.147074 7.438932,0.08063 13.234299,0.688918 2.186139,0.22946 4.357346,0.583888 6.536021,0.875833 0.350425,0.04694 0.416803,-0.448639 0.06638,-0.495575 v 0 c -2.188003,-0.292927 -4.368522,-0.648565 -6.56401,-0.878782 -5.818704,-0.610146 -7.523597,-0.543161 -13.286706,-0.690197 -1.93154,0.05436 -3.865665,0.0493 -5.794616,0.163073 -3.535495,0.208523 -6.108198,0.506707 -9.50796,1.32644 -1.763287,0.425155 -4.412977,1.257228 -6.100863,2.145298 -0.5363626,0.282204 -0.9916465,0.69709 -1.4874699,1.045635 -0.1618644,0.338526 -0.4321431,0.644173 -0.4855929,1.015582 -0.1579499,1.097552 1.3794666,1.458661 1.9837008,2.039165 0.282842,0.212132 0.582842,-0.187868 0.3,-0.4 z" />
    <path
       style="fill:none;stroke:#ffffff;stroke-width:1"
       id="path4"
       d="m 52.143519,23.321539 c 3.779928,-0.05204 7.560056,0.816149 11.193804,1.76348 6.062165,1.580427 7.669014,2.259155 13.837705,4.350591 11.954497,4.355327 23.650032,9.394378 34.958782,15.227321 5.75419,2.967955 7.52099,4.04954 12.77142,7.065346 0.30658,0.176091 0.55561,-0.25748 0.24903,-0.43357 v 0 c -5.26103,-3.02168 -7.03269,-4.106125 -12.79794,-7.079536 C 101.02747,38.372354 89.311294,33.324511 77.335554,28.962077 71.151445,26.865934 69.527943,26.181184 63.448305,24.597492 60.093933,23.723708 56.586641,22.922106 53.100554,22.806431 c -0.371758,-0.01233 -0.743431,0.02718 -1.115147,0.04077 -0.335413,0.111803 -0.177298,0.586145 0.158112,0.474342 z" />
    <path
       style="fill:none;stroke:#ffffff;stroke-width:1"
       id="path5"
       d="m 7.7467866,41.870719 c 2.9443344,-0.76051 2.9758264,-0.795387 6.6959384,-1.568106 6.429817,-1.335563 11.843044,-2.318371 18.430545,-3.511399 17.034007,-3.084941 13.674529,-2.451833 32.248207,-5.531334 18.714524,-2.981198 37.530573,-5.277214 56.387463,-7.135487 5.85838,-0.577321 15.63122,-1.450794 22.03872,-1.787744 1.42132,-0.07474 2.84599,-0.05734 4.26898,-0.08601 0.32823,0.07448 0.65646,0.14896 0.98469,0.223441 0.34531,0.07586 0.4526,-0.412493 0.10728,-0.488354 v 0 c -0.36736,-0.07833 -0.73471,-0.156657 -1.10207,-0.234985 -1.43104,0.02903 -2.86375,0.01191 -4.2931,0.08708 -6.41124,0.33718 -16.19546,1.211675 -22.05707,1.789342 -18.86666,1.859328 -37.692455,4.156649 -56.416676,7.139451 -18.575345,3.079816 -15.222148,2.447729 -32.257108,5.532892 -6.586915,1.192943 -12.017067,2.178847 -18.448379,3.515024 -3.73175,0.775311 -3.766768,0.811186 -6.7212424,1.574427 -0.340655,0.09463 -0.206833,0.576387 0.133822,0.481761 z" />
    <path
       style="fill:none;stroke:#ffffff;stroke-width:1"
       id="path6"
       d="m 137.47429,20.890015 c 0.43843,-0.719198 0.84745,-1.457169 1.31528,-2.157592 2.44835,-3.665559 5.16764,-7.148577 7.84329,-10.648069 0.21475,-0.2808658 -0.18246,-0.584558 -0.3972,-0.3036922 v 0 c -2.6861,3.5132392 -5.41928,7.0091732 -7.87324,10.6918832 -0.47943,0.719487 -0.89747,1.47804 -1.34621,2.21706 -0.14171,0.323911 0.31637,0.52432 0.45808,0.20041 z" />
    <path
       style="fill:none;stroke:#ffffff;stroke-width:1"
       id="path7"
       d="m 147.53309,8.006871 c 3.98859,-0.5223396 7.99168,-0.9045379 11.99674,-1.2738542 0.35206,-0.032465 0.30615,-0.5303528 -0.0459,-0.4978873 v 0 c -4.00816,0.3696255 -8.01436,0.7520924 -12.00605,1.2747998 -0.35139,0.039044 -0.29618,0.5359852 0.0552,0.4969417 z" />
    <path
       style="fill:none;stroke:#ffffff;stroke-width:1"
       id="path8"
       d="m 160.46192,7.4054482 c 0.0597,-0.1193342 0.11933,-0.2386687 0.179,-0.3580029 0.01,-0.019002 0.047,-0.067463 0.0285,-0.057008 -1.54241,0.8718923 -0.93441,0.5185884 -2.03215,2.8129171 -1.81664,3.7968756 -2.13606,4.6450546 -3.95325,8.8152116 -1.92882,4.632451 -3.55064,9.38033 -5.14953,14.133247 -0.11273,0.335102 0.36118,0.494519 0.4739,0.159416 v 0 c 1.5942,-4.739298 3.21116,-9.473611 5.134,-14.092929 1.82584,-4.19032 2.121,-4.982536 3.94224,-8.791627 1.14104,-2.3864519 1.1461,-1.4636879 1.13758,-3.2598425 -1e-4,-0.021246 -0.019,0.038006 -0.0285,0.057008 -0.0597,0.1193342 -0.11933,0.2386687 -0.179,0.3580029 -0.15811,0.3162279 0.2891,0.5398347 0.44722,0.2236068 z" />
    <path
       style="fill:none;stroke:#ffffff;stroke-width:1"
       id="path9"
       d="m 130.13568,31.313572 c 5.1,1.606653 10.07677,3.569197 15.10588,5.377627 4.03921,1.45247 6.45028,2.25497 10.4147,3.602749 1.06813,0.383514 2.13625,0.767027 3.20437,1.150541 0.33276,0.119473 0.50172,-0.351115 0.16896,-0.470588 v 0 c -1.07079,-0.384448 -2.14159,-0.768895 -3.21239,-1.153343 -3.95688,-1.345191 -6.37203,-2.149094 -10.40282,-3.598542 -5.04599,-1.814507 -10.03926,-3.784634 -15.15744,-5.393515 -0.34299,-0.08575 -0.46426,0.399322 -0.12126,0.485071 z" />
    <path
       style="fill:none;stroke:#ffffff;stroke-width:1"
       id="path10"
       d="m 143.14586,27.040649 c 3.12307,0.945936 6.0743,2.365968 8.91029,3.966456 2.15664,1.217099 4.41256,2.63846 6.35031,4.202779 0.66534,0.537126 1.25396,1.162889 1.88095,1.744335 0.48193,0.575752 1.10882,1.173482 1.41438,1.898599 0.0115,0.02733 -0.0706,0.04995 -0.0856,0.02434 -0.0403,-0.06914 -0.0257,-0.158022 -0.0385,-0.237032 -0.34775,-0.06383 -0.43802,0.427948 -0.0903,0.491784 v 0 c 0.20324,-0.03935 0.44932,0.01283 0.60972,-0.118036 0.10646,-0.08685 0.0819,-0.280236 0.038,-0.410411 -0.21044,-0.623576 -1.23711,-1.693985 -1.50802,-2.016086 -0.64222,-0.593963 -1.24572,-1.23276 -1.92666,-1.781894 -1.95524,-1.576756 -4.23764,-3.014957 -6.41308,-4.241676 -2.85493,-1.609878 -5.82582,-3.03893 -8.9687,-3.992322 -0.33175,-0.122225 -0.50461,0.346946 -0.17285,0.469173 z" />
    <path
       style="fill:none;stroke:#ffffff;stroke-width:1"
       id="path11"
       d="m 131.9395,30.130906 c 3.74307,-1.15596 7.57401,-2.02936 11.40249,-2.854555 0.34562,-0.0745 0.24026,-0.563277 -0.10536,-0.488773 v 0 c -3.85224,0.830506 -7.70733,1.708692 -11.47269,2.875161 -0.33105,0.124142 -0.15549,0.592307 0.17556,0.468167 z" />
    <path
       style="fill:none;stroke:#ffffff;stroke-width:1"
       id="path15"
       d="m 14.759147,33.203861 c 0.465896,0.822098 0.954544,1.631709 1.397689,2.466293 3.567884,6.719461 6.762769,13.638045 10.022305,20.509862 0.151522,0.319439 0.603277,0.105156 0.451756,-0.214284 v 0 C 23.366158,49.082959 20.165931,42.153522 16.591831,35.423617 16.146683,34.58542 15.655873,33.772281 15.187894,32.946612 c -0.181902,-0.303167 -0.610648,-0.04592 -0.428747,0.257249 z" />
    <path
       style="fill:none;stroke:#ffffff;stroke-width:1"
       id="path16"
       d="m 37.188947,35.019371 c -0.346943,1.167371 -0.716212,2.328339 -1.040832,3.502115 -0.483473,1.748176 -0.917112,3.509764 -1.383151,5.262666 -1.329368,5.000098 -2.70432,9.986901 -4.097454,14.969503 -0.0952,0.340495 0.386331,0.475131 0.481531,0.134636 v 0 c 1.393833,-4.985113 2.769558,-9.974414 4.099502,-14.977055 0.464645,-1.747776 0.896871,-3.504242 1.378857,-5.247314 0.323586,-1.170236 0.691706,-2.327698 1.037561,-3.491548 0.108191,-0.336592 -0.367824,-0.489598 -0.476014,-0.153003 z" />
    <path
       style="fill:none;stroke:#ffffff;stroke-width:1"
       id="path17"
       d="m 75.640133,50.766059 c 0.218167,-0.7713 -0.409832,-0.104172 -0.394348,0.02666 0.07193,0.607867 0.401727,1.1566 0.586147,1.740268 0.405744,1.284142 0.803092,2.571038 1.184198,3.862705 1.11951,3.79431 1.948476,6.849586 3.004992,10.664097 0.39366,1.467424 0.787321,2.934849 1.180981,4.402273 0.09161,0.341479 0.574532,0.211926 0.482925,-0.129554 v 0 C 81.291011,69.863787 80.896996,68.395058 80.502981,66.926332 79.44604,63.110339 78.614343,60.04511 77.494166,56.24913 c -0.382585,-1.296477 -0.77887,-2.58899 -1.188842,-3.877069 -0.195863,-0.615384 -0.277537,-1.290505 -0.628454,-1.832647 -0.111096,-0.171635 -0.989515,-0.174726 -0.529934,0.308843 0.05812,0.348744 0.55132,0.266544 0.493197,-0.0822 z" />
    <path
       style="fill:none;stroke:#ffffff;stroke-width:1"
       id="path18"
       d="m 105.21173,50.38789 c -5.741291,5.124624 -11.065758,10.723864 -15.768605,16.820602 -0.990537,1.284123 -1.89987,2.628886 -2.849806,3.943331 -0.207065,0.28657 0.198207,0.579409 0.405273,0.292836 v 0 c 0.944253,-1.307026 1.848093,-2.644222 2.832759,-3.92108 4.669443,-6.055061 9.957919,-11.607673 15.645379,-16.711689 0.29981,-0.187383 0.0348,-0.611384 -0.265,-0.424 z" />
    <path
       style="fill:none;stroke:#ffffff;stroke-width:1"
       id="path19"
       d="m 30.407112,60.662179 c -0.157858,-0.08012 -1.346475,-1.261092 -1.248529,-0.04761 0.06808,0.843466 0.470027,1.625915 0.71791,2.435003 0.592307,1.933287 1.192567,3.864163 1.802596,5.791928 0.885486,2.798259 1.789276,5.590693 2.683914,8.386037 2.873145,8.857755 6.405158,17.491615 9.127297,26.400063 0.536345,1.75523 0.954574,3.54441 1.431862,5.31662 0.09197,0.34138 0.574754,0.21132 0.482787,-0.13007 v 0 c -0.479999,-1.78124 -0.900863,-3.57948 -1.439997,-5.34373 -2.721811,-8.906801 -6.252485,-17.539337 -9.125744,-26.395291 -8.420295,-26.309497 1.718784,5.447612 -4.485288,-14.174091 -0.228523,-0.722757 -0.416075,-1.461828 -0.711631,-2.159857 -0.04756,-0.112335 -0.395745,-0.28534 -0.29474,-0.216935 0.2711,0.183597 0.52402,0.393266 0.802314,0.566677 0.30317,0.181901 0.560417,-0.246846 0.257249,-0.428747 z" />
    <path
       style="fill:none;stroke:#ffffff;stroke-width:1"
       id="path20"
       d="m 84.627415,71.14655 c -0.499102,0.473115 -0.992683,0.952122 -1.497304,1.419344 -3.718639,3.443041 -5.358566,4.82953 -9.307467,8.684805 -5.733651,5.59771 -9.02838,8.991441 -14.362912,15.055395 -2.004033,2.278057 -3.905244,4.644546 -5.857867,6.966826 -1.274841,1.7367 -2.549683,3.4734 -3.824523,5.21011 -0.20919,0.28502 0.193898,0.58086 0.403088,0.29584 v 0 c 1.268047,-1.72806 2.536095,-3.45612 3.804142,-5.18418 1.948077,-2.31709 3.844851,-4.678302 5.84423,-6.951271 5.32502,-6.05368 8.612929,-9.440585 14.337014,-15.029082 4.022958,-3.927665 5.540161,-5.194019 9.308465,-8.685749 0.515766,-0.477909 1.019614,-0.968524 1.529421,-1.452788 0.232815,-0.266075 -0.143473,-0.595328 -0.376287,-0.32925 z" />
    <path
       style="fill:none;stroke:#ffffff;stroke-width:1"
       id="path21"
       d="m 10.177307,44.615959 c 6.185042,-0.718304 12.313606,-1.832853 18.490363,-2.621653 6.597383,-0.842518 6.80575,-0.801618 13.022987,-1.337434 1.324459,-0.0519 2.648921,-0.103796 3.97338,-0.155694 0.353283,-0.01386 0.333672,-0.513482 -0.0196,-0.499615 v 0 c -1.332238,0.05238 -2.664473,0.104772 -3.996711,0.157157 -6.230287,0.537175 -6.439871,0.496281 -13.049057,1.340371 -6.175775,0.788736 -12.303378,1.903021 -18.487434,2.621253 -0.350452,0.04673 -0.2843699,0.542341 0.06608,0.495615 z" />
    <path
       style="fill:none;stroke:#ffffff;stroke-width:1"
       id="path22"
       d="m 94.356517,35.537219 c 8.851723,-1.49856 17.789703,-2.400514 26.713593,-3.340523 0.35161,-0.03704 0.29923,-0.534287 -0.0524,-0.49725 v 0 c -8.93279,0.940966 -17.87965,1.844045 -26.74021,3.344052 -0.349112,0.05586 -0.270116,0.549577 0.079,0.493721 z" />
    <path
       style="fill:none;stroke:#ffffff;stroke-width:1"
       id="path23"
       d="m 7.1627041,43.137896 c 0.7724733,0.388221 0.3811233,0.18038 1.1725852,0.626274 0.3081287,0.173369 0.5533088,-0.262392 0.2451801,-0.43576 v 0 C 7.7337242,42.852583 8.1657787,43.077992 7.2839719,42.652825 6.9409748,42.567076 6.819707,43.052147 7.1627041,43.137896 Z" />
    <path
       style="fill:none;stroke:#ffffff;stroke-width:1"
       id="path24"
       d="m 46.101351,108.01223 c 0.137555,3.92724 0.183105,7.85703 0.230389,11.78616 0.0043,0.35353 0.504216,0.34751 0.499962,-0.006 v 0 c -0.04726,-3.92713 -0.09254,-7.85493 -0.230352,-11.78015 0,-0.35355 -0.499999,-0.35355 -0.499999,0 z" />
    <path
       style="fill:none;stroke:#ffffff;stroke-width:1"
       id="path25"
       d="m 59.178277,41.100914 c 0.71293,-1.402233 2.092568,-2.145302 3.362036,-2.960277 0.297185,-0.191524 0.02633,-0.611807 -0.270856,-0.42028 v 0 c -1.393532,0.901409 -2.880358,1.718233 -3.586155,3.309845 -0.05,0.350001 0.444974,0.420711 0.494975,0.07071 z" />
    <path
       style="fill:none;stroke:#ffffff;stroke-width:1"
       id="path26"
       d="m 68.570392,44.447735 c 2.024637,-1.439736 0.915186,-0.735103 3.356253,-2.069304 0.310094,-0.169831 0.06992,-0.608367 -0.240176,-0.438536 v 0 c -2.532985,1.389994 -1.371602,0.643837 -3.509237,2.198928 -0.218432,0.278006 0.174728,0.586917 0.39316,0.308912 z" />
    <path
       style="fill:none;stroke:#ffffff;stroke-width:1"
       id="path27"
       d="m 77.817566,49.624725 c 0.762252,-1.044151 0.263853,-0.461869 1.620727,-1.631053 0.266417,-0.232425 -0.06228,-0.609195 -0.3287,-0.376769 v 0 c -1.513046,1.33509 -0.963629,0.625946 -1.792026,2.007822 0,0.353553 0.499999,0.353553 0.499999,0 z" />
    <path
       style="fill:none;stroke:#ffffff;stroke-width:1"
       id="path28"
       d="m 37.714197,33.250407 c 1.597081,-1.795799 0.616366,-0.861325 3.081819,-2.649107 0.285732,-0.208221 -0.0087,-0.612309 -0.29447,-0.404087 v 0 c -2.575618,1.885847 -1.546797,0.894905 -3.228525,2.8179 -0.166378,0.311959 0.274798,0.547253 0.441176,0.235294 z" />
    <path
       style="fill:none;stroke:#ffffff;stroke-width:1"
       id="path29"
       d="m 28.502459,32.000041 c 0.865571,-0.939048 1.977779,-1.594135 3.037543,-2.284073 0.296228,-0.192998 0.02328,-0.611929 -0.272941,-0.418931 v 0 c -1.1322,0.73818 -2.326849,1.43402 -3.211814,2.4794 -0.158115,0.316227 0.289099,0.539834 0.447212,0.223604 z" />
    <path
       style="fill:none;stroke:#ffffff;stroke-width:1"
       id="path30"
       d="m 19.407215,29.469384 c 1.281404,-1.15252 0.588253,-0.561692 2.090903,-1.758961 0.27643,-0.220424 -0.0353,-0.611354 -0.311726,-0.390932 v 0 c -1.565424,1.249214 -0.832523,0.614765 -2.207924,1.892644 -0.181902,0.30317 0.246845,0.560419 0.428747,0.257249 z" />
    <path
       style="fill:none;stroke:#ffffff;stroke-width:1"
       id="path31"
       d="m 43.972972,117.66252 c 0.123287,1.64309 0.264937,3.29866 0.673089,4.90129 0.136118,0.53449 0.180459,1.13569 0.518956,1.57114 0.213956,0.27524 0.656873,0.4855 0.982023,0.35976 0.549663,-0.21257 0.846365,-0.82032 1.269547,-1.23048 0.365649,-0.57632 0.7313,-1.15264 1.096949,-1.72896 0.188931,-0.29884 -0.23369,-0.56603 -0.422621,-0.26719 v 0 c -0.349446,0.55477 -0.698889,1.10954 -1.048335,1.66431 -0.259117,0.35882 -0.422405,0.81207 -0.777351,1.07649 -0.167452,0.12474 -0.502227,0.13708 -0.625639,-0.0314 -0.313248,-0.42753 -0.371332,-0.995 -0.502595,-1.50849 -0.401743,-1.57161 -0.540252,-3.19516 -0.664022,-4.80652 0,-0.35355 -0.500001,-0.35355 -0.500001,0 z" />
    <path
       style="fill:none;stroke:#ffffff;stroke-width:1"
       id="path36"
       d="m 113.24081,24.633599 c -1.10874,-1.159878 -2.4774,-2.064888 -3.44406,-3.365595 -0.1677,-0.225646 -0.29293,-0.479943 -0.4394,-0.719914 -0.0451,-0.185746 -0.16385,-0.368218 -0.13539,-0.557236 0.0644,-0.42759 1.20535,-0.550325 1.22974,-0.55361 3.00508,-0.404757 5.9816,0.134591 8.94779,0.553598 5.52706,1.340008 2.86097,0.585579 8.00658,2.233712 0.33672,0.10779 0.48916,-0.368406 0.15244,-0.476196 v 0 c -5.19598,-1.662382 -2.50243,-0.901326 -8.08923,-2.252621 -3.13796,-0.441368 -4.09941,-0.710063 -7.0905,-0.692093 -0.8415,0.0051 -2.50266,0.0276 -3.32228,0.636484 -0.55458,0.411984 -0.25589,0.900793 -0.12493,1.370091 0.16236,0.261646 0.30285,0.538193 0.48706,0.784939 0.96751,1.295945 2.32118,2.211233 3.43807,3.358533 0.22634,0.271607 0.61045,-0.04848 0.38411,-0.320092 z" />
    <path
       style="fill:none;stroke:#ffffff;stroke-width:1"
       id="path37"
       d="m 114.23649,84.769903 c -0.0273,-1.251754 0.0968,-2.500942 0.26396,-3.739949 0.0281,-0.20847 0.237,-0.780078 0.0963,-0.623683 -0.21079,0.234328 -0.22118,0.590285 -0.33177,0.885428 -0.008,1.187664 0.0164,2.376011 -0.0247,3.562987 -0.0869,2.504501 -0.71711,13.862106 -0.80974,15.594464 -0.34281,6.41091 -0.68622,12.82185 -0.99589,19.23445 -0.0171,0.35314 0.48237,0.37726 0.49942,0.0241 v 0 c 0.30961,-6.41165 0.65298,-12.82162 0.99574,-19.23158 0.0862,-1.612395 0.7297,-13.213665 0.81046,-15.61859 0.0409,-1.218025 0.011,-2.437397 0.0165,-3.656097 -0.21806,-0.290465 -0.30708,-0.764419 -0.65418,-0.871395 -0.20609,-0.06352 -0.0697,0.425699 -0.0985,0.639421 -0.0426,0.315791 -0.0816,0.632098 -0.11554,0.948931 -0.10143,0.947044 -0.17765,1.898065 -0.15209,2.851497 0,0.353554 0.5,0.353554 0.5,0 z" />
    <path
       style="fill:none;stroke:#ffffff;stroke-width:1"
       id="path38"
       d="m 115.47519,119.86625 c 9.4495,-0.27656 18.90268,0.30384 28.31821,1.05575 2.85494,0.22799 5.7041,0.52342 8.55615,0.78512 0.35208,0.0323 0.39776,-0.4656 0.0457,-0.49791 v 0 c -2.85573,-0.262 -5.70856,-0.55776 -8.56718,-0.786 -9.43461,-0.75329 -18.90696,-1.33425 -28.37557,-1.05645 -0.35319,0.0161 -0.33049,0.51554 0.0227,0.49949 z" />
    <path
       style="fill:none;stroke:#ffffff;stroke-width:1"
       id="path39"
       d="m 113.26186,77.938634 c -0.69039,0.746498 -2.28015,2.031241 -2.3213,3.135059 -0.0513,1.377484 1.60795,1.640647 2.55868,1.883727 0.31127,-0.02585 0.69152,0.119565 0.93379,-0.07756 0.86513,-0.703908 0.2947,-2.303407 0.19621,-3.010405 -0.0528,-0.349592 -0.54719,-0.274934 -0.4944,0.07466 v 0 c 0.095,0.578654 0.22532,1.152604 0.28492,1.735966 0.0238,0.233156 0.13072,0.537281 -0.0358,0.702196 -0.18222,0.180446 -0.50937,0.05994 -0.76406,0.08992 -0.49034,-0.11807 -2.22266,-0.402156 -2.21693,-1.208275 0.007,-1.036307 1.57809,-2.273771 2.21246,-2.971729 0.25,-0.249999 -0.10356,-0.603554 -0.35356,-0.353555 z" />
    <path
       style="fill:none;stroke:#ffffff;stroke-width:1"
       id="path40"
       d="m 154.95689,120.26234 c -0.0703,0.24174 -0.44056,1.52124 -0.51246,1.74208 -0.0515,0.15828 -0.30434,0.35938 -0.17723,0.46686 0.12157,0.1028 0.31465,-0.15711 0.36489,-0.30817 0.0721,-0.21681 -0.0282,-0.45618 -0.0347,-0.68456 -0.008,-0.26855 -0.005,-0.53729 -0.008,-0.80594 0.0929,-0.0885 0.15254,-0.24157 0.27856,-0.2654 0.33934,-0.0642 2.10604,0.19841 2.22558,0.23168 0.26451,0.0736 0.65218,0.12188 0.72773,0.38584 0.0623,0.21772 -0.31409,0.32663 -0.47958,0.48122 -0.32974,0.30803 -0.67044,0.60413 -1.00566,0.9062 -0.39664,0.30556 -0.79328,0.61112 -1.18992,0.91668 -0.27993,0.21595 0.0255,0.61184 0.30541,0.39588 v 0 c 0.40818,-0.31533 0.81637,-0.63066 1.22455,-0.94599 0.41437,-0.39422 1.74978,-1.26714 1.37197,-2.19961 -0.12361,-0.30509 -0.56863,-0.34931 -0.88632,-0.43555 -0.59378,-0.16119 -2.05414,-0.32419 -2.6869,-0.0453 -0.21229,0.0936 -0.25693,0.38636 -0.38539,0.57954 0.003,0.27738 -0.003,0.55499 0.009,0.83215 0.0106,0.25443 -0.12358,1.31151 0.63651,1.13815 0.17406,-0.0397 0.13351,-0.33146 0.18881,-0.5012 0.0956,-0.29352 0.40363,-1.37287 0.49743,-1.69889 0.13131,-0.32826 -0.33293,-0.51396 -0.46424,-0.18569 z" />
    <path
       style="fill:none;stroke:#ffffff;stroke-width:1"
       id="path41"
       d="m 117.33811,119.62517 c 2.18486,-0.24491 4.42785,-0.1246 6.58529,-0.59741 0.35556,-0.0779 0.69879,-0.20413 1.04818,-0.3062 0.25817,-0.13204 0.53364,-0.23467 0.7745,-0.39614 0.96578,-0.64741 1.63679,-2.08017 2.21623,-3.06852 0.73611,-1.32948 1.42807,-2.67887 2.24489,-3.96186 1.08299,-1.6369 1.99555,-3.38785 3.18042,-4.95694 0.27567,-0.36505 0.57327,-0.71302 0.8599,-1.06954 1.43336,-1.80107 3.4464,-2.90212 5.3531,-4.1167 2.67399,-1.70335 1.85445,-1.17775 4.65992,-3.133277 3.34385,-2.544657 5.20182,-5.212982 7.07748,-8.95137 0.67282,-1.340996 1.21894,-2.741898 1.8284,-4.112845 0.14355,-0.323104 -0.31339,-0.526103 -0.45693,-0.202999 v 0 c -0.60235,1.35677 -1.14294,2.742676 -1.80703,4.070313 -1.29269,2.584294 -2.41157,4.493141 -4.39474,6.580585 -0.77122,0.81177 -1.68875,1.470765 -2.53312,2.206148 -2.79436,1.948246 -1.97237,1.420654 -4.64023,3.120235 -1.95351,1.24449 -4.01036,2.37978 -5.47664,4.22675 -0.29291,0.36486 -0.59698,0.72102 -0.87873,1.09456 -1.18881,1.57609 -2.1074,3.33238 -3.19365,4.97667 -0.81938,1.28856 -1.51675,2.64181 -2.25438,3.97739 -0.49643,0.84678 -1.20818,2.32168 -2.01492,2.87746 -0.2126,0.14647 -0.45703,0.24027 -0.68554,0.3604 -0.32891,0.0974 -0.65175,0.21837 -0.98674,0.29226 -2.16295,0.47705 -4.41381,0.3434 -6.60372,0.60074 -0.34669,0.0693 -0.24863,0.55962 0.0981,0.49029 z" />
    <path
       style="fill:none;stroke:#ffffff;stroke-width:1"
       id="path42"
       d="m 151.99287,84.564624 c 0.81769,-0.830586 0.98455,-1.032849 1.90023,-1.818426 0.28323,-0.242993 0.53044,-0.554823 0.87479,-0.698672 0.14344,-0.05992 0.35168,0.02209 0.44204,0.14858 0.14911,0.208711 0.1436,0.493048 0.19578,0.744185 0.0857,0.412277 0.14497,0.829593 0.21746,1.244391 0.0175,0.197424 0.23555,1.552512 0.004,1.93267 -0.0545,0.0893 -0.21386,0.01722 -0.31346,-0.01474 -0.7766,-0.249248 -1.49647,-0.650827 -2.2593,-0.939488 -0.50067,-0.189455 -1.01192,-0.349673 -1.51788,-0.52451 -1.17733,-0.373668 -0.76623,-0.15426 -1.31457,-0.475573 -0.3086,-0.172521 -0.55258,0.263909 -0.24398,0.436431 v 0 c 0.64395,0.347839 0.19805,0.131934 1.39539,0.511767 0.49653,0.17126 0.99306,0.342519 1.48959,0.513781 0.4655,0.192786 0.92221,0.408358 1.39651,0.578358 0.40434,0.144926 0.80626,0.368827 1.23577,0.365115 1.19149,-0.01029 0.62282,-1.963809 0.62039,-2.472476 -0.11736,-0.633682 -0.20502,-1.913149 -0.83012,-2.394222 -0.65072,-0.50078 -1.39184,0.385389 -1.72823,0.674317 -0.93158,0.80015 -1.10272,1.007263 -1.93399,1.852181 -0.23782,0.261609 0.13215,0.597945 0.36997,0.336336 z" />
    <path
       style="fill:none;stroke:#ffffff;stroke-width:1"
       id="path44"
       d="m 116.4662,100.17062 c 0.20245,-0.223664 0.40043,-0.451457 0.60735,-0.670998 1.00001,-1.061029 2.00472,-2.117629 3.00625,-3.177219 0.95386,-1.009153 2.47285,-2.624969 3.52782,-3.576064 0.47152,-0.425085 0.98455,-0.801724 1.47683,-1.202586 1.29053,-0.489601 1.69643,-0.849773 3.11445,-0.58632 2.04567,0.380064 3.25779,1.893628 4.48956,3.401288 0.59317,0.726027 1.16138,1.472091 1.74207,2.208138 0.74811,0.80536 1.42762,1.680385 2.24433,2.416077 4.12286,3.713834 9.31374,5.778224 14.59419,7.224884 1.06572,0.29198 2.15112,0.50674 3.22667,0.76011 3.14396,0.50861 1.69704,0.33602 4.3337,0.57405 0.35213,0.0317 0.39692,-0.46633 0.0448,-0.49799 v 0 c -2.59,-0.23199 -1.16633,-0.0632 -4.26392,-0.56276 -1.06492,-0.25049 -2.13954,-0.46284 -3.19476,-0.75147 -5.19159,-1.42003 -10.31718,-3.43844 -14.37442,-7.087208 -0.80731,-0.726037 -1.4787,-1.590275 -2.21805,-2.385414 -0.58508,-0.741368 -1.15562,-1.49443 -1.75522,-2.224101 -1.02311,-1.245071 -1.70398,-2.183159 -3.13498,-2.957446 -1.10896,-0.600038 -2.24823,-0.83457 -3.49446,-0.58026 -0.58654,0.119694 -1.11325,0.440584 -1.66988,0.660876 -0.50347,0.410861 -1.02783,0.797369 -1.51041,1.232582 -1.0594,0.955432 -2.58442,2.57741 -3.54347,3.59206 -1.00398,1.062178 -2.01534,2.117403 -3.01346,3.185092 -0.22754,0.243403 -0.44248,0.498289 -0.66373,0.747434 -0.1819,0.303175 0.24685,0.560415 0.42875,0.257245 z" />
    <path
       style="fill:none;stroke:#ffffff;stroke-width:1"
       id="path45"
       d="m 131.85839,99.174778 c 1.69968,1.394802 3.27233,2.928712 4.81978,4.487432 0.24911,0.25089 0.60391,-0.1014 0.3548,-0.35229 v 0 c -1.59395,-1.60511 -3.20519,-3.20193 -4.98888,-4.59938 -0.32827,-0.131308 -0.51396,0.33293 -0.1857,0.464238 z" />
    <path
       style="fill:none;stroke:#ffffff;stroke-width:1"
       id="path46"
       d="m 137.39133,97.040873 c -1.61607,1.765949 -2.92183,3.781557 -4.26462,5.753867 -0.19895,0.29226 0.21437,0.57362 0.41332,0.28136 v 0 c 1.32098,-1.94074 2.60579,-3.923481 4.18916,-5.666649 0.26063,-0.238905 -0.0772,-0.60748 -0.33786,-0.368578 z" />
  </g>
</svg>
