<?xml version="1.0" encoding="UTF-8"?>
<svg width="122mm" height="71mm" version="1.1" viewBox="0 0 122 71" xmlns="http://www.w3.org/2000/svg"><g transform="translate(-48.8 -19.6)" fill="none" stroke="#fff"><g stroke-width=".615"><path d="m64.1 29.1c0.0084 0.164 0.0199 0.328 0.0252 0.492 0.0288 0.899 0.0327 1.8 0.0613 2.7 0.0936 2.94 0.235 5.89 0.36 8.83 0.098 2.41 0.224 4.82 0.363 7.23 0.0355 0.617 0.067 1.24 0.118 1.85 0.361-0.0645 0.312 0.0492 0.302-0.215-0.0087-0.217-0.316-0.205-0.307 0.0123 0.0103 0.243-0.0405 0.135 0.312 0.177-0.0509-0.614-0.0821-1.23-0.117-1.84-0.139-2.41-0.265-4.82-0.363-7.23-0.125-2.94-0.266-5.88-0.36-8.83-0.0287-0.902-0.0324-1.8-0.0616-2.71-0.0054-0.168-0.0174-0.336-0.0261-0.504-0.0197-0.217-0.326-0.189-0.306 0.0279z"/><path d="m64.7 29.2c2.02 0.0444 3.99-0.554 5.91-1.12 0.517-0.154 1.07-0.332 1.6-0.451 0.251-0.0564 0.527-0.102 0.787-0.105 0.148-2e-3 0.149-0.0298 0.137 0.0271-0.176-0.208 0.0259-0.205-0.126-0.192 0.0938-0.0049 0.0784-0.0073-0.154 0.185-0.0133 0.011 0.0218-0.0456 0.0056-0.0515-0.014-0.0051-0.0579 0.123-0.0664 0.21-0.0144 0.149-0.0127 0.299-0.019 0.448 0.145 4.95 0.794 9.86 1.38 14.8 0.293 2.32 0.549 4.65 0.914 6.96 0.0784 0.498 0.178 1.29 0.387 1.8 0.4-0.17 0.315-0.0203 0.319-0.408-4.89e-4 -0.218-0.308-0.217-0.308 8e-4 0.0065 0.297-0.0605 0.184 0.271 0.286-0.186-0.414-0.311-1.37-0.366-1.72-0.364-2.31-0.62-4.64-0.913-6.95-0.586-4.89-1.23-9.79-1.38-14.7 0.0055-0.157-0.0188-0.318 0.0171-0.47 0.0058-0.0249 0.114-0.148 0.0629-0.145-0.0589 0.0038-0.254 0.135-0.132 0.118 0.0978-0.0093 0.304-0.0544 0.317-0.18 0.0074-0.072-0.0451-0.138-0.0677-0.206-0.209-0.087-0.41-0.0695-0.637-0.0388-0.726 0.0986-1.42 0.339-2.12 0.544-1.88 0.554-3.8 1.14-5.78 1.11-0.215-0.0308-0.259 0.274-0.0435 0.305z"/><path d="m65.4 51.4c2.2-0.516 4.43-0.887 6.69-0.988 0.381-0.0171 0.764-0.0108 1.15-0.0162 0.63-0.0123 1.26 0.122 1.88-0.0063 0.213-0.0457 0.148-0.347-0.0647-0.301-0.6 0.136-1.22-0.0357-1.82-4.89e-4 -0.387 0.0057-0.775-4.89e-4 -1.16 0.017-2.27 0.102-4.52 0.475-6.74 0.995-0.212 0.0482-0.144 0.348 0.0682 0.3z"/></g><g stroke-width=".768"><path d="m97 30.2c-0.0233 0.223-0.0575 0.445-0.0699 0.669-0.107 1.94-0.0543 3.89-0.0705 5.83-0.0158 1.89-0.0376 2.51-0.082 4.32-0.0582 1.67-0.0142 0.933-0.109 2.21-0.0201 0.271 0.363 0.299 0.383 0.0284 0.0958-1.3 0.0517-0.553 0.11-2.23 0.0445-1.82 0.0663-2.44 0.0821-4.33 0.0161-1.93-0.0294-3.86 0.0686-5.79 0.0103-0.202 0.0387-0.404 0.058-0.605 0.072-0.262-0.298-0.364-0.37-0.102z"/><path d="m99.6 30.1c-9e-3 0.203-0.0223 0.406-0.0274 0.609-0.0113 0.454-0.0366 2.81-0.0394 3.02-0.0322 2.45-0.076 4.9-0.0846 7.36-6e-3 1.81 0.0564 3.61 0.202 5.41 0.0219 0.271 0.405 0.24 0.383-0.031-0.145-1.79-0.206-3.58-0.201-5.37 0.0127-3.65 0.0711-7.29 0.148-10.9 0.0343-0.269-0.347-0.318-0.381-0.0484z"/><path d="m108 44.6c0.21-2.26 0.285-4.53 0.331-6.8 3e-3 -0.311 0.01-0.625 5e-3 -0.936-7.7e-4 -0.0417 0.0365-0.12-5e-3 -0.125-0.492-0.0517-0.318 0.0355-0.464 0.224-0.781 0.194-1.59 0.196-2.39 0.233-1.63 0.0749-0.487 0.0298-2.03 0.0854-0.578 0.0291-1.16 0.0574-1.73 0.08-0.0283 0.0012-0.375 0.0022-0.226 0.01-0.262-0.0712-0.363 0.299-0.101 0.371 0.116 0.0184 0.224 0.0078 0.342 0.0031 0.577-0.0226 1.15-0.0508 1.73-0.0799 1.51-0.0547 0.429-0.0118 2.03-0.0855 0.674-0.0311 1.75-0.0192 2.41-0.238 0.109-0.0366 0.198-0.117 0.297-0.176 0.143-0.253 0.259-0.407-0.246-0.411-0.037-3.03e-4 4e-3 0.0738 5e-3 0.111 4e-3 0.311-2e-3 0.615-5e-3 0.927-0.0458 2.26-0.12 4.51-0.328 6.76-0.0343 0.269 0.347 0.318 0.381 0.0484z"/><path d="m104 35.8c-0.179 0.102-0.365 0.191-0.536 0.307-0.367 0.249-0.877 0.696-1.21 0.98-0.376 0.317-0.746 0.632-1.1 0.971-0.0305 0.0466-0.102 0.085-0.0915 0.14 0.068 0.364 0.183 0.328 0.46 0.399 0.108 0.0276 0.217 0.0546 0.325 0.0801 0.718 0.168 0.0496-7.69e-4 0.783 0.19 0.325 0.0717 0.655 0.126 0.986 0.16 0.0791 0.0081 0.164 0.0415 0.238 0.013 0.0669-0.0258 0.125-0.0705 0.187-0.106 0.459-0.678 0.369-1.5 0.277-2.27-0.0353-0.148-0.0706-0.296-0.106-0.443-0.0638-0.264-0.437-0.174-0.373 0.0903 0.0327 0.133 0.0653 0.266 0.0979 0.399 0.0819 0.667 0.165 1.34-0.166 1.95 0.0286-0.0017 0.0576 2.23e-4 0.0857-0.0052 0.0191-0.0037-0.0389 9.98e-4 -0.0584-1.1e-5 -0.0461-0.0025-0.0922-0.0057-0.138-0.0103-0.314-0.0317-0.626-0.0832-0.934-0.15-0.37-0.0962-0.742-0.185-1.11-0.272-0.0631-0.0147-0.139-0.0795-0.19-0.0397-0.0401 0.0312-0.0584 0.338-3e-3 0.152 0.349-0.334 0.714-0.644 1.08-0.955 0.389-0.328 0.749-0.647 1.16-0.943 0.132-0.0946 0.275-0.173 0.413-0.26 0.266-0.0527 0.192-0.43-0.0745-0.377z"/><path d="m101 45.6c0.2-0.0511 0.396-0.12 0.6-0.153 1.15-0.188 2.32-0.143 3.48-0.103 1.93 0.0662 0.754 0.05 2.67 0.0494 1.02-0.0468 2.04-0.124 3.05-0.243 0.147-0.0171 0.293-0.0357 0.439-0.0604 0.0638-0.0108 0.16 0.012 0.189-0.0461 0.0556-0.112 0.0134-0.25 0.0201-0.374-0.222-0.157-0.444 0.156-0.222 0.313 0.0363-0.104 0.125-0.203 0.109-0.312-7e-3 -0.0505-0.098 0.0297-0.148 0.0382-0.141 0.0239-0.284 0.0422-0.426 0.0588-1 0.117-2.01 0.194-3.01 0.241-1.92 0.0011-0.716 0.0169-2.66-0.0492-1.19-0.0406-2.4-0.091-3.59 0.115-0.232 0.0404-0.454 0.123-0.681 0.185-0.24 0.126-0.0616 0.466 0.179 0.34z"/><path d="m111 44.9c0.0793 2.6 0.0442 5.2 0.205 7.8 0.089 1.44 0.244 2.94 0.381 4.38 0.0671 0.633 0.134 1.27 0.201 1.9 0.0286 0.27 0.411 0.23 0.382-0.0405-0.067-0.632-0.134-1.26-0.201-1.9-0.136-1.42-0.291-2.93-0.379-4.36-0.161-2.59-0.125-5.19-0.205-7.79-5e-3 -0.272-0.39-0.264-0.384 0.0079z"/><path d="m100 30.7c0.373 0.0417 0.744 0.0956 1.12 0.125 1.01 0.0801 2.26 0.109 3.26 0.146 1.45 0.0544 2.9 0.112 4.35 0.225-5e-3 0.0796 1.16 0.0449 1.18 0.305 2e-3 0.0304-0.0628-0.0254-0.074-0.0537-0.0751-0.189 0.0852-0.0629-0.0446-0.148-0.27-0.0315-0.314 0.35-0.0448 0.381 0.0853 6.72e-4 0.178 0.0362 0.256 2e-3 0.224-0.0981 0.29-0.268 0.157-0.474-0.116-0.181-0.487-0.258-0.644-0.289-0.249-0.0489-0.503-0.0716-0.755-0.107-1.45-0.113-2.91-0.171-4.37-0.226-0.983-0.0368-2.23-0.0658-3.23-0.144-0.366-0.0288-0.729-0.0812-1.09-0.122-0.268-0.047-0.334 0.331-0.0665 0.378z"/><path d="m110 30.7c5e-3 -0.259 0.0209-0.518 0.0166-0.777-7e-3 -0.442-0.0335-0.882-0.051-1.32-0.0699-1.76-0.16-3.52-0.224-5.29 5e-3 -0.288-0.0288-0.577-0.0163-0.866 0.0106-0.271-0.373-0.286-0.384-0.0149-0.0106 0.298 0.0159 0.597 0.0163 0.895 0.0642 1.76 0.153 3.53 0.224 5.29 0.0173 0.434 0.0435 0.867 0.0508 1.3 5e-3 0.255-0.0108 0.509-0.0161 0.764-0.015 0.271 0.369 0.292 0.384 0.0212z"/><path d="m106 22.3c2.5 0.0675 4.99 0.07 7.49 3.3e-4 0.238-0.0012 0.477-0.0023 0.715-0.0035 0.272-0.0013 0.27-0.385-2e-3 -0.384-0.241 0.0012-0.483 0.0024-0.724 0.0037-2.49 0.0696-4.98 0.067-7.47-4.29e-4 -0.272-0.0043-0.278 0.38-6e-3 0.384z"/><path d="m97 60.5c-0.0241 1.57-0.0791 3.14-0.0287 4.71 0.0314 0.978 0.134 2.38 0.201 3.38 0.0618 0.857 0.141 1.71 0.332 2.55 0.0534 0.235 0.106 0.438 0.234 0.641 0.0418 0.0282 0.0836 0.0564 0.125 0.0846 0.254 0.0957 0.389-0.264 0.135-0.359 0.019 0.0196 0.038 0.0392 0.0569 0.0588-0.107-0.132-0.141-0.351-0.176-0.504-0.188-0.822-0.263-1.66-0.324-2.5-0.0662-0.979-0.17-2.4-0.2-3.36-0.0506-1.57 5e-3 -3.14 0.0286-4.72-4e-3 -0.272-0.388-0.266-0.384 0.0059z"/><path d="m100 58.7c0.0295-0.232 0.0221-0.244 0.0823-0.461 0.0133-0.048 0.0867-0.173 0.0477-0.142-0.608 0.482-0.42 0.548-0.421 1.44-8.5e-4 0.55 0.0165 1.1 0.0248 1.65 0.0824 2.42 0.291 4.82 0.449 7.23 0.11 1.67 0.198 3.35 0.301 5.03 0.114 0.448 0.0208 0.936 0.128 1.39 0.0172 0.0724 0.0721 0.13 0.108 0.195 0.155 0.223 0.47 0.0031 0.315-0.22-0.433-0.203 0.382-1.29-0.168-1.39-0.103-1.68-0.191-3.35-0.301-5.03-0.158-2.4-0.366-4.8-0.448-7.21-8e-3 -0.545-0.0257-1.09-0.0249-1.63 1e-3 -0.732 0.235-1.06-0.328-1.57-0.0455-0.0412-0.0412 0.116-0.0571 0.175-0.0225 0.0837-0.0427 0.168-0.0579 0.253-0.0146 0.0815-0.0209 0.164-0.0313 0.246-0.0343 0.269 0.347 0.318 0.381 0.0484z"/><path d="m101 59.4c1.49 0.18 2.99-0.0748 4.46-0.288 0.844-0.122 1.69-0.253 2.53-0.376 0.277-0.0326 0.554-0.0652 0.83-0.0978 0.27-0.0318 0.225-0.413-0.0449-0.381-0.28 0.0331-0.561 0.0661-0.841 0.0992-0.844 0.123-1.69 0.253-2.53 0.376-1.42 0.207-2.87 0.452-4.31 0.296-0.263-0.0674-0.358 0.305-0.0953 0.372z"/><path d="m111 71.5c0.0293-0.874 0.0494-1.75 0.148-2.62 0.0756-0.664 0.191-1.26 0.308-1.91 0.0558-0.383 0.163-0.754 0.239-1.13 5e-3 -0.0247 0.086-0.363 7e-3 -0.422-0.265-0.198-0.312-0.115-0.514-0.0025-0.387 0.27-0.831 0.367-1.29 0.447-1.07 0.103-2.14-0.0258-3.21-0.0849-0.79-0.0438-0.781-0.0359-1.55-0.0465-0.581-0.0069-1.18-0.0243-1.75 0.122-0.447 0.115-0.867 0.33-1.28 0.538-0.0845 0.0488-0.17 0.0957-0.254 0.146-0.0516 0.0314-0.183 0.115-0.239 0.167-0.0202 0.019-0.0725 0.0428-0.054 0.0635 0.264 0.295 0.222 0.294 0.382 0.195 0.231-0.143 0.0277-0.47-0.203-0.326-0.0231 0.0144-0.079 0.0178-0.0693 0.0431 0.0442 0.115 0.144 0.201 0.205 0.308 4e-3 0.0076-0.0275 0.0218-0.0208 0.0161 0.071-0.0602 0.0939-0.0757 0.191-0.135 0.0777-0.0473 0.157-0.0912 0.236-0.137 0.372-0.191 0.76-0.394 1.17-0.501 0.545-0.143 1.12-0.122 1.67-0.116 0.759 0.0102 0.752 0.0025 1.53 0.0457 1.1 0.0609 2.2 0.194 3.3 0.0797 0.531-0.0964 0.975-0.195 1.42-0.499 0.13-0.1 0.0717-0.0182-0.0552-0.209-4e-3 -0.0056 0.0205-0.0093 0.0201-0.0025-5e-3 0.0761-0.02 0.151-0.035 0.226-0.0771 0.384-0.185 0.761-0.242 1.15-0.121 0.68-0.234 1.26-0.313 1.95-0.1 0.882-0.121 1.77-0.15 2.66 4e-3 0.272 0.388 0.266 0.384-0.0059z"/><path d="m103 65c-0.388 0.357-0.769 0.722-1.14 1.09-0.0445 0.0439-0.529 0.53-0.613 0.641-0.0459 0.0613-0.0719 0.135-0.108 0.203 0.088 0.111 0.139 0.266 0.264 0.332 0.0964 0.0503 0.917 0.0583 0.986 0.0635 0.493 0.0374 0.982 0.132 1.47 0.224 0.298 0.065 0.184 0.02 0.373 0.109 0.0191 0.0089-0.0517-0.0064-0.0572-0.0266-0.0178-0.0652-0.0286-0.139-5e-3 -0.203 0.0135-0.0371 0.0697-0.0378 0.101-0.0615 0.0217-0.0162 0.0385-0.0382 0.0576-0.0573-0.196-0.608-0.323-1.24-0.464-1.86-0.0597-0.265-0.434-0.181-0.375 0.0844 0.149 0.66 0.278 1.33 0.507 1.97 0.0782 0.082 0.131 0.2 0.234 0.246 0.227 0.0995 0.289-0.197 0.271-0.319-0.0291-0.199-0.459-0.221-0.571-0.258-0.505-0.0955-1.01-0.191-1.53-0.23-0.168-0.0128-0.337-9e-3 -0.505-0.0155-0.114-0.0045-0.237-0.0618-0.342-0.0176-0.0623 0.0261-0.0461 0.127-0.0691 0.19 0.0866-0.211 0.0276-0.104 0.278-0.366 0.474-0.496 0.979-0.963 1.48-1.44 0.215-0.166-0.0204-0.47-0.235-0.304z"/><path d="m102 74c1.08-0.546 2.3-0.651 3.48-0.79 0.892-0.105 1.79-0.191 2.68-0.288 1.07-0.104 2.14-0.2 3.2-0.301 0.407-0.0384 0.811-0.0814 1.22-0.0858 0.322 0.0232 0.548-0.158 0.804-0.311 0.158-0.141 0.357-0.213 0.553-0.283 0.149-0.06 0.299-0.118 0.443-0.191 0.242-0.124 0.0671-0.466-0.175-0.342-0.128 0.0664-0.265 0.116-0.398 0.171-0.219 0.0796-0.447 0.161-0.625 0.317-0.196 0.123-0.357 0.271-0.607 0.255-0.42 0.0057-0.834 0.0481-1.25 0.0875-1.07 0.101-2.14 0.197-3.21 0.301-0.896 0.0966-1.79 0.184-2.69 0.289-1.23 0.145-2.5 0.261-3.62 0.837-0.236 0.134-0.0463 0.468 0.19 0.334z"/></g><path d="m114 72.3c-0.0609 0.239-0.137 0.477-0.183 0.717-0.351 1.83-0.435 3.7-0.301 5.54 0.0291 0.402 0.0941 0.802 0.141 1.2 0.183 1.16 0.731 2.28 1.13 3.41 0.0649 0.184 0.464 0.124 0.399-0.0599-0.395-1.12-0.936-2.22-1.12-3.37-0.0466-0.396-0.111-0.791-0.14-1.19-0.133-1.83-0.0498-3.68 0.296-5.49 0.045-0.235 0.119-0.467 0.178-0.701 0.0649-0.184-0.334-0.244-0.399-0.06z" stroke-width=".662"/><path d="m113 84.8c1.57-0.126 3.14-0.497 4.58-1.15-0.756-0.0189 0.532-0.176 0.389-0.213-0.091-0.0235-0.22-0.0745-0.282-0.0035-0.105 0.121-0.078 0.312-0.119 0.467-0.423 1.58 0.0189-0.136-0.437 1.67-0.0634 0.314-0.132 0.628-0.19 0.943-0.129 0.695-0.163 0.941-0.226 1.63-0.0496 0.541-0.0636 1.08-0.119 1.62-0.0172 0.0565-0.0256 0.116-0.0513 0.169-0.0493 0.102 0.0313-0.135 0.021-0.152-0.0351-0.0578-0.0992-0.0926-0.143-0.145-0.204-0.244-0.438-0.604-0.605-0.847-0.542-0.834-1-1.72-1.47-2.59-0.252-0.475-0.516-0.939-0.701-1.44-0.0944-0.255-0.455-0.121-0.36 0.134 0.195 0.521 0.462 1 0.723 1.49 0.473 0.89 0.937 1.79 1.49 2.63 0.161 0.234 0.965 1.68 1.41 1.03 0.0462-0.0672 0.0428-0.157 0.0641-0.236 0.0542-0.54 0.0691-1.08 0.118-1.62 0.0621-0.682 0.0938-0.912 0.221-1.6 0.0572-0.309 0.124-0.616 0.186-0.925 0.0764-0.302 0.15-0.604 0.229-0.905 0.0669-0.255 0.142-0.507 0.208-0.762 0.115-0.442 0.279-0.586-0.133-0.904-0.116-0.09-0.303 0.436-0.386 0.212-1.39 0.632-2.91 0.985-4.43 1.11-0.272 0.0041-0.266 0.388 6e-3 0.384z" stroke-width=".768"/><path d="m112 51.3c1.83-0.803 3.8-0.907 5.72-1.04 1.27-0.0415 0.681-0.0341 1.76-0.0321 0.226 3.95e-4 0.226-0.398 4.3e-4 -0.399-1.09-0.0019-0.499-0.0094-1.78 0.0327-1.96 0.134-3.96 0.243-5.83 1.07-0.21 0.105-0.091 0.475 0.119 0.37z" stroke-width=".714"/><g stroke-width=".768"><path d="m127 46.8c-0.122-0.219-0.187-0.403-0.458-0.511-0.761-0.303-1.9-0.0248-2.6 0.275-0.427 0.181-0.818 0.436-1.23 0.654-0.988 0.764-1.5 0.986-2.09 2.14-0.738 1.43-0.652 3.14 0.439 4.38 0.416 0.475 0.998 0.772 1.5 1.16 0.657 0.238 1.29 0.558 1.97 0.713 1.91 0.433 4.32 0.304 6.07-0.639 0.493-0.265 0.969-0.597 1.33-1.03 0.321-0.381 0.441-0.893 0.661-1.34-8e-3 -0.483 0.0839-0.979-0.0254-1.45-0.463-1.99-2.52-3.34-4.22-4.18-0.347-0.173-0.709-0.312-1.06-0.468-0.249-0.109-0.403 0.243-0.154 0.352 0.345 0.151 0.697 0.286 1.03 0.453 1.58 0.782 3.54 2.03 4.02 3.86 0.108 0.411 0.0417 0.848 0.0626 1.27-0.184 0.401-0.271 0.861-0.551 1.2-0.33 0.403-0.77 0.718-1.23 0.968-1.67 0.917-3.97 1.04-5.8 0.637-0.644-0.141-1.24-0.438-1.87-0.657-0.464-0.346-1-0.61-1.39-1.04-1.02-1.11-1.12-2.66-0.466-3.97 0.552-1.1 1.03-1.31 1.97-2.03 0.385-0.208 0.754-0.451 1.16-0.625 0.537-0.232 1.17-0.37 1.76-0.389 0.389-0.0124 0.649 0.0387 0.824 0.384 0.0899 0.256 0.452 0.129 0.362-0.127z"/><path d="m123 53.6c0.0204-1.21 0.0556-2.43 0.351-3.61-0.0712 0.335 0.0864-0.384 0.141-0.291 0.0154 0.0265-0.0474 0.044-0.055 0.0737-0.01 0.0388-0.0114 0.0837 5e-3 0.12 0.0552 0.118 0.138 0.221 0.206 0.332 0.0914 0.149 0.182 0.299 0.273 0.448 0.287 0.38 1.17 1.64 1.8 1.28 0.139-0.0793 0.214-0.238 0.321-0.357 0.217-0.565 0.329-1.16 0.466-1.75 0.0626-0.269 0.0963-0.648 0.273-0.879-0.0462 0.041-0.123 0.0633-0.139 0.123-0.0147 0.0545 0.0409 0.105 0.0642 0.157 0.0498 0.11 0.103 0.219 0.155 0.328 0.254 0.531 0.53 1.04 0.828 1.55 0.274 0.438 0.565 0.866 0.874 1.28 0.086 0.116 0.173 0.235 0.278 0.335 0.203 0.181 0.458-0.106 0.256-0.287-0.414-0.462-0.729-1.01-1.08-1.52-0.293-0.498-0.562-0.997-0.813-1.52-0.0466-0.0968-0.259-0.594-0.387-0.659-0.107-0.0544-0.241 0.0036-0.361 0.0055-0.0388 0.0638-0.088 0.122-0.116 0.191-0.0794 0.193-0.169 0.634-0.21 0.811-0.125 0.539-0.238 1.08-0.403 1.61-0.029 0.0687-0.0391 0.149-0.0869 0.206-0.117 0.14-0.291 0.0215-0.4-0.0456-0.42-0.258-0.702-0.674-0.995-1.06-0.154-0.253-0.515-0.985-0.825-1.08-0.281-0.0899-0.395 0.358-0.446 0.509-0.3 1.22-0.347 2.48-0.361 3.73 0.0192 0.271 0.402 0.244 0.383-0.0272z"/><path d="m134 51.1c1.47-0.514 2.98-0.913 4.51-1.22 0.844-0.171 1.74-0.305 2.59-0.44 1.07-0.135 0.589-0.0842 1.45-0.164 0.27-0.0251 0.235-0.408-0.0354-0.382-0.877 0.0814-0.385 0.0294-1.47 0.167-0.868 0.138-1.76 0.27-2.62 0.445-1.54 0.313-3.07 0.717-4.56 1.24-0.254 0.0966-0.117 0.456 0.137 0.359z"/><path d="m143 44.3c0.374 3.03 0.582 6.07 0.974 9.1 0.0761 0.588 0.17 1.17 0.255 1.76 0.246 1.39 0.113 0.794 0.361 1.81 0.0648 0.264 0.438 0.172 0.373-0.0916-0.243-0.985-0.112-0.397-0.354-1.77-0.0845-0.583-0.178-1.17-0.254-1.75-0.393-3.03-0.6-6.09-0.977-9.12-0.0465-0.268-0.425-0.202-0.378 0.0657z"/><path d="m143 45c1.82-0.541 3.7-0.841 5.57-1.18 1.18-0.217 1.56-0.289 2.68-0.502 0.964-0.186 0.536-0.106 1.28-0.242 0.267-0.0484 0.199-0.426-0.0685-0.378-0.752 0.136-0.323 0.0567-1.29 0.243-1.12 0.213-1.49 0.284-2.68 0.501-1.88 0.344-3.78 0.647-5.62 1.19-0.258 0.0844-0.139 0.449 0.119 0.365z"/><path d="m153 32.7c-2e-3 0.257-0.0211 0.514-7e-3 0.77 0.0263 0.481 0.324 3.55 0.341 3.73 0.249 2.45 0.541 4.9 0.863 7.34 0.338 1.99 0.161 1.11 0.502 2.67 0.0579 0.265 0.433 0.183 0.375-0.0819-0.337-1.54-0.162-0.665-0.497-2.64-0.321-2.44-0.613-4.88-0.861-7.33-0.0236-0.232-0.306-3.16-0.339-3.69-0.0141-0.222-5e-3 -0.446-7e-3 -0.669 0.0721-0.262-0.298-0.364-0.37-0.102z"/><path d="m155 34.4c0.513 2.72 0.826 5.47 1.22 8.21 0.0384 0.269 0.419 0.215 0.38-0.0543-0.392-2.74-0.706-5.5-1.22-8.23-0.0527-0.266-0.43-0.192-0.377 0.0745z"/><path d="m146 56.7c2.05-0.508 4.1-1.07 6.18-1.44 0.673-0.0908 1.35-0.195 2.01-0.346 0.265-0.0601 0.18-0.435-0.0851-0.375-0.657 0.15-1.33 0.251-1.99 0.342-2.1 0.374-4.15 0.932-6.22 1.44-0.261 0.0746-0.156 0.444 0.106 0.369z"/><path d="m155 52c0.563 3.62 1.08 7.24 1.57 10.9 0.172 1.21 0.308 2.43 0.5 3.64 0.0426 0.268 0.422 0.208 0.379-0.0602-0.192-1.21-0.326-2.42-0.499-3.63-0.482-3.62-0.994-7.23-1.56-10.8-4e-3 -0.272-0.388-0.266-0.384 0.0059z"/><path d="m159 56.3c-0.0151-0.149-0.0522-0.295-0.0678-0.443-4e-3 -0.0371 0.035-0.119-2e-3 -0.112-0.124 0.0237-0.3 0.055-0.334 0.176-0.0585 0.211 0.0759 0.432 0.106 0.649 0.0564 0.409 0.102 0.819 0.153 1.23 0.263 2.42 0.538 4.83 0.906 7.24 0.041 0.268 0.421 0.21 0.38-0.058-0.367-2.4-0.642-4.81-0.905-7.23-0.0518-0.415-0.0965-0.831-0.155-1.25-0.0341-0.24 0.0168-0.519-0.124-0.716-0.0797-0.112-0.28-0.0748-0.411-0.0343-0.0221 0.0068 0.0138 0.211 0.0384 0.372 0.0118 0.0768 0.0235 0.154 0.0353 0.23 0.041 0.268 0.421 0.21 0.38-0.0581z"/><path d="m147 67.4c0.358-0.0754 0.719-0.144 1.08-0.226 0.79-0.182 2.61-0.649 3.35-0.834 1.47-0.369 2.94-0.743 4.41-1.12 0.263-0.0681 0.167-0.44-0.0964-0.372-1.47 0.381-2.94 0.755-4.41 1.12-0.748 0.187-2.54 0.645-3.34 0.83-0.347 0.0804-0.698 0.148-1.05 0.221-0.269 0.0354-0.219 0.416 0.0501 0.381z"/><path d="m143 34.6c0.0416-0.0467 0.0697-0.11 0.125-0.14 0.322-0.175 0.86-0.175 1.16-0.186 0.4-0.0141 0.8-0.0056 1.2-0.0035 4.77 0.0256-2.01 0.0148 2.83 0.0185 1.07-0.027 2.14-0.104 3.2-0.193 0.271-0.0228 0.238-0.406-0.0322-0.383-1.06 0.0888-2.11 0.165-3.17 0.192-5.67-0.0042 2.78 0.0076-2.83-0.0185-0.412-0.0019-0.824-0.014-1.23 0.0051-0.524 0.0244-1 0.0173-1.43 0.335-0.089 0.0653-0.126 0.181-0.19 0.271-0.0721 0.262 0.298 0.364 0.37 0.102z"/><path d="m144 40c0.189 1.36 0.52 2.69 0.958 3.99 0.0869 0.257 0.451 0.134 0.364-0.123-0.43-1.27-0.754-2.58-0.94-3.91-0.0321-0.27-0.414-0.224-0.381 0.0454z"/><path d="m145 38.9c1.87-0.125 3.69-0.618 5.52-0.998 0.559-0.0673 0.332-0.0824 0.683-0.0344 0.27 0.0295 0.312-0.352 0.0417-0.382-0.451-0.0409-0.183-0.0361-0.803 0.0402-1.8 0.374-3.6 0.858-5.44 0.99-0.272-0.0073-0.282 0.377-0.0104 0.384z"/><path d="m149 36.5c0.135 0.468 0.242 0.944 0.385 1.41 0.0273 0.0888 0.053 0.179 0.0903 0.264 0.0174 0.0398 0.0335 0.127 0.0728 0.108 0.138-0.0659 0.228-0.204 0.342-0.306 5e-3 -0.301-0.0901-1.02 0.186-1.23 0.148-0.111 0.62-0.183 0.743-0.209 0.399-0.0335 0.639-0.0775 1.04-0.0206 0.114 0.0163 0.248 0.0162 0.333 0.0947 0.0422 0.0392-0.0286 0.112-0.0546 0.164-0.186 0.366-0.398 0.62-0.645 0.964-0.697 0.92-0.356 0.477-1.02 1.33-0.167 0.214 0.136 0.45 0.303 0.236 0.671-0.861 0.327-0.413 1.03-1.34 0.204-0.288 0.696-0.867 0.704-1.29 0.0144-0.788-1.34-0.543-1.77-0.513-0.373 0.0883-0.697 0.107-0.989 0.388-0.335 0.323-0.235 1.01-0.24 1.42 0.112 0.0214 0.374 0.18 0.333 0.074-0.211-0.538-0.298-1.12-0.472-1.66-0.0818-0.259-0.448-0.143-0.366 0.116z"/></g><path d="m144 32.5c-0.38-3.32-0.626-6.69-0.77-10.1-0.0817-0.895 0.0889-0.811-0.418-0.758-0.113 0.376 0.193 0.654 0.305 0.277-0.516-0.197-0.293-0.256-0.27-0.018 0.0177 0.18 0.026 0.362 0.0389 0.543 0.145 3.41 0.393 6.8 0.777 10.2 0.0524 0.414 0.389 0.286 0.336-0.129z" stroke-width=".909"/><g stroke-width=".768"><path d="m139 22.3c2.4-0.767 4.87-1.29 7.34-1.78 0.247-0.0422 0.495-0.0845 0.742-0.127 0.268-0.0458 0.203-0.424-0.0647-0.379-0.251 0.0429-0.502 0.0858-0.753 0.129-2.49 0.497-4.98 1.02-7.39 1.8-0.256 0.0898-0.129 0.452 0.127 0.362z"/><path d="m147 62.2c0.199 1.28 0.279 2.6 0.743 3.81 0.0974 0.254 0.456 0.116 0.359-0.138-0.46-1.19-0.519-2.49-0.722-3.73-0.041-0.268-0.421-0.21-0.38 0.0581z"/><path d="m148 62c1.79-0.421 3.52-1.06 5.3-1.51 0.089-0.0117 0.178-0.0234 0.267-0.0351 0.269-0.0366 0.217-0.417-0.0517-0.381-0.103 0.0144-0.206 0.0288-0.309 0.0433-1.79 0.453-3.53 1.09-5.33 1.51-0.259 0.0818-0.143 0.448 0.116 0.366z"/><path d="m153 59.1c0.204 0.627 0.382 1.27 0.465 1.92 7e-3 0.0234-4e-3 0.0725 0.0202 0.0701 0.131-0.0127 0.279-0.0232 0.379-0.109 0.0527-0.0454-5e-3 -0.139-0.0107-0.208-0.0293-0.32-0.0949-0.627-0.172-0.938 2e-3 -0.0133-0.162-0.477-0.137-0.495 0.0155-0.0112 9e-3 0.0444 0.0266 0.0508 0.0283 0.0101 0.0597-0.0065 0.0895-0.0095 0.078-0.0077 0.156-0.015 0.234-0.0224 0.4 0.0094 1.36-7e-3 1.66 0.288 0.0277 0.0273 0.0251 0.0736 0.0377 0.11-0.0768 0.472-0.315 0.905-0.625 1.26-0.127 0.147-0.277 0.272-0.415 0.407-0.193 0.191 0.0773 0.464 0.27 0.273 0.153-0.152 0.319-0.293 0.458-0.457 0.302-0.357 0.625-0.861 0.67-1.34 0.0108-0.114-0.0197-0.229-0.0296-0.344-0.0604-0.0823-0.104-0.18-0.181-0.247-0.379-0.332-1.41-0.333-1.9-0.332-0.192 0.0279-0.425 0.0243-0.579 0.177-0.227 0.226-0.0178 0.533 0.0405 0.774 0.073 0.289 0.129 0.573 0.162 0.87 5e-3 0.0476-0.0318 0.124 0.0121 0.143 0.112 0.0485 0.385-0.101 0.364 0.0309-0.0874-0.682-0.27-1.35-0.483-2-0.0899-0.256-0.452-0.129-0.362 0.127z"/><path d="m149 68.2c0.611 3.74 0.967 7.52 1.31 11.3 0.0331 0.378 0.0662 0.757 0.0993 1.14 0.0237 0.271 0.406 0.237 0.383-0.0335-0.0331-0.379-0.0663-0.758-0.0994-1.14-0.345-3.78-0.7-7.56-1.31-11.3-0.0321-0.27-0.414-0.224-0.381 0.0454z"/><path d="m149 80.4c1.56-0.273 3.01-0.921 4.45-1.56 0.0854-0.0297 0.344-0.0663 0.256-0.0891-0.469-0.122-0.578 0.407-0.743 0.697-0.448 0.786-0.739 1.32-1.11 2.17-0.19 0.438-0.351 0.887-0.527 1.33-0.263 0.735-0.535 1.49-0.784 2.23-0.157 0.469-0.297 0.963-0.495 1.41 0.111-0.0242 0.286 0.0307 0.334-0.0725 0.0821-0.174-5e-3 -0.386-0.0285-0.577-0.0453-0.378-0.104-0.754-0.176-1.13-0.216-1.13-0.43-1.96-0.781-3.07-0.152-0.478-0.333-0.947-0.5-1.42-0.515-1.29-0.262-0.716-0.736-1.72-0.116-0.246-0.463-0.0815-0.347 0.164 0.462 0.977 0.214 0.419 0.721 1.68 0.164 0.466 0.343 0.928 0.493 1.4 0.349 1.1 0.554 1.9 0.771 3.02 0.0695 0.36 0.128 0.722 0.172 1.09 0.0232 0.193-0.0508 0.404 0.0288 0.582 0.0616 0.138 0.237 0.186 0.356 0.279 0.151-0.229 0.233-0.538 0.317-0.791 0.327-0.983 0.645-1.97 1.01-2.94 0.466-1.18 0.508-1.37 1.07-2.48 0.167-0.328 0.352-0.648 0.534-0.968 0.193-0.341 0.688-0.801 0.286-1.26-0.0671-0.0758-0.191 0.0674-0.286 0.101-1.4 0.627-2.81 1.26-4.32 1.53-0.27 0.025-0.235 0.407 0.0353 0.382z"/></g><path d="m66.4 39.8c0.663-1.04 1.13-2.21 1.36-3.42 0.0274-0.146 0.0368-0.294 0.0551-0.441 0.0325-0.27-0.163-0.832-0.476-0.376-0.092 0.134-0.0458 0.453-0.0421 0.564 0.0969 0.62 0.23 1.26 0.659 1.75 0.271 0.307 0.369 0.315 0.725 0.493 0.146 0.0227 0.292 0.0908 0.438 0.068 0.736-0.115 0.885-0.964 0.982-1.56 0.0778-0.476 0.107-1.23 0.133-1.72 5e-3 -0.189 0.0289-0.866 0.0178-1.11-0.0033-0.0726 0.0148-0.159-0.0299-0.216-0.0536-0.0689-0.153-0.158-0.232-0.121-0.282 0.132-0.198 0.837-0.201 0.954 0.0401 1.23 0.281 2.44 0.578 3.63 0.222 0.893 0.382 1.45 0.698 2.3 0.087 0.232 0.192 0.457 0.289 0.685 0.0845 0.2 0.368 0.0809 0.283-0.12-0.0937-0.222-0.196-0.44-0.281-0.666-0.313-0.833-0.468-1.38-0.689-2.26-0.291-1.17-0.529-2.35-0.57-3.56 0.0015-0.186 0.0215-0.373 0.0046-0.559-0.0035-0.0387-0.0406-0.0665-0.0644-0.0972-0.0374-0.0481-0.0618-0.159-0.119-0.139-0.0545 0.0195 0.0241 0.114 0.0266 0.172 0.0108 0.249-0.0123 0.904-0.0174 1.1-0.0428 0.785-0.0422 1.6-0.28 2.36-0.0799 0.254-0.181 0.56-0.486 0.627-0.113 0.0249-0.23-0.0265-0.345-0.0398-0.294-0.138-0.382-0.144-0.608-0.393-0.397-0.437-0.511-1.03-0.604-1.59-0.0067-0.0923-0.0203-0.184-0.02-0.277 9.6e-5 -0.0398 0.0403-0.0827 0.021-0.117-0.0154-0.0277-0.0668 0.0025-0.0939-0.0138-0.0298-0.0179-0.0379-0.0596-0.0648-0.0815-0.074-0.0606 0.497 0.582 0.0633 0.28-0.0165 0.136-0.0242 0.274-0.0494 0.409-0.22 1.18-0.677 2.31-1.32 3.32-0.118 0.183 0.141 0.349 0.259 0.166z" stroke-width=".615"/><g stroke-width=".768"><path d="m90 36.3c0.206-0.078 0.408-0.171 0.619-0.234 1.82-0.543 3.79-0.554 5.68-0.531 0.238 0.0119 0.475 0.0239 0.713 0.0358 0.271 0.0136 0.29-0.37 0.0192-0.384-0.242-0.0121-0.485-0.0242-0.728-0.0363-1.92-0.0224-3.98-0.0078-5.82 0.557-0.233 0.0713-0.455 0.177-0.682 0.265-0.232 0.142-0.0316 0.469 0.2 0.328z"/><path d="m88.3 35.1c-0.0911-0.13-0.252-0.389-0.395-0.469-0.416-0.232-1.04-0.154-1.4 0.158-0.139 0.12-0.211 0.301-0.316 0.452 0.0159 0.208-0.0482 0.439 0.0477 0.624 0.54 1.04 2.47 1.14 3.45 0.905 0.262-0.0629 0.498-0.206 0.747-0.309 0.13-0.194 0.375-0.35 0.389-0.583 0.0442-0.719-0.592-1.06-1.03-1.44-0.209-0.173-0.454 0.122-0.245 0.296 0.14 0.111 0.907 0.625 0.947 0.948 0.0195 0.157-0.139 0.284-0.209 0.425-0.212 0.0935-0.412 0.224-0.637 0.281-0.527 0.132-1.27 0.12-1.8 0.0191-0.402-0.0771-0.95-0.245-1.23-0.6-0.0769-0.0986-0.0684-0.241-0.103-0.361 0.056-0.105 0.0829-0.232 0.168-0.316 0.175-0.172 0.707-0.347 0.951-0.226 0.111 0.0549 0.251 0.27 0.322 0.367 0.121 0.243 0.465 0.0721 0.344-0.171z"/><path d="m90.3 66.5c-0.521 0.0089-1.04 0.0765-1.56 0.117-0.103 8e-3 -0.297-0.0855-0.31 0.0171-0.0159 0.132 0.14 0.277 0.272 0.292 0.243 0.0268 0.474-0.122 0.711-0.183 1.48-0.35 2.98-0.66 4.47-0.946 0.682-0.13 1.34-0.28 2.03-0.297 0.136-0.0033 0.27 0.0277 0.404 0.0415 0.27 0.0256 0.307-0.357 0.0362-0.382-0.158-0.0139-0.316-0.0458-0.475-0.0417-0.706 0.0185-1.38 0.171-2.07 0.303-1.5 0.288-3 0.599-4.49 0.951-0.12 0.0315-1.16 0.0658-0.865 0.647 0.049 0.0961 0.216-0.0098 0.323-0.0181 0.514-0.0398 1.03-0.107 1.54-0.116 0.271-0.0145 0.251-0.398-0.0205-0.384z"/><path d="m88.2 65.5c-0.421 0.103-0.979 0.264-1.05 0.794-0.0558 0.405 0.222 0.823 0.573 0.994 0.233 0.113 0.506 0.112 0.758 0.167 0.637-0.0326 1.68-0.0851 2.17-0.6 0.129-0.138 0.241-0.327 0.232-0.516-0.0293-0.629-0.566-0.819-0.996-1.11-0.275-0.108-0.55-0.217-0.824-0.325-0.253-0.0985-0.392 0.259-0.139 0.358 0.251 0.0963 0.503 0.193 0.754 0.289 0.133 0.0811 0.764 0.383 0.845 0.659 0.207 0.705-1.61 0.859-1.97 0.87-0.193-0.0272-0.395-0.0156-0.579-0.0816-0.149-0.0536-0.471-0.324-0.481-0.527-0.0201-0.407 0.471-0.511 0.756-0.588 0.27-0.0321 0.224-0.414-0.0454-0.381z"/><path d="m157 37.9c2.15-0.237 4.31-0.317 6.46-0.521 0.14-0.0097 0.281-0.0193 0.421-0.029 0.271-0.0187 0.245-0.402-0.0264-0.383-0.144 0.0099-0.287 0.0199-0.431 0.0298-2.15 0.204-4.32 0.284-6.47 0.522-0.27 0.0321-0.224 0.414 0.0454 0.381z"/><path d="m166 35.8c-0.64 0.103-1.35 0.338-1.76 0.876-0.106 0.137-0.214 0.291-0.236 0.463-0.0249 0.197 0.0689 0.391 0.103 0.586 0.15 0.159 0.261 0.367 0.45 0.477 0.637 0.373 1.58 0.314 2.23 0.016 0.203-0.0934 0.419-0.195 0.56-0.368 0.13-0.159 0.141-0.385 0.211-0.578-0.0869-0.209-0.174-0.419-0.261-0.628-0.123-0.242-0.465-0.069-0.343 0.173 0.078 0.117 0.156 0.233 0.234 0.35-0.0186 0.121 0.0176 0.266-0.0565 0.364-0.113 0.149-0.294 0.238-0.462 0.321-0.517 0.254-1.31 0.321-1.84 0.0748-0.138-0.0636-0.23-0.198-0.345-0.297-0.043-0.108-0.133-0.209-0.129-0.325 4e-3 -0.126 0.0771-0.245 0.151-0.348 0.349-0.481 0.981-0.683 1.54-0.775 0.27-0.025 0.235-0.407-0.0353-0.382z"/><path d="m160 60.9c0.12-0.0399 0.237-0.0876 0.359-0.12 0.893-0.236 1.81-0.383 2.72-0.565 0.025-5e-3 1.83-0.382 1.96-0.409 0.209-0.0437 0.418-0.0873 0.627-0.131 0.266-0.0556 0.187-0.432-0.0786-0.376-0.209 0.0437-0.418 0.0873-0.627 0.131-0.123 0.0257-1.94 0.404-1.95 0.408-0.921 0.185-1.86 0.333-2.77 0.579-0.138 0.0375-0.271 0.0931-0.407 0.14-0.243 0.121-0.0721 0.465 0.171 0.344z"/><path d="m168 57.5c-0.135 0.0411-0.283 0.0532-0.406 0.123-0.366 0.209-0.746 0.602-0.985 0.942-0.256 0.365-0.466 0.726-0.31 1.2 0.0701 0.212 0.26 0.363 0.39 0.545 0.222 0.107 0.429 0.256 0.666 0.322 0.939 0.264 2.15 0.0463 2.82-0.694 0.128-0.14 0.199-0.322 0.299-0.484-5e-3 -0.192 0.0655-0.401-0.0129-0.576-0.224-0.501-0.742-0.708-1.17-0.959-0.236-0.135-0.426 0.199-0.191 0.333 0.22 0.123 0.807 0.402 0.979 0.658 0.0658 0.0984 0.0432 0.233 0.0648 0.349-0.0707 0.127-0.117 0.272-0.212 0.382-0.57 0.665-1.61 0.825-2.42 0.64-0.184-0.0415-0.349-0.142-0.524-0.213-0.102-0.107-0.243-0.187-0.306-0.321-0.17-0.365 0.0174-0.637 0.219-0.931 0.162-0.236 0.544-0.664 0.807-0.824 0.101-0.0615 0.225-0.0724 0.337-0.109 0.27-0.0321 0.224-0.414-0.0454-0.381z"/></g><g stroke-width=".615"><path d="m64.2 31.4c-0.262-0.124-0.415-0.213-0.714-0.269-0.72-0.133-1.44-0.0462-2.15 0.11-0.0978 0.0316-0.197 0.0591-0.293 0.095-0.0502 0.0187-0.217 0.0882-0.268 0.145-0.111 0.122-0.0529 0.275 0.1 0.318 0.0461-0.113 0.13-0.217 0.138-0.339 0.0093-0.138-0.0604-0.271-0.0886-0.407-0.0474-0.228-0.0976-0.456-0.138-0.685-0.167-0.943-0.249-1.89-0.339-2.85-0.0525-0.622-0.103-1.24-0.132-1.87-0.0031-0.0672-7.3e-5 -0.135-0.0063-0.202-0.0033-0.0347 0.0126-0.0985-0.022-0.102-0.113-0.0118-0.224 0.0432-0.336 0.0648-0.0182 0.0521-0.0364 0.104-0.0547 0.156-0.0698 0.206 0.222 0.305 0.291 0.0987 0.0123-0.0381 0.0247-0.0763 0.037-0.114-0.0787-0.0434-0.153-0.0956-0.236-0.13-0.012-5e-3 0.0119 0.0238 0.0129 0.0368 0.0055 0.0693 0.0034 0.139 0.0066 0.209 0.0288 0.628 0.0799 1.25 0.133 1.88 0.0912 0.963 0.175 1.93 0.343 2.88 0.0408 0.231 0.0914 0.46 0.139 0.69 0.028 0.135 0.0036 0.295 0.088 0.404 0.0418 0.0539 0.135-0.0193 0.203-0.0289 0.243 0.0951 0.0773 0.158 0.0432 0.234-7e-3 0.0156 0.0242-0.0249 0.0392-0.0332 0.0455-0.0251 0.0925-0.0478 0.141-0.0661 0.087-0.0329 0.177-0.0582 0.265-0.0872 0.649-0.147 1.33-0.232 1.99-0.116 0.255 0.0447 0.401 0.124 0.625 0.225 0.177 0.126 0.356-0.124 0.179-0.25z"/><path d="m59.1 25.7c1.36-0.186 2.74-0.318 4.11-0.427 0.217-0.0173 0.192-0.324-0.0244-0.307-1.38 0.11-2.76 0.243-4.14 0.431-0.214 0.0396-0.158 0.342 0.056 0.303z"/><path d="m65.3 50.6c-0.171-0.101-0.349-0.215-0.539-0.28-0.642-0.22-1.34-0.275-2.01-0.375-0.251-0.0365-0.345-0.0507-0.577-0.0826-0.0591-0.0081-0.177-0.0238-0.177-0.0229-0.153 0.253-0.162 0.206-0.074 0.335 0.0544 0.13 0.15 0.358 0.18 0.443 0.579 1.66 0.953 3.37 1.32 5.09 0.258 1.27 0.492 2.54 0.666 3.82 0.0246 0.181 0.0494 0.363 0.0643 0.545 0.0055 0.0664-0.0682 0.185-0.0031 0.2 0.0762 0.0168 0.112-0.109 0.168-0.164-0.0069-0.0381-0.0137-0.0763-0.0206-0.114-0.0955-0.195-0.372-0.0604-0.276 0.135 0.0532 0.0849 0.107 0.17 0.16 0.255 0.0924-0.0363 0.215-0.0314 0.277-0.109 0.0497-0.0621 0.0075-0.159 9.85e-4 -0.239-0.0151-0.185-0.0404-0.369-0.0654-0.553-0.175-1.29-0.411-2.57-0.67-3.84-0.373-1.73-0.751-3.46-1.34-5.14-0.0797-0.228-0.125-0.318-0.213-0.504-0.101-0.141-0.0739-0.158-0.214 0.147-0.0065 0.0142 0.0312 0.0034 0.0467 0.0055 0.0413 0.0054 0.0826 0.0108 0.124 0.0165 0.23 0.0317 0.324 0.0458 0.574 0.0822 0.619 0.0929 1.34 0.152 1.93 0.35 0.17 0.057 0.335 0.162 0.49 0.252 0.177 0.126 0.356-0.124 0.179-0.25z"/><path d="m63 60.6c0.425-0.386 0.918-0.7 1.43-0.962 0.146-0.0746 0.662-0.335 0.891-0.296 0.0834 0.014 0.127 0.111 0.191 0.167 0.285 0.951 0.263 1.95 0.294 2.94 0.014 0.443 0.0349 0.698 0.0641 1.12 0.234 0.012-0.0935 0.406 0.0485 0.486 0.0428 0.0239 0.0395-0.0968 0.0275-0.144-0.0158-0.0625-0.0625-0.114-0.105-0.163-1.28-1.46 0.797 1.06-0.87-0.996-0.535-0.666-1-1.38-1.45-2.11-0.152-0.243-0.338-0.504-0.415-0.787-0.0619-0.209-0.357-0.121-0.295 0.0876 0.099 0.317 0.275 0.584 0.451 0.865 0.458 0.734 0.933 1.46 1.48 2.13 0.212 0.261 0.624 0.805 0.917 1.04 0.112 0.0912 0.23 0.212 0.375 0.219 0.272 0.014 0.191-0.242 0.18-0.352-0.0103-0.103-0.0184-0.206-0.0276-0.308-0.0287-0.418-0.0497-0.674-0.0634-1.11-0.0236-0.742 0.0062-0.902-0.0691-1.67-0.029-0.295-0.049-0.594-0.119-0.882-0.0542-0.223-0.168-0.428-0.251-0.642-0.137-0.0691-0.26-0.187-0.412-0.207-0.252-0.034-0.807 0.24-0.985 0.331-0.54 0.277-1.06 0.611-1.51 1.02-0.145 0.163 0.0854 0.367 0.23 0.204z"/><path d="m63.8 35.2c-1.92 0.0836-3.85 0.0294-5.76 0.299-0.506 0.0715-1.01 0.184-1.51 0.276-1.02 0.213-2.01 0.545-2.98 0.918-0.344 0.132-0.22 0.166-0.353 0.125-0.217 0.0149-0.196 0.322 0.021 0.307 0.23-0.0306 0.066 5.4e-5 0.441-0.144 0.219-0.084 0.435-0.173 0.656-0.25 1.05-0.366 1.1-0.351 2.27-0.653 0.495-0.0908 0.987-0.202 1.49-0.272 1.92-0.271 3.85-0.212 5.77-0.301 0.215-0.0308 0.172-0.335-0.0435-0.305z"/><path d="m49.2 26.4c0.962 1.05 1.88 2.15 2.7 3.31 0.141 0.198 0.241 0.433 0.401 0.619 0.0214 0.025 0.0413 0.0688 0.074 0.0655 0.092-0.0093 0.193-0.0349 0.259-0.0993 0.0519-0.0503 0.0391-0.139 0.0586-0.209 0.0253-0.0881 0.0419-0.179 0.0758-0.264 0.217-0.547 0.569-1.05 0.892-1.53 0.0916-0.138 0.714-1.05 0.826-1.22 0.205-0.368 0.482-0.723 0.581-1.14 0.0166-0.0708 0.0369-0.249-0.0186-0.324-0.0376-0.0505-0.101-0.0758-0.151-0.114-0.0457-1.27e-4 -0.0916-0.0054-0.137-3.74e-4 -0.0337 0.0038-0.0646 0.0214-0.0981 0.0265-0.0705 0.0106-0.142-0.0041-0.214-0.0063-0.4-0.0129-0.22-0.0076-0.726-0.0175-1.06-0.0155-2.12-0.0882-3.17-0.116-0.411 0.0353-0.909 0.0644-1.24 0.349-0.158 0.15 0.0536 0.373 0.212 0.223 0.288-0.206 0.679-0.241 1.02-0.265 1.06 0.0273 2.12 0.1 3.18 0.116 0.15 0.0029 0.301 0.0052 0.451 0.0088 0.189 0.0046 0.391 0.0298 0.581 0.0029 0.0607-0.0086 0.0562-0.0041 0.0424-0.033-0.0105-0.0232-0.0257-0.0447-0.0314-0.0695-0.0016-0.0068 0.0171 0.0041 0.018 0.011 0.0047 0.0366 0.0055 0.0747-0.0025 0.111-0.0868 0.392-0.357 0.722-0.543 1.07-0.114 0.169-0.736 1.08-0.829 1.22-0.341 0.515-0.702 1.04-0.929 1.61-0.0349 0.0886-0.0524 0.183-0.0786 0.275-0.0373 0.191-0.0672 0.122 0.168 0.138 0.0035 1.63e-4 -0.0083 0.0033-0.0104 6.77e-4 -0.0291-0.0361-0.0545-0.0749-0.0805-0.113-0.138-0.204-0.178-0.276-0.32-0.506-0.831-1.17-1.75-2.28-2.73-3.34-0.148-0.16-0.374 0.0488-0.226 0.209z"/><path d="m51.7 25.7c0.0423 2.1 0.438 4.17 0.822 6.23 0.321 1.52 0.568 3.06 0.881 4.59 0.348-0.104 0.306-0.0634 0.268-0.302-0.0343-0.215-0.338-0.166-0.304 0.0485 0.0364 0.228-0.022 0.195 0.337 0.191-0.313-1.52-0.559-3.06-0.88-4.59-0.379-2.03-0.765-4.07-0.819-6.13 0.027-0.216-0.278-0.254-0.305-0.0382z"/><path d="m74.3 33.1c0.448-0.515 1.03-0.864 1.66-1.11 0.202-0.0813 0.0868-0.367-0.115-0.285-0.706 0.286-1.35 0.669-1.82 1.28-0.0857 0.2 0.197 0.321 0.283 0.121z"/><path d="m77 31.9c-0.17 0.213-0.438 0.547-0.269 0.848 0.0583 0.104 0.159 0.2 0.275 0.227 0.39 0.0906 0.595-0.185 0.86-0.393 0.238-0.335 0.718-0.849 0.404-1.31-0.233-0.341-0.555-0.294-0.904-0.333-0.217-0.0184-0.243 0.288-0.026 0.307 0.138 0.0065 0.497-0.0162 0.634 0.112 0.313 0.29-0.174 0.764-0.305 0.986-0.0376 0.0339-0.478 0.498-0.635 0.35-0.17-0.161 0.0786-0.438 0.163-0.56 0.167-0.139-0.0298-0.376-0.197-0.236z"/><path d="m73.9 37.9c0.645-0.104 1.29-0.226 1.93-0.341 0.52-0.0928 1.03-0.177 1.54-0.32 0.209-0.0589 0.126-0.355-0.0833-0.296-0.499 0.141-1 0.222-1.51 0.313-0.634 0.113-1.27 0.233-1.9 0.337-0.217 0.0197-0.189 0.326 0.0279 0.306z"/><path d="m77.8 36c-0.0334 0.111-0.0865 0.217-0.1 0.332-0.0715 0.598 0.237 1.2 0.838 1.37 0.135 0.0392 0.281 0.0202 0.421 0.0303 0.129-0.077 0.296-0.111 0.386-0.231 0.105-0.14 0.147-0.325 0.164-0.5 0.0483-0.513-0.265-1.02-0.679-1.3-0.121-0.081-0.266-0.119-0.399-0.178-0.2-0.0851-0.321 0.198-0.12 0.283 0.104 0.0414 0.218 0.0648 0.313 0.124 0.353 0.22 0.567 0.585 0.586 0.999 0.0049 0.108 0.0055 0.224-0.0411 0.322-0.038 0.0794-0.131 0.117-0.197 0.176-0.101-1.63e-4 -0.203 0.0211-0.302-4.89e-4 -0.571-0.126-0.752-0.721-0.634-1.23 0.139-0.167-0.0971-0.364-0.236-0.197z"/><path d="m75.1 42.3c0.818-0.239 1.64-0.4 2.49-0.478 0.217-0.02 0.188-0.326-0.0283-0.306-0.871 0.0808-1.72 0.245-2.56 0.493-0.206 0.0688-0.109 0.361 0.0973 0.292z"/><path d="m78.8 41.2c-0.074 0.0425-0.163 0.0659-0.222 0.127-0.298 0.31-0.155 0.727 0.139 0.982 0.3 0.26 0.506 0.261 0.873 0.345 0.15-0.0208 0.308-0.0081 0.45-0.0624 0.462-0.178 0.725-0.675 0.544-1.15-0.16-0.422-0.412-0.522-0.753-0.756-0.158-0.0431-0.316-0.0861-0.474-0.129-0.211-0.0535-0.287 0.245-0.0756 0.298 0.126 0.0291 0.253 0.0582 0.379 0.0873 0.268 0.17 0.464 0.243 0.618 0.541 0.158 0.305 0.0205 0.667-0.288 0.808-0.104 0.0474-0.224 0.0436-0.335 0.0653-0.124-0.0246-0.252-0.0327-0.372-0.0737-0.226-0.0777-0.746-0.369-0.536-0.694 0.0229-0.0355 0.0651-0.0538 0.0976-0.0807 0.215-0.0308 0.172-0.335-0.0435-0.305z"/><path d="m76.1 47.9c0.918-0.275 1.86-0.447 2.8-0.617 0.214-0.0386 0.16-0.341-0.0546-0.303-0.95 0.171-1.9 0.346-2.83 0.623-0.21 0.0572-0.129 0.354 0.081 0.297z"/><path d="m79.9 46c-0.0502 0.0834-0.125 0.156-0.151 0.25-0.184 0.688 0.577 1.03 1.11 1.17 0.155 0.0405 0.316 0.0526 0.474 0.0789 0.498-0.032 0.958-0.093 0.765-0.779-0.117-0.416-0.523-0.748-0.806-1.03-0.154-0.153-0.371 0.0648-0.217 0.218 0.389 0.382 0.454 0.391 0.717 0.846 0.0463 0.0799 0.122 0.165 0.105 0.256-0.0344 0.185-0.445 0.18-0.515 0.189-0.141-0.022-0.284-0.0317-0.422-0.0659-0.311-0.0769-1-0.272-0.938-0.728 0.0085-0.0597 0.0523-0.109 0.0785-0.163 0.167-0.139-0.0298-0.376-0.197-0.236z"/></g><g><path d="m56.2 66.4c-0.143-0.0374-0.283-0.0934-0.429-0.112-0.889-0.114-2.01 0.237-2.73 0.754-0.255 0.183-0.47 0.416-0.704 0.625-0.205 0.247-0.441 0.472-0.615 0.742-0.66 1.02-0.894 2.22-0.554 3.41 0.351 1.23 0.794 1.6 1.56 2.58 0.413 0.316 0.795 0.678 1.24 0.949 1.58 0.964 3.79 1.47 5.62 1.14 0.416-0.0736 0.81-0.242 1.21-0.363 0.356-0.246 0.751-0.442 1.07-0.738 0.925-0.866 1.52-2.22 1.43-3.5-0.084-1.19-0.492-1.72-1.02-2.76-0.843-1.09-1.83-2.13-3.14-2.65-0.307-0.12-0.643-0.149-0.965-0.224-0.345-0.0767-0.454 0.411-0.108 0.488 0.279 0.0589 0.571 0.0751 0.838 0.177 1.22 0.466 2.14 1.44 2.93 2.44 0.472 0.901 0.878 1.44 0.97 2.48 0.101 1.14-0.418 2.35-1.23 3.14-0.272 0.265-0.616 0.445-0.924 0.668-0.368 0.114-0.725 0.273-1.1 0.343-1.72 0.317-3.8-0.151-5.29-1.04-0.411-0.245-0.766-0.573-1.15-0.86-0.702-0.883-1.11-1.23-1.45-2.33-0.322-1.05-0.135-2.12 0.444-3.03 0.159-0.25 0.376-0.459 0.563-0.688 0.204-0.187 0.39-0.396 0.613-0.56 0.71-0.522 1.82-0.855 2.69-0.631 0.316 0.158 0.54-0.289 0.224-0.447z"/><path d="m57.5 76.1c-0.0473 1.74 0.202 3.49 0.609 5.18 0.0134 0.0648 0.0267 0.13 0.0401 0.194 0.0716 0.346 0.561 0.245 0.49-0.101-0.0146-0.0702-0.0291-0.14-0.0437-0.21-0.396-1.64-0.637-3.33-0.597-5.02 0.032-0.352-0.466-0.397-0.498-0.0453z"/><path d="m56.2 81c0.773 0.0159 1.53-0.137 2.28-0.296 0.155-0.0327 0.965-0.23 1.2-0.251 0.0827-0.0075 0.165 0.0161 0.248 0.0241-0.0153 0.0728-0.102 0.0493-0.139 0.0904-0.149 0.166-0.235 0.381-0.355 0.569-0.187 0.292-0.402 0.608-0.595 0.895-0.744 1.17-1.06 2.51-1.2 3.87 0.205-0.129-0.115 0.344 0.0016 0.352 0.17 0.0129 0.362 0.022 0.508-0.0672 0.134-0.0822-0.119-1.21-0.127-1.25-0.226-0.778-0.545-1.52-0.862-2.27-0.139-0.325-0.599-0.128-0.46 0.197 0.306 0.715 0.613 1.43 0.834 2.18 0.105 0.453 0.135 0.449 0.139 0.843 5.29e-4 0.0636-0.067 0.157-0.0126 0.19 0.544 0.329 0.465 0.145 0.477-0.128 0.13-1.28 0.42-2.55 1.12-3.65 0.191-0.284 0.42-0.621 0.605-0.911 0.202-0.316 0.601-0.785 0.393-1.2-0.0546-0.109-0.195-0.147-0.292-0.221-0.124-0.0056-0.248-0.0278-0.372-0.0167-0.233 0.0208-1.04 0.218-1.21 0.253-0.699 0.149-1.41 0.293-2.12 0.29-0.351-0.0438-0.413 0.452-0.062 0.496z"/><path d="m53.7 70c-0.026 0.781-0.0048 1.9 0.613 2.48 0.0992 0.0934 0.232 0.143 0.348 0.215 0.117 0.0213 0.232 0.0634 0.351 0.064 0.86 0.0045 1.22-0.906 1.51-1.56 0.222-0.586 0.438-1.17 0.693-1.75 0.0737-0.165 0.166-0.494 0.372-0.555 0.0271 0.0031 0.0576-0.0044 0.0813 0.0092 0.105 0.0603 0.256 0.474 0.275 0.523 0.123 0.32 0.23 0.703 0.327 1.03 0.197 0.716 0.404 1.43 0.549 2.16 0.0693 0.347 0.56 0.249 0.49-0.098-0.149-0.744-0.358-1.47-0.561-2.2-0.166-0.554-0.403-1.85-1.15-1.9-0.0925-0.0065-0.181 0.0395-0.272 0.0593-0.0809 0.0587-0.174 0.104-0.243 0.176-0.122 0.128-0.267 0.47-0.328 0.607-0.255 0.571-0.472 1.16-0.692 1.74-0.223 0.513-0.469 1.31-1.16 1.25-0.0622-0.0251-0.136-0.0318-0.186-0.0754-0.551-0.472-0.523-1.46-0.518-2.11 0.05-0.35-0.445-0.421-0.495-0.0707z"/></g><path d="m56.5 46.7c-0.177 4.16-0.366 8.33-0.454 12.5-0.0068 1.77-0.0368 2.42 0.0494 4.11 0.0492 0.964 0.134 1.93 0.4 2.86 0.0766 0.267 0.454 0.159 0.378-0.108-0.259-0.898-0.337-1.83-0.385-2.76-0.086-1.68-0.056-2.32-0.0492-4.09 0.0879-4.16 0.277-8.32 0.453-12.5 0.0179-0.277-0.374-0.303-0.392-0.0254z" stroke-width=".786"/><path d="m56.4 46.4c1.7-0.113 3.4-0.166 5.11-0.109 0.827 0.128 0.449 0.0368 1.14 0.25 0.338 0.103 0.483-0.376 0.145-0.479-0.781-0.233-0.36-0.135-1.27-0.272-1.73-0.0566-3.47-0.0051-5.19 0.114-0.35 0.05-0.279 0.545 0.0707 0.495z"/></g></svg>
