<?xml version="1.0" encoding="UTF-8" standalone="no"?>
<!-- Created with Inkscape (http://www.inkscape.org/) -->

<svg
   width="185.84026mm"
   height="125.60101mm"
   viewBox="0 0 185.84026 125.60101"
   version="1.1"
   id="svg1"
   inkscape:version="1.4 (e7c3feb100, 2024-10-09)"
   sodipodi:docname="gnss.svg"
   xmlns:inkscape="http://www.inkscape.org/namespaces/inkscape"
   xmlns:sodipodi="http://sodipodi.sourceforge.net/DTD/sodipodi-0.dtd"
   xmlns="http://www.w3.org/2000/svg"
   xmlns:svg="http://www.w3.org/2000/svg">
  <sodipodi:namedview
     id="namedview1"
     pagecolor="#5376a8"
     bordercolor="#cccccc"
     borderopacity="1"
     inkscape:showpageshadow="0"
     inkscape:pageopacity="1"
     inkscape:pagecheckerboard="0"
     inkscape:deskcolor="#d1d1d1"
     inkscape:document-units="mm"
     inkscape:zoom="0.97643849"
     inkscape:cx="351.78867"
     inkscape:cy="217.62764"
     inkscape:window-width="1536"
     inkscape:window-height="836"
     inkscape:window-x="0"
     inkscape:window-y="0"
     inkscape:window-maximized="1"
     inkscape:current-layer="layer1" />
  <defs
     id="defs1" />
  <g
     inkscape:label="Layer 1"
     inkscape:groupmode="layer"
     id="layer1"
     transform="translate(-9.3005159,-8.2436305)">
    <path
       style="fill:none;stroke:#ffffff;stroke-width:1"
       id="path9"
       d="m 10.41576,32.466052 c 0.04924,-0.59709 -0.5006415,-0.06256 -0.47935,0.09921 0.063081,0.479303 0.391502,0.884412 0.567332,1.334738 0.449232,1.150557 0.874786,2.310223 1.307532,3.467079 5.933085,15.860868 -2.3419213,-6.18867 3.562016,9.531823 0.425495,1.142334 0.850989,2.284664 1.276484,3.426997 0.123409,0.331314 0.59196,0.15679 0.468552,-0.174527 v 0 c -0.425652,-1.142754 -0.851305,-2.285505 -1.276957,-3.428259 -6.2113504,-16.539022 2.685426,7.166068 -3.562271,-9.532501 -0.435481,-1.163933 -0.860425,-2.331997 -1.316052,-3.488195 -0.190862,-0.484333 -0.279122,-1.041233 -0.622923,-1.432139 -0.123346,-0.140245 -0.8663467,0.169939 -0.3715764,0.41938 0.1581144,0.316228 0.6053274,0.09262 0.4472134,-0.223606 z" />
    <path
       style="fill:none;stroke:#ffffff;stroke-width:1"
       id="path10"
       d="m 11.984307,32.537095 c -0.11763,0.182415 -0.527914,-0.179824 -0.646934,0 -0.05036,0.07609 0.169072,0.132374 0.254594,0.100566 0.459632,-0.170947 0.86891,-0.454906 1.304391,-0.680382 3.603723,-1.865876 2.056004,-1.084926 5.87715,-2.929321 1.852669,-0.926748 3.762307,-1.726832 5.687915,-2.485892 0.328913,-0.129678 0.145519,-0.59483 -0.183393,-0.465151 v 0 c -1.937007,0.763839 -3.85805,1.568707 -5.72188,2.50076 -1.274788,0.615399 -4.643064,2.206807 -5.923991,2.955104 -0.543008,0.317217 -1.12972,0.613254 -1.539967,1.089891 -0.453097,0.52642 0.85064,0.415972 0.892115,0.414427 0.353553,0 0.353553,-0.500002 0,-0.500002 z" />
    <path
       style="fill:none;stroke:#ffffff;stroke-width:1"
       id="path11"
       d="m 17.735263,49.563218 c -0.05401,-0.03253 -0.222366,-0.07924 -0.162043,-0.0976 0.282123,-0.08586 0.602499,-0.01093 0.876542,-0.119859 0.816841,-0.324699 1.573068,-0.785008 2.3641,-1.168318 1.136707,-0.550817 2.276563,-1.095166 3.418997,-1.634006 6.314509,-2.978298 0.756743,-0.299505 6.059009,-2.871716 0.318095,-0.154318 0.09986,-0.604176 -0.218239,-0.449858 v 0 c -5.290575,2.566684 0.260794,-0.109188 -6.056375,2.870449 -1.144495,0.539827 -2.286689,1.084593 -3.425164,1.637004 -1.136977,0.551682 -2.624533,0.918196 -3.258367,2.175213 -0.04727,0.09375 0.186848,0.09584 0.280272,0.143759 0.342998,0.08575 0.464265,-0.399322 0.121268,-0.485071 z" />
    <path
       style="fill:none;stroke:#ffffff;stroke-width:1"
       id="path12"
       d="m 26.164885,24.708141 c 1.987168,4.145221 3.824305,8.360642 5.824023,12.500162 1.518422,3.143211 1.76126,3.54688 3.254909,6.364642 0.165595,0.312375 0.607362,0.07819 0.441764,-0.234185 v 0 c -1.488172,-2.807068 -1.730901,-3.210666 -3.244178,-6.343176 -2.001498,-4.14314 -3.839982,-8.362387 -5.829305,-12.51105 -0.158114,-0.316227 -0.605327,-0.09262 -0.447213,0.223607 z" />
    <path
       style="fill:none;stroke:#ffffff;stroke-width:1"
       id="path13"
       d="m 49.850246,15.664401 c 1.350118,3.161314 2.322705,6.46838 3.355128,9.741148 1.897277,6.014346 0.68135,2.191323 2.333752,7.366809 0.107535,0.336804 0.583845,0.184726 0.476314,-0.152075 v 0 c -1.662973,-5.208566 -0.421371,-1.305153 -2.333308,-7.3654 -1.043085,-3.306262 -2.023536,-6.648896 -3.397766,-9.838552 -0.175411,-0.30697 -0.609534,-0.0589 -0.43412,0.24807 z" />
    <path
       style="fill:none;stroke:#ffffff;stroke-width:1"
       id="path14"
       d="m 51.034907,16.491087 c 0.574789,-0.269986 1.159391,-0.52 1.724369,-0.809959 3.685027,-1.891235 7.245702,-4.022168 10.889419,-5.9912242 0.311042,-0.1680892 0.07333,-0.6079664 -0.237712,-0.4398774 v 0 C 59.7756,11.214667 56.223317,13.341707 52.546686,15.228575 c -0.568613,0.291814 -1.156925,0.543532 -1.735386,0.815298 -0.316228,0.158114 -0.09262,0.605328 0.223607,0.447214 z" />
    <path
       style="fill:none;stroke:#ffffff;stroke-width:1"
       id="path15"
       d="m 58.005019,33.515924 c 3.896458,-1.84354 7.817231,-3.650176 11.602267,-5.716243 0.310314,-0.169424 0.07071,-0.608275 -0.239601,-0.438852 v 0 c -3.770773,2.059197 -7.678036,3.857588 -11.559627,5.695522 -0.324967,0.139271 -0.128006,0.598844 0.196961,0.459573 z" />
    <path
       style="fill:none;stroke:#ffffff;stroke-width:1"
       id="path16"
       d="m 64.40289,9.0943283 c 2.133528,5.2575887 3.50588,10.8104407 5.821338,15.9963757 0.233032,0.521926 0.512617,1.021797 0.768925,1.532695 0.158668,0.315952 0.605488,0.09156 0.446823,-0.224389 v 0 C 71.18883,25.899429 70.914606,25.410797 70.68654,24.900267 68.377733,19.731923 67.001778,14.166717 64.872785,8.923457 64.75196,8.5911898 64.282065,8.7620611 64.40289,9.0943283 Z" />
    <path
       style="fill:none;stroke:#ffffff;stroke-width:1"
       id="path17"
       d="m 30.828596,28.701613 c 1.924963,0.357392 3.757769,1.132385 5.552657,1.893967 0.325512,0.137994 0.520663,-0.32235 0.195151,-0.460343 v 0 c -1.854763,-0.785606 -3.752135,-1.595348 -5.747808,-1.933625 -0.353555,0 -0.353555,0.500001 0,0.500001 z" />
    <path
       style="fill:none;stroke:#ffffff;stroke-width:1"
       id="path18"
       d="m 32.08732,27.668669 c 3.968966,-1.617443 7.906496,-3.32463 11.915161,-4.843472 0.151439,-0.03445 0.302879,-0.06891 0.454318,-0.103357 0.344366,-0.08008 0.231116,-0.567085 -0.113249,-0.487005 v 0 c -0.172747,0.04093 -0.345493,0.08187 -0.51824,0.122804 -4.015218,1.521641 -7.95951,3.23103 -11.934949,4.851457 -0.324966,0.139274 -0.128008,0.598845 0.196959,0.459573 z" />
    <path
       style="fill:none;stroke:#ffffff;stroke-width:1"
       id="path19"
       d="m 38.46581,30.924579 c 3.807237,-1.413002 7.59261,-2.885257 11.358205,-4.405633 0.327837,-0.132369 0.140639,-0.596003 -0.187201,-0.463633 v 0 c -3.761703,1.518892 -7.543247,2.98951 -11.346566,4.401102 -0.331041,0.12414 -0.15548,0.592304 0.175562,0.468164 z" />
    <path
       style="fill:none;stroke:#ffffff;stroke-width:1"
       id="path20"
       d="m 43.345422,23.01129 c 1.864749,0.328292 3.56212,1.200215 5.256281,2.002624 0.319538,0.151312 0.533525,-0.300583 0.213988,-0.451896 v 0 c -1.76007,-0.83328 -3.525915,-1.740091 -5.470269,-2.050728 -0.353552,0 -0.353552,0.5 0,0.5 z" />
    <path
       style="fill:none;stroke:#ffffff;stroke-width:1"
       id="path21"
       d="m 38.394894,32.027198 c 0.505965,1.960322 1.090276,3.897194 1.690473,5.830157 0.104854,0.337646 0.582361,0.189357 0.477504,-0.148288 v 0 c -0.599869,-1.931387 -1.183209,-3.866854 -1.689063,-5.825543 -0.101595,-0.338643 -0.580507,-0.194969 -0.478914,0.143674 z" />
    <path
       style="fill:none;stroke:#ffffff;stroke-width:1"
       id="path22"
       d="m 50.172101,27.0085 c 0.0617,-0.417457 -0.6516,-0.305285 -0.677995,-0.07928 -0.04306,0.368705 0.211294,0.711798 0.325848,1.06489 0.174053,0.536493 0.361024,1.068708 0.539898,1.603613 0.959688,2.869832 0.323937,1.023131 1.284607,3.767899 0.116801,0.333704 0.588727,0.168522 0.471927,-0.165182 v 0 c -0.624591,-1.784363 -1.180793,-3.595396 -1.824826,-5.37242 -0.09357,-0.258177 -0.131754,-0.557675 -0.316989,-0.760402 -0.09193,-0.100615 -0.319879,-0.136913 -0.407572,-0.03258 -0.07332,0.08723 0.136734,0.182311 0.205102,0.273468 0.212132,0.282842 0.612132,-0.01714 0.4,-0.3 z" />
    <path
       style="fill:none;stroke:#ffffff;stroke-width:1"
       id="path23"
       d="m 39.409237,40.128933 c 3.184448,-1.361654 6.321208,-2.830682 9.502852,-4.201186 0.32471,-0.139872 0.126897,-0.599081 -0.197811,-0.459206 v 0 c -3.172745,1.366753 -6.301314,2.830391 -9.475914,4.190495 -0.332266,0.120824 -0.161396,0.590722 0.170873,0.469897 z" />
    <path
       style="fill:none;stroke:#ffffff;stroke-width:1"
       id="path24"
       d="m 32.684833,36.917383 c 1.362419,0.513967 0.610939,0.241996 2.259177,0.802717 0.334727,0.113837 0.495715,-0.359537 0.160988,-0.473374 v 0 c -1.629661,-0.554051 -0.886394,-0.285178 -2.234469,-0.79358 -0.328266,-0.131305 -0.513962,0.332933 -0.185696,0.464237 z" />
    <path
       style="fill:none;stroke:#ffffff;stroke-width:1"
       id="path25"
       d="m 151.00977,17.611811 c 0.43689,5.548621 -0.19401,11.106725 -0.54641,16.642094 -0.0225,0.352841 0.47653,0.384604 0.49899,0.03177 v 0 c 0.35555,-5.585629 0.99913,-11.197267 0.5325,-16.795128 -0.0858,-0.342997 -0.57083,-0.22173 -0.48508,0.121268 z" />
    <path
       style="fill:none;stroke:#ffffff;stroke-width:1"
       id="path26"
       d="m 151.62602,17.965011 c 3.51588,0.578977 7.13937,0.80558 10.53171,1.966438 0.27777,0.124602 0.36282,0.136823 0.23148,0.113394 0.23523,0.263948 0.60851,-0.06871 0.37328,-0.33266 v 0 c -0.21943,-0.191917 -0.0802,-0.09384 -0.44332,-0.253953 -3.42422,-1.164864 -7.07347,-1.411862 -10.62244,-1.988194 -0.35,-0.05 -0.42071,0.444975 -0.0707,0.494975 z" />
    <path
       style="fill:none;stroke:#ffffff;stroke-width:1"
       id="path27"
       d="m 162.76967,21.182646 c -0.41504,4.508688 -1.00675,9.004936 -1.23018,13.528803 -0.0174,0.353126 0.48199,0.377738 0.4994,0.02461 v 0 c 0.22191,-4.512601 0.81445,-8.997502 1.22735,-13.494993 0.0413,-0.351132 -0.45526,-0.409553 -0.49657,-0.05842 z" />
    <path
       style="fill:none;stroke:#ffffff;stroke-width:1"
       id="path28"
       d="m 151.3783,33.779833 c 2.49333,0.73625 4.88931,1.765927 7.2953,2.742676 0.32759,0.132987 0.51566,-0.330293 0.18807,-0.46328 v 0 c -2.42528,-0.984555 -4.84066,-2.022057 -7.35453,-2.762515 -0.34162,-0.0911 -0.47045,0.39202 -0.12884,0.483119 z" />
    <path
       style="fill:none;stroke:#ffffff;stroke-width:1"
       id="path29"
       d="m 180.97851,25.201794 c -0.97669,4.437598 -2.11769,8.837322 -3.15471,13.261264 -0.0807,0.344223 0.40612,0.458333 0.4868,0.11411 v 0 c 1.03947,-4.434502 2.18416,-8.844524 3.16111,-13.293174 0.0581,-0.348743 -0.43508,-0.430943 -0.4932,-0.0822 z" />
    <path
       style="fill:none;stroke:#ffffff;stroke-width:1"
       id="path30"
       d="m 183.95826,25.355334 c 3.29351,1.218286 6.80042,1.741751 10.00809,3.204894 0.0913,0.05801 0.18275,0.115649 0.27377,0.174022 0.17613,0.11295 -0.19007,-0.147733 -0.23304,-0.08569 -0.24577,0.354867 -0.42007,0.754967 -0.60443,1.145283 -1.00344,2.124411 -1.83066,4.200568 -2.74035,6.382102 -1.97778,5.169763 -1.05147,2.700126 -2.78762,7.405635 -0.12238,0.331697 0.34671,0.504772 0.46909,0.173074 v 0 c 1.73233,-4.695301 0.80851,-2.232133 2.78002,-7.386283 1.12594,-2.700446 1.57617,-3.871523 2.72306,-6.345007 0.16079,-0.34676 0.33868,-0.685416 0.51635,-1.023834 0.0859,-0.163579 0.23672,-0.300805 0.27408,-0.481738 0.0352,-0.170629 -0.43847,-0.396983 -0.46375,-0.412623 -3.19566,-1.452205 -6.6763,-2.005072 -9.9672,-3.183955 -0.30697,-0.175412 -0.55503,0.25871 -0.24807,0.434121 z" />
    <path
       style="fill:none;stroke:#ffffff;stroke-width:1"
       id="path31"
       d="m 177.63585,39.611368 c 0.32054,0.212035 0.61785,0.464283 0.96163,0.636109 0.69548,0.347612 4.20619,1.732523 4.69336,1.935853 1.82225,0.760553 2.88443,1.251199 4.63331,2.038326 0.32241,0.145103 0.52762,-0.310848 0.20521,-0.455951 v 0 c -1.76009,-0.792115 -2.81644,-1.280171 -4.65154,-2.046097 -0.98419,-0.410779 -3.51963,-1.392772 -4.61822,-1.897917 -0.26941,-0.123873 -0.51769,-0.289288 -0.77654,-0.43393 -0.15811,-0.316227 -0.60532,-0.09262 -0.44721,0.223607 z" />
    <path
       style="fill:none;stroke:#ffffff;stroke-width:1"
       id="path32"
       d="m 164.01622,26.824715 c 0.1112,4.205922 -0.0239,8.413385 0.11058,12.618048 0.0113,0.353372 0.51107,0.337351 0.49974,-0.01601 v 0 c -0.13626,-4.239881 0.0143,-8.48247 -0.12524,-12.723299 -0.0857,-0.342997 -0.57082,-0.221729 -0.48508,0.121269 z" />
    <path
       style="fill:none;stroke:#ffffff;stroke-width:1"
       id="path33"
       d="m 164.87034,26.416421 c 1.25417,-0.543067 2.50806,-1.076919 3.79494,-1.538167 0.3328,-0.119357 0.164,-0.590003 -0.1688,-0.470646 v 0 c -1.28309,0.460461 -2.5351,0.989258 -3.78426,1.534471 -0.33541,0.111803 -0.17729,0.586146 0.15812,0.474342 z" />
    <path
       style="fill:none;stroke:#ffffff;stroke-width:1"
       id="path34"
       d="m 165.83899,27.543186 c 3.66093,1.304927 7.38761,2.409695 11.09199,3.581648 0.33709,0.106643 0.48791,-0.37007 0.15082,-0.476713 v 0 c -3.70195,-1.171167 -7.42618,-2.275181 -11.0847,-3.579275 -0.33541,-0.111805 -0.49352,0.362537 -0.15811,0.47434 z" />
    <path
       style="fill:none;stroke:#ffffff;stroke-width:1"
       id="path36"
       d="m 168.03961,24.850899 c 3.16065,0.352259 6.31346,0.78531 9.3529,1.746375 0.33714,0.106471 0.48771,-0.370317 0.15057,-0.47679 v 0 c -3.11688,-0.983174 -6.3549,-1.446574 -9.60153,-1.759875 -0.34668,0.06934 -0.24863,0.559628 0.0981,0.49029 z" />
    <path
       style="fill:none;stroke:#ffffff;stroke-width:1"
       id="path37"
       d="m 178.17224,26.716204 c -1.2078,0.929923 -0.6044,0.459203 -1.81004,1.412354 -0.27734,0.21927 0.0328,0.611494 0.3101,0.392223 v 0 c 1.19468,-0.944562 0.59904,-0.479689 1.78667,-1.394962 0.28964,-0.202751 0.003,-0.612365 -0.28673,-0.409615 z" />
    <path
       style="fill:none;stroke:#ffffff;stroke-width:1"
       id="path38"
       d="m 176.58924,31.425311 c -0.42644,3.303836 -0.95203,6.593869 -1.52765,9.874734 -0.005,0.123206 -0.009,0.246409 -0.0136,0.369612 -0.0105,0.353396 0.48925,0.368292 0.49978,0.0149 v 0 c 0.002,-0.09937 0.004,-0.198734 0.006,-0.298103 0.577,-3.288967 1.10387,-6.587122 1.53131,-9.899118 0.0439,-0.350824 -0.45229,-0.41284 -0.49614,-0.06202 z" />
    <path
       style="fill:none;stroke:#ffffff;stroke-width:1"
       id="path39"
       d="m 167.59506,39.341104 c 1.70022,0.820531 3.44529,1.537486 5.19557,2.242061 0.32799,0.132009 0.51468,-0.331832 0.18669,-0.463841 v 0 c -1.74202,-0.701022 -3.47872,-1.414648 -5.17082,-2.231311 -0.32038,-0.149513 -0.53182,0.303581 -0.21144,0.453091 z" />
    <path
       style="fill:none;stroke:#ffffff;stroke-width:1"
       id="path40"
       d="m 92.130114,104.62688 c -0.158829,0.57053 -0.379082,1.12743 -0.476488,1.71159 -0.268176,1.60831 -0.357439,3.84836 -0.118036,5.45354 0.202925,1.3606 0.65732,3.31783 2.026195,4.11828 0.588553,0.34416 1.345697,0.22013 2.018543,0.33018 0.774457,-0.55195 1.710619,-0.92856 2.323368,-1.65586 1.524447,-1.80945 2.695554,-5.12473 3.221424,-7.34835 0.44962,-1.90117 0.80051,-4.5843 0.2442,-6.57086 -0.18233,-0.6511 -0.67991,-1.168942 -1.01987,-1.753412 -0.623024,-0.08004 -1.270195,-0.429633 -1.869069,-0.24012 -0.826148,0.261438 -1.499462,0.89921 -2.121162,1.502832 -1.475697,1.4328 -2.280298,3.07694 -3.294335,4.81856 -0.177636,0.30569 0.254672,0.5569 0.432308,0.25122 v 0 c 1.058291,-1.82479 1.667735,-3.12446 3.160501,-4.66864 0.526722,-0.54486 1.091356,-1.105054 1.787205,-1.405232 0.451554,-0.194792 0.983552,-0.0013 1.47533,-0.0021 0.317172,0.515363 0.785162,0.964262 0.951512,1.546092 0.55168,1.92954 0.2102,4.52036 -0.22223,6.36748 -0.51778,2.21169 -1.604857,5.2603 -3.046093,7.10281 -0.514146,0.65729 -1.305404,1.03993 -1.958107,1.55989 -0.567298,-0.0525 -1.201428,0.11477 -1.701895,-0.15747 -1.306039,-0.71043 -1.718977,-2.56669 -1.908355,-3.81828 -0.234842,-1.55204 -0.153196,-3.73856 0.100497,-5.29729 0.0908,-0.55788 0.299024,-1.09017 0.448537,-1.63526 0.148159,-0.32101 -0.305821,-0.53054 -0.45398,-0.20953 z" />
    <path
       style="fill:none;stroke:#ffffff;stroke-width:1"
       id="path41"
       d="m 91.995539,96.027958 c -1.679776,2.633012 -2.980931,5.530342 -3.977806,8.488342 -0.292966,0.86931 -0.521544,1.759 -0.782315,2.6385 -0.146156,0.90561 -0.350433,1.80373 -0.43847,2.71683 -0.264891,2.74728 -0.04462,6.26021 1.770242,8.51824 0.36934,0.45953 0.874596,0.79081 1.311894,1.18621 0.59767,0.22797 1.163283,0.57155 1.793007,0.6839 2.986673,0.5329 6.419004,-1.05871 8.765069,-2.76335 0.64627,-0.46957 1.22142,-1.02996 1.83213,-1.54494 0.50373,-0.56223 1.05474,-1.08544 1.51118,-1.68669 1.37688,-1.81374 2.33606,-4.0269 2.84163,-6.2415 0.46137,-2.02099 0.36364,-2.54559 0.38846,-4.57125 -0.0837,-0.66946 -0.11595,-1.34738 -0.25114,-2.00837 -0.38323,-1.87377 -1.53664,-4.143061 -3.06969,-5.347389 -0.37069,-0.291211 -0.80463,-0.491376 -1.20694,-0.737063 -0.43071,-0.153837 -0.84682,-0.357254 -1.29214,-0.46151 -2.015838,-0.47194 -4.552904,0.03162 -6.507119,0.594077 -0.565327,0.162713 -1.116031,0.372504 -1.674045,0.558757 -2.390471,1.139534 -1.21798,0.497938 -3.512643,1.933586 -0.299577,0.187761 -0.03404,0.611425 0.265533,0.423667 v 0 c 2.226824,-1.398186 1.089914,-0.773571 3.405654,-1.883053 2.308452,-0.773131 5.412652,-1.706674 7.85622,-1.155534 0.41322,0.0932 0.80006,0.278686 1.20009,0.418029 0.37105,0.2213 0.77141,0.399576 1.11315,0.6639 1.45149,1.122683 2.56094,3.293714 2.92587,5.055143 0.13226,0.6384 0.16482,1.29346 0.24723,1.94019 -0.0196,1.95794 0.0761,2.47577 -0.36653,4.43027 -0.48555,2.14399 -1.40772,4.29601 -2.73634,6.0548 -0.44103,0.58382 -0.97411,1.09203 -1.46116,1.63804 -0.59156,0.50101 -1.14859,1.0459 -1.77468,1.50302 -2.191095,1.59975 -5.528592,3.16526 -8.325785,2.71843 -0.571709,-0.0913 -1.08947,-0.39221 -1.634205,-0.58831 -0.404489,-0.35537 -0.872699,-0.64926 -1.213471,-1.06613 -1.758707,-2.15143 -1.957113,-5.55789 -1.707798,-8.18588 0.08461,-0.89193 0.282802,-1.7694 0.424206,-2.65411 0.256815,-0.86776 0.481653,-1.74564 0.770445,-2.60329 0.979737,-2.90959 2.258259,-5.757653 3.900702,-8.353216 0.220864,-0.276076 -0.169571,-0.588425 -0.390435,-0.312346 z" />
    <path
       style="fill:none;stroke:#ffffff;stroke-width:1"
       id="path43"
       d="m 103.87642,94.963389 c -2.28968,-1.51693 -4.902583,-2.472195 -7.503448,-3.305403 -2.093137,-0.535209 -4.054554,-0.648395 -6.075134,0.249841 -1.447501,0.64348 -1.92777,1.142974 -3.18764,2.118813 -0.533238,0.618296 -1.132498,1.185301 -1.599713,1.854885 -2.280012,3.267577 -3.673165,8.229575 -4.362669,12.106485 -0.187325,1.05328 -0.272981,2.12213 -0.409472,3.1832 0.03856,0.9004 -0.09254,1.82437 0.115686,2.70121 0.401154,1.68925 1.371831,2.87609 2.781197,3.81876 1.154692,0.77232 2.665802,1.15749 4.014118,1.36617 0.621991,0.0963 1.254887,0.0991 1.882331,0.14861 0.537072,-0.0284 1.074147,-0.0568 1.611222,-0.0852 0.353034,-0.0191 0.325959,-0.51841 -0.02707,-0.49926 v 0 c -0.515151,0.0286 -1.030303,0.0573 -1.545455,0.086 -1.942822,-0.14813 -3.900844,-0.28831 -5.60161,-1.38878 -1.289126,-0.83413 -2.243481,-1.93238 -2.615215,-3.46833 -0.205296,-0.84825 -0.07951,-1.74368 -0.119264,-2.61551 0.133863,-1.04607 0.217403,-2.09982 0.401595,-3.13821 0.67296,-3.79383 2.035522,-8.682457 4.253918,-11.889332 0.44559,-0.644141 1.018093,-1.190532 1.527141,-1.785797 1.198197,-0.933593 1.665933,-1.419312 3.038345,-2.039107 1.919028,-0.866656 3.772164,-0.75489 5.765326,-0.248192 2.557172,0.817147 5.126791,1.755958 7.378471,3.245212 0.29417,0.196118 0.57152,-0.219908 0.27734,-0.416025 z" />
    <path
       style="fill:none;stroke:#ffffff;stroke-width:1"
       id="path45"
       d="m 137.49691,87.726871 c -0.30139,0.331827 -0.6506,0.625821 -0.90419,0.995476 -0.89721,1.307899 -1.58644,2.854669 -1.90885,4.407744 -0.39805,1.917404 -0.52388,3.664193 0.61616,5.397569 0.48063,0.730784 1.30711,1.162613 1.96067,1.74392 0.82043,0.18085 1.6314,0.67336 2.46128,0.54256 3.07955,-0.4854 4.57575,-4.444742 4.62728,-7.109898 0.0178,-0.919382 -0.14972,-1.860261 -0.48883,-2.715006 -0.28348,-0.714544 -0.88965,-1.253897 -1.33447,-1.880843 -2.67723,-0.715648 -1.33649,-0.71129 -4.02223,-0.0095 -0.3407,0.09445 -0.20713,0.576278 0.13357,0.481827 v 0 c 2.32706,-0.687321 1.16508,-0.642512 3.48392,-0.178784 0.4159,0.559646 0.98165,1.034425 1.24769,1.678937 1.01636,2.462281 0.29207,6.043348 -1.49147,7.990216 -0.5418,0.591417 -1.26628,1.102311 -2.054,1.253411 -0.74517,0.14293 -1.4901,-0.28713 -2.23514,-0.430695 -0.60551,-0.510625 -1.36871,-0.878544 -1.81653,-1.531874 -1.86136,-2.715614 -0.42771,-6.84281 1.19557,-9.308467 0.21223,-0.322366 0.50212,-0.586277 0.75318,-0.879417 0.31623,-0.158115 0.0926,-0.605327 -0.22361,-0.447215 z" />
    <path
       style="fill:none;stroke:#ffffff;stroke-width:1"
       id="path47"
       d="m 79.17984,89.863852 c 0.0019,-0.151019 0.05855,-0.311565 0.0057,-0.453051 -0.428723,-1.148207 -2.692906,-1.179701 -3.591486,-0.941155 -0.613032,0.162743 -1.170215,0.489662 -1.755323,0.734494 -0.613465,0.533371 -1.329026,0.968195 -1.840394,1.600118 -2.703644,3.341026 -3.666492,8.982041 -3.436773,13.156482 0.05805,1.05483 0.294632,2.09221 0.441949,3.13832 0.546524,2.27152 1.566664,4.27445 3.139472,5.99586 0.287171,0.3143 0.625409,0.57782 0.938115,0.86673 0.260183,0.23939 0.598723,-0.12857 0.338539,-0.36795 v 0 c -0.296058,-0.27119 -0.616384,-0.51805 -0.888172,-0.81355 -1.51729,-1.64967 -2.502294,-3.56852 -3.03291,-5.75131 -0.145696,-1.0195 -0.37872,-2.0303 -0.437084,-3.05851 -0.229082,-4.035619 0.687348,-9.534417 3.266861,-12.790438 0.47245,-0.596355 1.137642,-1.010531 1.706461,-1.515798 1.541989,-0.670554 2.191425,-1.107638 3.87504,-0.643855 0.0678,0.01868 0.655008,0.255997 0.776661,0.4215 0.04024,0.05473 0.03074,0.132336 0.04611,0.198506 -0.158112,0.316227 0.2891,0.539834 0.447215,0.223607 z" />
    <path
       style="fill:none;stroke:#ffffff;stroke-width:1"
       id="path48"
       d="m 70.11427,112.89994 c -2.708201,-1.52277 -5.447255,-3.08408 -8.383079,-4.13413 -0.332965,-0.11889 -0.5011,0.35199 -0.168135,0.47088 v 0 c 2.909165,1.0369 5.619501,2.59207 8.303144,4.09737 0.306969,0.17541 0.55504,-0.25871 0.24807,-0.43412 z" />
    <path
       style="fill:none;stroke:#ffffff;stroke-width:1"
       id="path49"
       d="m 62.907584,109.65366 c -0.12773,-0.31701 -0.304676,-0.6184 -0.383188,-0.95104 -0.474295,-2.00945 -0.670936,-4.32915 -0.685805,-6.35645 -0.02014,-2.746411 0.112032,-5.700637 1.04908,-8.328317 0.39338,-1.103122 1.106858,-2.064311 1.660285,-3.096464 0.779896,-0.716037 1.469487,-1.545034 2.339689,-2.148107 2.064141,-1.430504 5.060354,-2.351532 7.58539,-2.206143 0.614187,0.03536 1.210405,0.220982 1.815607,0.331475 0.34802,0.06231 0.436134,-0.429869 0.08812,-0.492175 v 0 c -0.64261,-0.112906 -1.27626,-0.304777 -1.927831,-0.33872 -2.637134,-0.137372 -5.755778,0.827077 -7.901035,2.338729 -0.910156,0.641339 -1.627481,1.519904 -2.441223,2.279856 -0.56922,1.075222 -1.301555,2.078845 -1.707656,3.225663 -0.944845,2.668222 -1.082045,5.678251 -1.059426,8.465753 0.01659,2.04583 0.219941,4.4832 0.722501,6.51535 0.09206,0.37224 0.296997,0.70706 0.445497,1.06059 0.212133,0.28284 0.612132,-0.0172 0.4,-0.3 z" />
    <path
       style="fill:none;stroke:#ffffff;stroke-width:1"
       id="path50"
       d="m 78.443168,96.08817 c -0.10319,0.365318 0.536559,-0.710232 0.318649,-0.625211 -1.140677,0.445066 -1.338726,1.113153 -1.662655,2.31625 -0.443289,1.646388 -0.390319,2.858221 -0.4493,4.540391 -0.01209,0.35335 0.487619,0.37044 0.499708,0.0171 v 0 c 0.05299,-1.5894 0.004,-2.813133 0.412136,-4.367616 0.144603,-0.550759 0.48804,-1.034592 0.643948,-1.582261 0.08076,-0.283676 0.02082,-0.590333 0.05784,-0.882946 0.0039,-0.03105 0.08188,-0.09462 0.06271,-0.06988 -0.08939,0.115337 -0.182311,0.227888 -0.273468,0.341834 -0.220863,0.276079 0.169572,0.588428 0.390435,0.312348 z" />
    <path
       style="fill:none;stroke:#ffffff;stroke-width:1"
       id="path51"
       d="m 76.360945,105.57967 c 1.878957,0.39081 0.904621,0.20874 2.924519,0.53806 0.348954,0.0568 0.429342,-0.43665 0.08039,-0.4935 v 0 c -1.975551,-0.32153 -1.031454,-0.14687 -2.834036,-0.51445 -0.332267,-0.12083 -0.503137,0.34907 -0.170871,0.46989 z" />
    <path
       style="fill:none;stroke:#ffffff;stroke-width:1"
       id="path52"
       d="m 140.70117,88.49688 c -1.57591,-0.671153 -3.226,-1.969522 -4.94382,-2.204432 -0.25417,-0.03476 -0.513,0.0089 -0.76951,0.01331 -0.27489,0.107635 -0.65076,0.182946 -0.83408,0.460877 -0.0955,0.144762 -0.049,0.358685 -0.15356,0.497055 -0.0139,0.01839 -0.0485,-0.01122 -0.0692,-7.94e-4 -0.0899,0.04505 -0.16936,0.108556 -0.25404,0.162832 -1.027,0.92119 -1.59697,2.285003 -2.10767,3.532675 -0.44965,1.09855 -1.12312,2.978142 -1.2689,4.170912 -0.0822,0.672235 0.008,1.35445 0.0115,2.031675 0.63741,1.708618 0.50167,2.001541 1.96365,3.23182 0.50618,0.42596 1.12126,0.70245 1.68189,1.05367 0.30052,0.18625 0.56392,-0.23874 0.2634,-0.425 v 0 c -0.52512,-0.32168 -1.09788,-0.57613 -1.57535,-0.96504 -1.35091,-1.100347 -1.22478,-1.350903 -1.83361,-2.900186 -0.009,-0.636072 -0.10161,-1.27662 -0.0258,-1.908217 0.1406,-1.171372 0.79881,-3.003878 1.2377,-4.081227 0.47104,-1.15628 0.99883,-2.442097 1.92527,-3.321603 0.21715,-0.142267 0.38801,-0.220012 0.53253,-0.446379 0.0372,-0.05823 0.0365,-0.133265 0.0547,-0.199898 -0.0127,-0.02323 -0.0486,-0.04535 -0.0382,-0.0697 0.0771,-0.179832 0.37943,-0.264062 0.50492,-0.323599 0.20934,-0.0098 0.42018,-0.05623 0.62801,-0.02928 1.64665,0.213516 3.32678,1.526558 4.84648,2.167853 0.31623,0.158112 0.53983,-0.2891 0.22361,-0.447215 z" />
    <path
       style="fill:none;stroke:#ffffff;stroke-width:1"
       id="path53"
       d="m 108.92794,109.11926 c 0.0912,-0.0228 0.18117,-0.0507 0.27347,-0.0684 0.0229,-0.004 -0.0458,0.043 -0.0639,0.0284 -0.0844,-0.0678 -0.10152,-0.25191 -0.20971,-0.248 -0.0915,0.003 -0.18322,0.25502 -0.0917,0.25891 0.6314,0.0268 1.27837,-0.0128 1.88709,-0.18269 1.35738,-0.37873 2.64707,-0.96781 3.97061,-1.45171 4.69731,-1.71137 9.4059,-3.39086 14.09981,-5.11152 0.33195,-0.12169 0.15986,-0.59114 -0.17209,-0.46945 v 0 c -4.69379,1.72062 -9.40226,3.40005 -14.09945,5.11138 -6.32204,2.31256 -2.08507,0.45306 -5.20228,2.23063 -0.0196,0.0112 -0.007,-0.0448 -0.006,-0.0673 0.005,-0.17652 0.088,-0.36529 0.0224,-0.52926 -0.0585,-0.14633 -0.48288,0.002 -0.52913,0.0139 -0.343,0.0858 -0.22173,0.57082 0.12127,0.48507 z" />
    <path
       style="fill:none;stroke:#ffffff;stroke-width:1"
       id="path54"
       d="m 109.09292,102.01963 c 4.73089,-1.81286 9.43976,-3.681952 14.17325,-5.488513 0.33031,-0.126066 0.15203,-0.593199 -0.17828,-0.467133 v 0 c -4.72007,1.801453 -9.41636,3.663199 -14.13233,5.474886 -0.33995,0.0971 -0.20259,0.57789 0.13736,0.48076 z" />
    <path
       style="fill:none;stroke:#ffffff;stroke-width:1"
       id="path55"
       d="m 82.353226,79.673931 c -0.08103,-0.03691 0.09715,-1.260219 0,-1.163008 -0.769914,0.770363 -0.291156,1.494993 -0.205142,2.566418 0.07576,0.943666 0.129434,1.888975 0.194154,2.83346 0.19921,2.725052 0.333647,5.454372 0.723214,8.160517 0.05044,0.349938 0.545322,0.278609 0.494888,-0.07133 v 0 c -0.388729,-2.693693 -0.519608,-5.410901 -0.719276,-8.123388 -0.06512,-0.949349 -0.11884,-1.899549 -0.195368,-2.848049 -0.08407,-1.041966 0.223705,-1.996826 -0.792472,-2.517629 -0.07826,-0.04011 0,0.175889 0,0.263832 0,0.299725 0,0.59945 0,0.899176 0,0.353554 0.500002,0.353554 0.500002,0 z" />
    <path
       style="fill:none;stroke:#ffffff;stroke-width:1"
       id="path56"
       d="m 87.867137,78.01353 c 0.182639,3.261151 0.350964,6.522476 0.564838,9.781881 0.02315,0.352796 0.522078,0.320056 0.498927,-0.03274 v 0 c -0.213722,-3.256815 -0.381891,-6.515553 -0.564388,-9.774111 -0.01765,-0.353113 -0.517033,-0.328144 -0.499377,0.02498 z" />
    <path
       style="fill:none;stroke:#ffffff;stroke-width:1"
       id="path57"
       d="m 82.977854,71.55645 c -0.153519,0.01805 -0.3122,0.01074 -0.460563,0.05414 -1.156015,0.338119 -2.479752,1.252627 -3.25832,2.159383 -0.230341,0.268267 -0.40862,0.577171 -0.612931,0.865754 -0.107466,0.298744 -0.263943,0.584176 -0.3224,0.896237 -0.181999,0.971528 0.349613,1.70381 1.23989,2.066417 0.890911,0.36286 1.652218,0.297153 2.598513,0.331549 2.6689,-0.210066 5.381509,-0.477578 7.94785,-1.277027 0.752769,-0.317093 1.624793,-0.787197 1.788666,-1.683714 0.03721,-0.203578 0.0572,-0.425103 -0.01021,-0.62077 -0.08728,-0.253349 -0.29083,-0.450141 -0.436245,-0.675214 -0.234379,-0.184997 -0.446315,-0.402672 -0.703133,-0.554993 -1.396762,-0.828423 -3.524679,-1.232246 -5.123889,-1.245195 -0.541806,-0.0044 -1.081926,0.06107 -1.622888,0.09161 -0.466738,0.07725 -0.933479,0.154506 -1.400217,0.231756 -0.34875,0.05809 -0.266602,0.551294 0.08215,0.493207 v 0 c 0.448971,-0.07527 0.897945,-0.150532 1.346917,-0.225798 0.518964,-0.03072 1.037023,-0.09491 1.556887,-0.09216 1.558682,0.0083 3.479435,0.367043 4.855898,1.142669 0.218416,0.123076 0.40146,0.300408 0.602192,0.450612 0.114337,0.136527 0.267218,0.248433 0.343011,0.40958 0.392581,0.834708 -0.83775,1.574295 -1.428533,1.801246 -2.510282,0.790065 -5.171112,1.036244 -7.781875,1.254464 -0.877578,-0.02617 -2.970186,0.06095 -3.353485,-1.092713 -0.173157,-0.521166 0.06965,-0.936088 0.230187,-1.414571 0.183891,-0.264652 0.343218,-0.548185 0.55167,-0.793959 0.672515,-0.792919 1.967219,-1.710698 2.970617,-2.022025 0.128429,-0.03985 0.266825,-0.03365 0.400235,-0.05049 0.353555,0 0.353555,-0.499999 0,-0.499999 z" />
    <path
       style="fill:none;stroke:#ffffff;stroke-width:1"
       id="path58"
       d="m 107.8731,87.520784 c 0.23661,-0.697632 0.37983,-1.289576 0.89846,-1.880857 1.51233,-1.724197 3.90752,-2.600224 6.08,-3.086764 0.67507,-0.151183 1.37284,-0.172034 2.05926,-0.258053 0.35073,-0.04459 0.28767,-0.540597 -0.0631,-0.496006 v 0 c -0.71453,0.09209 -1.44099,0.116935 -2.14358,0.276275 -2.30988,0.523851 -4.78019,1.468726 -6.36646,3.315975 -0.55755,0.649277 -0.70569,1.286002 -0.95782,2.047232 -0.0581,0.348742 0.43508,0.430943 0.4932,0.0822 z" />
    <path
       style="fill:none;stroke:#ffffff;stroke-width:1"
       id="path59"
       d="m 91.881033,89.400337 c 4.31732,-1.092235 8.668597,-2.046531 13.015837,-3.011128 0.34516,-0.07659 0.23685,-0.564716 -0.10831,-0.48813 v 0 c -4.35157,0.965571 -8.707172,1.92087 -13.028794,3.014186 -0.342998,0.08575 -0.221728,0.570823 0.121267,0.485072 z" />
    <path
       style="fill:none;stroke:#ffffff;stroke-width:1"
       id="path62"
       d="m 117.47975,85.144072 c 3.1509,1.07437 6.3863,1.875274 9.60345,2.720062 0.34197,0.08979 0.46895,-0.393814 0.12699,-0.483605 v 0 c -3.20429,-0.841349 -6.42684,-1.638729 -9.56527,-2.708387 -0.3337,-0.116797 -0.49888,0.355132 -0.16517,0.47193 z" />
    <path
       style="fill:none;stroke:#ffffff;stroke-width:1"
       id="path63"
       d="m 111.6405,91.073101 c 2.38128,0.613685 4.77162,1.1875 7.15411,1.79777 0.34249,0.08773 0.46656,-0.396637 0.12406,-0.484365 v 0 c -2.39631,-0.613759 -4.80017,-1.192043 -7.19597,-1.806601 -0.34874,-0.05812 -0.43094,0.435072 -0.0822,0.493196 z" />
    <path
       style="fill:none;stroke:#ffffff;stroke-width:1"
       id="path64"
       d="m 74.479967,114.96114 c 1.713624,0.39573 3.396027,-0.2121 4.990531,-0.79206 0.332121,-0.12123 0.160676,-0.59092 -0.171445,-0.46969 v 0 c -1.485305,0.54417 -3.060414,1.13352 -4.660974,0.78741 -0.33541,-0.1118 -0.493525,0.36254 -0.158112,0.47434 z" />
    <path
       style="fill:none;stroke:#ffffff;stroke-width:1"
       id="path67"
       d="m 51.812097,41.902562 c 0.04558,-0.09116 0.237238,-0.290372 0.136734,-0.273468 -0.25654,0.04315 -0.529093,0.161242 -0.689089,0.366366 -0.326869,0.419063 -0.614828,1.802289 -0.411977,2.272318 0.519096,1.202817 1.647195,1.258766 2.708232,1.586992 0.763164,0.191805 1.821614,0.08761 1.949069,1.152655 0.203359,1.699286 -0.846971,0.663379 -0.382521,2.568781 0.266459,1.093153 1.142375,1.478029 1.956395,2.04147 1.283269,1.282655 -1.188228,3.432624 -0.843711,4.521829 0.668144,2.112383 5.261782,0.678945 5.637816,0.61264 1.597503,-0.281678 3.164501,-0.715105 4.746751,-1.07266 1.04716,-0.134602 2.089219,-0.489913 3.141478,-0.403807 0.265139,0.0217 0.472559,0.438634 0.395425,0.693232 -0.0442,0.145891 -1.931099,1.574549 -0.652791,2.164426 0.888659,0.410076 3.774141,-0.08465 4.611746,-0.189148 0.112125,0.216803 0.444116,0.431393 0.336373,0.650402 -0.360019,0.731811 -1.081755,1.222729 -1.576748,1.870911 -0.742153,0.971836 -1.565113,1.901846 -2.131832,2.985397 -0.871543,1.666375 -1.56745,3.266987 0.562583,4.315523 0.850731,0.418785 1.874369,0.288499 2.811555,0.432747 2.731188,0.289918 1.55511,0.04257 3.557654,0.584962 0.341474,0.09163 0.471059,-0.391284 0.129585,-0.482914 v 0 c -2.075791,-0.552106 -0.877464,-0.306637 -3.620648,-0.597594 -0.839105,-0.09444 -1.727092,0.01426 -2.517318,-0.283323 -0.53473,-0.201375 -1.196194,-0.579216 -1.275638,-1.145059 -0.122587,-0.873119 0.350094,-1.752716 0.759132,-2.533777 0.08575,-0.163732 3.556429,-4.833924 3.700111,-5.448948 0.08805,-0.376894 -0.5313,-0.562967 -0.796946,-0.844449 -0.767692,0.09653 -1.535378,0.193106 -2.303074,0.289594 -0.592399,0.07446 -1.190432,0.33356 -1.777212,0.22324 -0.231449,-0.04352 -0.39438,-0.392311 -0.337306,-0.620795 0.07554,-0.302376 2.015633,-2.334662 0.06143,-2.560325 -1.06439,-0.12291 -2.12525,0.274685 -3.187872,0.412027 -1.737407,0.393423 -6.434285,1.58876 -8.474109,1.606326 -0.472329,0.0041 -1.193075,-0.04481 -1.326695,-0.497859 -0.185187,-0.627893 0.437375,-1.234416 0.631388,-1.859637 0.714455,-2.302396 0.780571,-1.387465 0.01863,-3.237376 -0.500848,-0.328453 -1.565545,-0.868759 -1.738736,-1.576247 -0.231465,-0.945541 0.524862,-1.959382 0.295368,-2.905403 -0.286692,-1.181806 -1.303409,-1.116864 -2.21869,-1.346655 -0.607875,-0.166973 -1.972091,-0.334391 -2.348902,-1.101484 -0.160695,-0.327133 -0.0672,-0.734666 -0.0028,-1.093404 0.06269,-0.349319 0.346456,-0.641937 0.377677,-0.99546 0.147436,-1.669595 -0.249825,-0.721405 -0.357701,-0.505653 -0.158115,0.316227 0.289099,0.539834 0.447212,0.223607 z" />
    <path
       style="fill:none;stroke:#ffffff;stroke-width:1"
       id="path68"
       d="m 160.52854,44.951813 c -0.40744,0.771047 -0.97094,2.474606 -1.59949,3.017944 -0.23137,0.200001 -0.56171,0.29641 -0.86753,0.298632 -0.69564,0.0051 -1.63275,-0.581403 -2.19047,-0.869825 -0.34204,-0.134792 -0.65889,-0.42182 -1.02612,-0.404382 -0.96692,0.04592 -1.15856,0.992011 -1.35981,1.68922 -0.059,0.204292 -0.13559,1.730504 -0.72946,1.908809 -0.25962,0.07795 -0.51954,-0.154924 -0.77931,-0.232386 -0.41626,-0.218588 -0.82522,-0.451673 -1.24877,-0.655764 -1.02804,-0.495366 -1.66932,-1.106406 -2.70955,-0.08772 -0.94483,0.925248 -0.93296,2.315054 -1.34445,3.448727 -0.14323,0.3946 -0.39392,0.741434 -0.59088,1.11215 -2.11105,-1.580372 -0.10053,-0.01389 -3.057,-2.664441 -0.70017,-0.627724 -1.31193,-1.39305 -2.14069,-1.837376 -0.48605,-0.26058 -1.1916,-0.507656 -1.64338,-0.19137 -1.18806,0.831747 -1.59718,4.334767 -1.79426,5.293439 -0.29714,0.919628 -0.28696,2.004806 -0.89143,2.758887 -1.20167,1.499108 -3.46735,-0.494051 -4.14692,-0.975373 -0.96984,-0.686911 -1.77256,-1.597035 -2.76478,-2.251204 -0.80462,-0.530479 -1.63128,-1.206432 -2.59217,-1.280621 -0.77434,-0.05978 -1.42847,0.610037 -2.14271,0.915054 -2.80188,5.106754 -0.26664,0.07826 -2.48771,5.900779 -0.30779,0.806861 -0.41353,1.824107 -1.1029,2.344227 -0.43191,0.325874 -1.13909,-0.01598 -1.59329,-0.309972 -1.50104,-0.97159 -3.82481,-4.049575 -4.83398,-5.278573 0.21844,1.314609 -2.36359,-4.422248 -3.68197,-3.397271 -1.39796,1.086845 -0.99945,6.140932 -0.98093,6.884326 0.16943,6.800093 0.49601,2.118365 -0.0108,7.168912 -0.37963,0.04784 -0.80759,0.334962 -1.13888,0.143518 -0.76899,-0.444381 -1.32285,-1.196449 -1.88005,-1.888077 -1.67967,-2.084904 -3.28993,-4.85869 -4.70069,-7.118178 -1.75514,-2.811063 -0.63726,-2.791828 -2.584751,-2.215621 -0.07375,4.896443 -0.156835,2.327971 0.381801,8.032604 0.0421,0.445604 1.2313,5.26819 -0.426151,6.331284 -0.813964,0.522081 -3.599891,-1.262219 -3.875405,-1.408751 -0.313634,-0.163197 -0.544433,0.280348 -0.230798,0.443545 v 0 c 0.916784,0.467416 3.228588,2.10892 4.566364,1.160786 1.67097,-1.184275 0.53378,-5.833486 0.46382,-6.573327 -0.50632,-5.354672 -0.33575,-3.218675 -0.63192,-7.551812 0.9055,-1.266973 0.23794,-0.635955 1.91226,2.045036 1.12405,1.799881 3.37971,5.613638 4.78699,7.222443 0.67758,0.774607 1.3847,1.64547 2.34993,2.002496 0.50387,0.186375 1.00336,-0.384395 1.50504,-0.576591 0.0908,-0.926179 0.27081,-1.847916 0.27252,-2.778537 0.0152,-8.327644 -0.6066,-0.593172 -0.23402,-8.652299 0.0342,-0.740373 -0.22883,-1.660159 0.27163,-2.206842 1.07169,-1.170643 4.39784,5.306619 3.47973,3.24988 0.84995,1.032661 1.62969,2.127345 2.54984,3.09798 0.5603,0.591055 2.97836,3.671686 4.71628,2.385512 0.71193,-0.526878 0.81174,-1.57853 1.1271,-2.406176 2.36071,-6.195711 -0.41305,-0.37088 2.22582,-5.599848 0.5691,-0.305914 1.06285,-0.96406 1.7073,-0.917744 1.73456,0.124663 4.21958,2.77949 5.33618,3.521006 1.23754,0.82183 3.3712,2.534219 4.86404,0.690904 0.61988,-0.765398 0.60368,-1.875071 0.90551,-2.812606 0.2045,-1.014521 0.3554,-2.041332 0.61348,-3.04356 0.16304,-0.633132 0.15762,-1.418098 0.64707,-1.851554 0.34024,-0.301324 0.96227,-0.144431 1.36152,0.07272 2.20754,1.200682 3.24031,4.066918 5.96608,4.354679 0.2107,-0.406291 0.47579,-0.788715 0.63209,-1.218872 0.27225,-0.749284 0.60311,-3.700518 1.96578,-3.65084 0.23056,0.0084 2.63492,1.238891 2.78881,1.315879 0.41607,0.01005 0.86572,0.194231 1.24821,0.03017 0.80511,-0.345342 0.70753,-2.269151 1.07207,-2.986836 0.0928,-0.182661 0.22496,-0.431491 0.42968,-0.43946 0.35126,-0.01368 0.65464,0.256344 0.98196,0.384514 0.77848,0.391242 1.66127,0.976675 2.60362,0.88837 1.06499,-0.0998 1.34025,-0.757518 1.79845,-1.572837 0.25514,-0.454012 0.68145,-1.432605 0.91652,-1.959721 0.17542,-0.306969 -0.2587,-0.55504 -0.43412,-0.248071 z" />
    <path
       style="fill:none;stroke:#ffffff;stroke-width:1"
       id="path69"
       d="m 148.18821,66.059057 c -0.1967,3.946761 -0.29673,7.897016 -0.49613,11.843536 -0.0178,0.353102 0.48153,0.378327 0.49937,0.02522 v 0 c 0.19939,-3.948272 0.29969,-7.900266 0.49636,-11.848777 0.0141,-0.353272 -0.48547,-0.373256 -0.4996,-0.01998 z" />
    <path
       style="fill:none;stroke:#ffffff;stroke-width:1"
       id="path70"
       d="m 147.70129,64.612683 c 0.0586,-0.256 0.48232,-1.169971 -0.40064,-0.656177 -0.18511,0.10772 -0.23015,0.361275 -0.34333,0.543105 -0.14861,0.238739 -0.29467,0.479052 -0.442,0.718576 -0.67859,1.182212 -0.6439,2.111672 0.91301,2.417231 0.22445,0.04405 0.47626,0.08123 0.68613,-0.0097 0.21968,-0.09521 0.33867,-0.338531 0.508,-0.507796 0.22668,-1.203494 0.1702,-0.59722 0.17031,-1.818743 -10e-4,-0.353549 -0.50111,-0.351967 -0.49999,0.0016 v 0 c 0.007,1.063167 0.0348,0.560099 -0.0649,1.51008 -0.0442,0.105079 -0.0326,0.26035 -0.1325,0.315238 -0.30588,0.168063 -1.34489,-0.09378 -1.49726,-0.420894 -0.0747,-0.16034 -0.0439,-0.360302 0.004,-0.530625 0.0695,-0.248076 0.2262,-0.462933 0.3393,-0.694399 0.14625,-0.237789 0.29122,-0.476364 0.43874,-0.713361 0.11419,-0.183439 0.34136,-0.331915 0.34635,-0.547926 0.037,-1.599173 -0.59916,0.239609 -0.51008,0.272561 -0.0857,0.342997 0.39933,0.464264 0.48507,0.121269 z" />
    <path
       style="fill:none;stroke:#ffffff;stroke-width:1"
       id="path71"
       d="m 148.48848,77.020236 c 0.64164,-0.354724 1.27248,-0.729736 1.92493,-1.064177 3.8703,-1.983889 7.84921,-3.771183 11.81018,-5.565043 0.32206,-0.145859 0.11578,-0.601326 -0.20628,-0.455467 v 0 c -3.97305,1.799368 -7.96422,3.592063 -11.84586,5.582957 -0.65927,0.338135 -1.29668,0.717267 -1.94502,1.075902 -0.30111,0.185296 -0.0391,0.611127 0.26205,0.425828 z" />
    <path
       style="fill:none;stroke:#ffffff;stroke-width:1"
       id="path72"
       d="m 160.71039,68.899841 c 1.00672,0.136239 2.02402,0.151191 3.03766,0.185555 0.14363,0.0049 0.39585,0.154305 0.43088,0.01492 0.041,-0.163256 -0.17615,-0.338513 -0.34102,-0.372472 -0.21013,-0.04328 -0.41298,0.116435 -0.61946,0.174651 -0.34,0.09698 -0.20285,0.5778 0.13714,0.480822 v 0 c 0.26887,-0.0775 1.1375,-0.119041 0.84065,-0.782701 -0.0588,-0.131355 -0.28762,-0.01008 -0.43143,-0.01495 -0.97319,-0.03294 -1.94908,-0.0508 -2.91706,-0.1666 -0.33995,-0.09713 -0.47731,0.383635 -0.13736,0.480764 z" />
    <path
       style="fill:none;stroke:#ffffff;stroke-width:1"
       id="path73"
       d="m 147.45653,77.34479 c 0.17588,-0.07348 0.68908,-0.296648 0.82419,-0.30213 0.70599,-0.02864 3.56523,0.578374 3.58843,0.582051 3.32013,0.526151 4.25932,0.574924 7.61543,0.918099 0.35172,0.03595 0.40256,-0.461459 0.0508,-0.497408 v 0 c -3.34002,-0.341239 -4.2714,-0.389427 -7.57458,-0.912212 -0.83979,-0.132911 -2.74321,-0.625663 -3.83976,-0.564359 -0.15129,0.0085 -0.69815,0.248663 -0.88816,0.328747 -0.31623,0.158113 -0.0926,0.605327 0.22361,0.447212 z" />
    <path
       style="fill:none;stroke:#ffffff;stroke-width:1"
       id="path74"
       d="m 160.10577,77.02566 c 0.58244,0.278231 1.18745,0.507863 1.76835,0.789332 0.26032,0.126132 0.55435,0.211608 0.76482,0.410046 0.0682,0.06434 -0.1854,0.02928 -0.27686,0.05 -0.34506,0.07819 -0.68795,0.165651 -1.03235,0.246661 -0.51581,0.12133 -1.03218,0.240242 -1.54827,0.360362 -0.34431,0.08034 -0.2307,0.567256 0.11361,0.486921 v 0 c 0.46259,-0.108193 2.47793,-0.501325 2.92343,-0.889786 0.17518,-0.152754 0.18453,-0.501097 0.0564,-0.694999 -0.16613,-0.251352 -0.5261,-0.294521 -0.79722,-0.425913 -0.0513,-0.02484 -1.64401,-0.731597 -1.81376,-0.806966 -0.33541,-0.111805 -0.49353,0.362537 -0.15812,0.474339 z" />
    <path
       style="fill:none;stroke:#ffffff;stroke-width:1"
       id="path75"
       d="m 148.95151,75.330123 c -0.45209,-0.868976 -1.47307,-1.441572 -2.43412,-0.929441 -0.24279,0.129381 -0.41633,0.359756 -0.62449,0.539633 -0.671,1.336207 -0.86475,2.582373 0.1876,3.785158 0.13737,0.156994 0.30766,0.281787 0.4615,0.42268 0.87666,0.560078 1.80752,0.297839 2.67043,-0.1714 0.22676,-0.123311 0.46614,-0.241757 0.64619,-0.426714 0.19562,-0.200954 0.30461,-0.470972 0.45692,-0.706456 0.0413,-0.291934 0.13381,-0.581131 0.12382,-0.8758 -0.0386,-1.139166 -0.86207,-2.317057 -2.01357,-2.5464 -0.2289,-0.04559 -0.46679,-0.0011 -0.70019,-0.0016 -0.20761,0.08691 -0.45335,0.112654 -0.62284,0.260739 -0.98287,0.858695 -0.53313,2.627786 0.18654,3.491484 0.17348,0.208198 0.42423,0.337349 0.63634,0.506021 0.46231,0.171635 1.27688,0.377907 1.44631,-0.346718 0.13033,-0.55743 -0.36678,-0.998323 -0.70907,-1.3311 -0.0508,-0.04552 -0.10157,-0.18211 -0.1523,-0.136549 -0.11947,0.107307 -0.22388,0.286364 -0.18905,0.443132 0.013,0.05837 0.54517,0.109754 0.66203,-0.09353 0.25944,-0.451329 -0.0296,-0.650565 -0.25965,-0.953061 -0.22643,-0.271526 -0.61043,0.04871 -0.38399,0.320231 v 0 c 0.67387,0.69225 -0.17743,-0.07847 0.39501,0.199025 0.0276,0.01339 -0.007,0.07792 -0.0367,0.08453 -0.07,0.0154 -0.15453,-0.07118 -0.21283,-0.02957 -0.13739,0.0981 -0.25723,0.240845 -0.3084,0.40172 -0.019,0.05992 0.0937,0.08384 0.14061,0.125754 0.42953,0.400671 1.21494,1.247867 -0.09,0.91767 -0.16908,-0.120269 -0.37053,-0.204722 -0.50725,-0.360805 -0.50179,-0.572878 -1.035,-2.12159 -0.41085,-2.783014 0.10941,-0.115946 0.28445,-0.144047 0.42667,-0.216072 0.17352,-0.0092 0.34855,-0.05225 0.52056,-0.02764 0.9502,0.135943 1.60763,1.114129 1.68584,2.018689 0.0194,0.224298 -0.0362,0.44881 -0.0543,0.673214 -0.10231,0.183367 -0.16302,0.397203 -0.30694,0.550106 -0.15854,0.168425 -0.37372,0.274658 -0.57563,0.387516 -0.66866,0.373761 -1.41944,0.666144 -2.12873,0.25549 -1.27148,-1.12772 -1.26693,-1.930874 -0.6448,-3.469391 0.14006,-0.141822 0.25141,-0.319408 0.42017,-0.425461 0.68649,-0.431387 1.42885,-0.03492 1.81408,0.569272 0.0857,0.342996 0.57082,0.221729 0.48507,-0.121269 z" />
    <path
       style="fill:none;stroke:#ffffff;stroke-width:1"
       id="path76"
       d="m 45.449725,38.671103 c 0.253801,0.535268 0.500742,1.06858 0.787239,1.587097 0.171391,0.309232 0.608713,0.06685 0.437321,-0.242384 v 0 c -0.279707,-0.502992 -0.516464,-1.022633 -0.764987,-1.541672 -0.139271,-0.324966 -0.598844,-0.128008 -0.459573,0.196959 z" />
    <path
       style="fill:none;stroke:#ffffff;stroke-width:1"
       id="path77"
       d="m 47.14948,39.913001 c -0.599967,0.221652 -1.949945,0.501161 -1.770912,1.417183 0.0423,0.216423 0.217487,0.383685 0.326234,0.575527 0.581885,0.532278 1.452181,0.969978 2.043676,0.181326 0.102534,-0.136707 0.188235,-0.297333 0.212688,-0.46646 0.02487,-0.171982 -0.04706,-0.344337 -0.07058,-0.516504 -0.481259,-0.534725 -0.202872,-0.32503 -0.828416,-0.637944 -0.320069,-0.150183 -0.532463,0.302463 -0.212394,0.452646 v 0 c 0.41335,0.175977 0.231725,0.07185 0.553434,0.296947 0.125143,0.275828 0.146873,0.19267 -0.01556,0.52518 -0.285676,0.584848 -0.917221,0.173413 -1.267399,-0.11338 -0.01815,-0.0205 -0.369094,-0.342624 -0.309277,-0.482748 0.161195,-0.377608 1.106641,-0.605705 1.459759,-0.746702 0.342998,-0.08575 0.221729,-0.570822 -0.121267,-0.485071 z" />
    <path
       style="fill:none;stroke:#ffffff;stroke-width:1"
       id="path78"
       d="m 169.50576,40.162958 c -0.27468,0.757881 -0.54096,1.518021 -0.86246,2.257571 -0.14084,0.324289 0.31777,0.523467 0.45861,0.199178 v 0 c 0.32437,-0.747554 0.59523,-1.515017 0.87201,-2.281184 0.12414,-0.331044 -0.34402,-0.506606 -0.46816,-0.175565 z" />
    <path
       style="fill:none;stroke:#ffffff;stroke-width:1"
       id="path79"
       d="m 168.98643,42.213707 c -0.14514,-0.03494 -0.28645,-0.09504 -0.43541,-0.104807 -0.58532,-0.0384 -1.51497,0.153599 -1.70066,0.821354 -0.0516,0.185386 -1.2e-4,0.384842 -1.8e-4,0.57726 0.11139,0.190339 0.19062,0.40359 0.33417,0.571013 0.53441,0.623324 1.60969,0.995013 2.36733,0.557451 0.14473,-0.08359 0.23907,-0.233641 0.35861,-0.350462 0.04,-0.175231 0.10828,-0.346334 0.12005,-0.52569 0.0108,-0.164772 -0.0369,-0.328189 -0.0532,-0.492506 -0.0493,-0.496737 -0.0466,-0.516287 -0.0798,-1.01428 -0.0236,-0.352767 -0.52247,-0.319421 -0.49889,0.03335 v 0 c 0.0372,0.556009 0.10423,1.108464 0.14219,1.662475 -0.0525,0.07215 -0.085,0.164634 -0.15765,0.216442 -0.6941,0.494774 -1.64367,-0.104536 -2.03413,-0.694475 -0.0214,-0.0976 -0.0716,-0.193151 -0.0642,-0.292791 0.0446,-0.600223 1.07639,-0.608372 1.47818,-0.517115 0.31623,0.158113 0.53984,-0.289099 0.22361,-0.447214 z" />
    <path
       style="fill:none;stroke:#ffffff;stroke-width:1"
       id="path80"
       d="m 60.686304,115.21592 c 0.275926,0.40787 0.556458,0.81265 0.82778,1.22359 0.266909,0.40427 0.581401,0.78314 0.786808,1.22187 0.02987,0.0638 -0.08419,0.19898 -0.141052,0.15738 -0.87244,-0.63818 -0.354248,-1.1987 -1.873017,-1.24975 -0.359604,-0.0121 -0.645351,0.31839 -0.968026,0.47758 -0.09818,0.43523 -0.275955,0.85991 -0.294548,1.30569 -0.0186,0.44604 0.179996,0.88008 0.184762,1.32648 0.0011,0.0979 -0.07792,0.27926 -0.168032,0.24095 -0.199633,-0.0849 -0.246552,-0.36939 -0.424815,-0.493 -0.993487,-0.68891 -1.000853,-0.5323 -2.118553,-0.54383 -0.701934,-0.0625 -0.845958,0.89503 -1.413108,1.02666 -0.951743,0.22089 -2.466382,-1.40167 -3.426367,-0.0479 -0.270516,0.38148 -0.176734,0.91847 -0.2651,1.37771 0.125749,0.48225 0.342792,0.94956 0.377246,1.44674 0.0066,0.095 -0.182406,0.1269 -0.270669,0.0912 -0.31842,-0.12878 -0.566078,-0.39207 -0.869817,-0.55244 -1.285664,-0.67878 -2.308792,-0.953 -3.707054,-1.22268 -0.356163,-0.13951 -0.712327,-0.27902 -1.068488,-0.41853 -0.329652,-0.12779 -0.51037,0.33841 -0.180718,0.4662 v 0 c 0.384995,0.14779 0.769993,0.29558 1.154988,0.44338 0.758481,0.14474 1.424945,0.2436 2.16108,0.5235 0.483433,0.18382 2.259346,1.1574 2.863037,1.11465 0.609712,-0.0432 0.536176,-2.01374 0.03694,-1.83335 0.0054,-0.33399 -0.129437,-0.70132 0.01611,-1.00198 0.485455,-1.00276 1.584415,-0.17021 2.188485,-0.067 0.433949,0.0741 0.890955,0.15767 1.319488,0.0568 0.246483,-0.058 0.375375,-0.34021 0.570529,-0.50155 0.169143,-0.13984 0.347855,-0.26769 0.521782,-0.40154 0.276701,-0.0142 0.561975,-0.11249 0.830101,-0.0427 0.630661,0.16419 1.399514,0.95492 2.153468,0.80046 0.188187,-0.0386 0.210867,-0.34299 0.214069,-0.53506 0.0066,-0.39638 -0.123714,-0.78317 -0.185571,-1.17475 0.02188,-0.32005 0.04377,-0.64009 0.06566,-0.96013 0.16831,-0.14753 0.281385,-0.45352 0.504931,-0.44259 0.307539,0.015 3.209316,1.83017 2.632625,0.36259 -0.178554,-0.45438 -0.524065,-0.82391 -0.793056,-1.23132 -0.269166,-0.40768 -0.547542,-0.80919 -0.821312,-1.21379 -0.191185,-0.2974 -0.611775,-0.027 -0.42059,0.27038 z" />
    <path
       style="fill:none;stroke:#ffffff;stroke-width:1"
       id="path81"
       d="m 63.927418,131.91839 c -0.371012,-1.01541 -0.160155,-0.57183 -0.741498,-1.57007 -0.13213,-0.22689 -0.336902,-0.42303 -0.401918,-0.6774 -0.0266,-0.10407 0.17158,0.13543 0.272677,0.17173 0.412758,0.14821 0.840661,0.25029 1.260033,0.37859 0.660374,0.20204 1.319454,0.40828 1.979179,0.61242 0.64412,0.22454 1.271265,0.50552 1.932363,0.67362 0.678,0.1724 1.776352,0.54026 2.024997,-0.54257 0.189494,-0.82525 -0.476039,-1.49033 -0.692486,-2.18748 -0.0687,-0.22129 -0.03102,-0.46238 -0.04653,-0.69356 0.150299,-0.0494 0.29268,-0.14811 0.450895,-0.14827 1.134928,-0.001 3.905195,1.53486 3.932579,-0.6763 0.0061,-0.49488 -0.272071,-0.95171 -0.408107,-1.42757 1.586098,1.9611 -1.26561,-1.9365 -0.670517,-1.74828 0.237307,0.0751 0.260434,0.44146 0.463449,0.58545 0.19067,0.13524 2.92086,1.52534 3.046122,1.56098 0.394091,0.11213 0.819454,0.004 1.229182,0.006 1.038874,-0.95542 0.665597,-0.36492 1.060781,-1.69462 0.06504,-0.21886 0.04506,-0.4881 0.201126,-0.65474 0.194156,-0.20731 2.280936,0.24885 2.509274,0.2882 1.460854,-0.45751 1.56193,-0.87643 2.014381,-2.23586 0.07796,-0.23424 0.09069,-0.49732 0.221403,-0.70676 0.170051,-0.27247 0.519523,-0.0224 0.670383,0.0408 0.345265,0.0761 0.452895,-0.41217 0.10763,-0.48828 v 0 c -0.251359,-0.0304 -0.50773,-0.14981 -0.754078,-0.0913 -0.568222,0.13491 -0.582306,0.65301 -0.719596,1.08717 -0.176188,0.55716 -0.26852,1.11281 -0.734081,1.52851 -0.201872,0.18025 -0.480782,0.24864 -0.721175,0.37296 -0.381492,-0.0657 -0.76129,-0.14206 -1.144476,-0.19699 -0.691012,-0.099 -1.364102,-0.35212 -1.927677,0.2549 -0.404485,0.43566 -0.06759,1.71233 -0.792689,1.99608 -0.332621,0.0152 -0.677969,0.13806 -0.997863,0.0457 -0.573672,-0.16568 -1.072584,-0.52527 -1.604203,-0.79717 -0.492326,-0.25181 -1.824035,-1.2457 -2.620288,-0.81463 -0.567597,0.30727 1.758614,2.04089 0.68575,1.8108 0.133522,0.38515 0.313385,0.75724 0.400566,1.15545 0.0483,0.22061 0.177977,0.53757 7.93e-4,0.67751 -0.25999,0.20524 -0.658672,0.13334 -0.988446,0.10222 -0.753203,-0.0711 -1.924748,-0.62085 -2.739848,-0.39515 -0.290369,0.0804 -0.446114,0.40509 -0.669171,0.60764 0.03138,0.28861 0.0096,0.5881 0.09415,0.86583 0.135144,0.44392 0.682017,1.17737 0.727295,1.69223 0.138485,1.57472 -3.219691,-0.61591 -3.394081,-0.33067 -0.668062,-0.20648 -1.328732,-0.43859 -2.004181,-0.61944 -0.08506,-0.0228 -2.004748,-0.913 -2.085433,0.18952 -0.01902,0.25987 0.266938,0.44757 0.398899,0.67225 0.522883,0.89025 0.328888,0.49876 0.674518,1.32008 0,0.35356 0.499999,0.35356 0.499999,0 z" />
  </g>
</svg>
