<?xml version="1.0" encoding="UTF-8" standalone="no"?>
<!-- Created with Inkscape (http://www.inkscape.org/) -->

<svg
   width="185mm"
   height="185.285mm"
   viewBox="0 0 185 185.28501"
   version="1.1"
   id="svg1"
   inkscape:version="1.4 (e7c3feb100, 2024-10-09)"
   sodipodi:docname="mill2.svg"
   xmlns:inkscape="http://www.inkscape.org/namespaces/inkscape"
   xmlns:sodipodi="http://sodipodi.sourceforge.net/DTD/sodipodi-0.dtd"
   xmlns="http://www.w3.org/2000/svg"
   xmlns:svg="http://www.w3.org/2000/svg">
  <sodipodi:namedview
     id="namedview1"
     pagecolor="#3d6dff"
     bordercolor="#cccccc"
     borderopacity="1"
     inkscape:showpageshadow="0"
     inkscape:pageopacity="1"
     inkscape:pagecheckerboard="false"
     inkscape:deskcolor="#d1d1d1"
     inkscape:document-units="mm"
     inkscape:zoom="0.79261388"
     inkscape:cx="178.52324"
     inkscape:cy="309.73467"
     inkscape:window-width="1920"
     inkscape:window-height="1140"
     inkscape:window-x="0"
     inkscape:window-y="0"
     inkscape:window-maximized="1"
     inkscape:current-layer="layer1" />
  <defs
     id="defs1" />
  <g
     inkscape:label="Layer 1"
     inkscape:groupmode="layer"
     id="layer1"
     transform="translate(0.83465894,2.0783123)">
    <path
       style="fill:none;stroke:#ffffff;stroke-width:1.1;stroke-opacity:1"
       id="path2"
       d="m 72.094895,24.799063 c 0.01466,0.300916 0.01405,0.602966 0.04399,0.902748 0.135234,1.353964 0.522701,3.918915 0.670097,5.073882 0.174856,1.370121 0.347382,2.740723 0.493737,4.114183 0.388786,3.648578 0.569256,6.156127 0.865804,9.81002 0.437205,5.756682 0.173344,2.47909 0.598789,7.43735 0.19672,2.292609 0.200406,1.348377 0.128823,2.919706 -7.94e-4,0.01413 0.01916,0.01527 0.01998,0.0011 v 0 C 75.154761,51.595363 74.764088,48.122453 74.565325,44.668643 74.292492,41.086478 74.114157,38.41357 73.740148,34.83733 73.596188,33.460774 73.4226,32.087396 73.2452,30.714748 c -0.217469,-1.682697 -0.5035,-3.356152 -0.71487,-5.03963 -0.03652,-0.290878 -0.05141,-0.584065 -0.07711,-0.876097 0,-0.253366 -0.358315,-0.253366 -0.358315,0 z" />
    <path
       style="fill:none;stroke:#ffffff;stroke-width:1.1;stroke-opacity:1"
       id="path3"
       d="m 73.693598,24.966113 c 2.806986,1.572928 5.11919,3.833378 7.501236,5.959522 3.067537,2.737987 1.915028,1.735396 4.931646,4.249642 2.268955,1.795661 1.249016,0.9731 3.067626,2.45796 0.02106,0.01749 0.04579,-0.0123 0.02474,-0.02979 v 0 C 87.426,36.089935 88.413825,36.948915 86.275251,35.00382 83.718616,32.694809 84.104757,33.047025 81.45441,30.638362 79.07166,28.47289 76.739501,26.184814 73.887033,24.632009 c -0.236244,-0.136773 -0.42967,0.197327 -0.193426,0.3341 z" />
    <path
       style="fill:none;stroke:#ffffff;stroke-width:1.1;stroke-opacity:1"
       id="path4"
       d="m 88.291719,35.380263 c 0.317,6.712296 0.855075,13.410861 1.403757,20.107312 0.17149,2.215462 0.408083,4.424497 0.734206,6.622182 0.0042,0.0398 0.06049,0.03384 0.05628,-0.006 v 0 c -0.140629,-2.214841 -0.267356,-4.430721 -0.463743,-6.641656 -0.306528,-4.158758 -0.616728,-8.316809 -0.887924,-12.47807 -0.134157,-2.058559 -0.241077,-4.11889 -0.385087,-6.176782 -0.03392,-0.484804 -0.08305,-0.968426 -0.124577,-1.45264 -0.0181,-0.235405 -0.351022,-0.209796 -0.332914,0.02561 z" />
    <path
       style="fill:none;stroke:#ffffff;stroke-width:1.1;stroke-opacity:1"
       id="path5"
       d="m 89.816219,35.753878 c 0.395496,-0.168714 0.797216,-0.32353 1.186489,-0.506145 1.494634,-0.701162 3.254269,-1.662573 4.692055,-2.367912 1.063178,-0.521568 2.131623,-1.033053 3.211499,-1.519108 2.076238,-0.934527 3.680008,-1.556118 5.761438,-2.391381 0.97821,-0.354481 1.92177,-0.757621 2.94314,-0.963964 0.0737,-0.0149 0.14949,0.01617 0.22423,0.02424 0.0139,0.0027 0.0177,-0.01693 0.004,-0.01963 v 0 c -0.0808,-0.02212 -0.15902,-0.07551 -0.24224,-0.06637 -0.9668,0.106196 -2.15228,0.525849 -3.02089,0.783926 -2.73347,0.982969 -3.02546,1.036841 -5.834482,2.282653 -1.086482,0.481859 -2.160857,0.991113 -3.228965,1.512432 -1.942274,0.947984 -3.821906,2.031987 -5.81443,2.876233 -0.251039,0.08368 -0.132696,0.438703 0.118343,0.355023 z" />
    <path
       style="fill:none;stroke:#ffffff;stroke-width:1.1;stroke-opacity:1"
       id="path6"
       d="m 106.89914,29.314534 c 0.007,7.835172 0.2792,15.655022 0.78752,23.473084 0.0654,0.672293 0.27761,3.061655 0.42518,3.973846 0.10929,0.675566 0.11038,0.628698 0.31829,1.069046 0.005,0.01331 0.0236,0.0065 0.0188,-0.0068 v 0 c -0.13065,-0.510048 -0.0837,-0.272624 -0.16187,-1.080717 -0.16149,-1.669783 -0.17358,-2.08892 -0.3023,-3.973261 -0.23196,-4.208108 -0.42624,-8.41674 -0.53984,-12.630044 -0.0977,-3.621924 -0.0864,-4.751983 -0.12663,-8.236201 -0.01,-0.863 -0.0235,-1.725954 -0.0352,-2.588932 0,-0.271503 -0.38396,-0.271503 -0.38396,0 z" />
    <path
       style="fill:none;stroke:#ffffff;stroke-width:1.1;stroke-opacity:1"
       id="path7"
       d="m 93.039066,64.697202 c -0.344175,0.0898 -0.678349,0.218874 -1.002104,0.365553 -0.04864,0.02204 -0.192802,0.05895 -0.141751,0.0746 1.063546,0.325856 1.08072,-0.01482 2.272422,-0.563708 4.580437,-2.441157 9.059027,-5.066583 13.628877,-7.527398 0.0126,-0.0063 0.004,-0.02421 -0.009,-0.01789 v 0 c -0.74134,0.342773 -1.49001,0.67011 -2.22401,1.028321 -3.92614,1.91606 -7.701963,4.116049 -11.563823,6.15433 -1.531258,0.712748 -1.172367,0.292084 -1.906731,1.228371 -0.02074,0.02646 0.04521,-0.05187 0.07504,-0.06738 0.304109,-0.158039 0.641212,-0.251884 0.948491,-0.403665 0.191723,-0.05478 0.114255,-0.325913 -0.07747,-0.271137 z" />
    <path
       style="fill:none;stroke:#ffffff;stroke-width:0.956521;stroke-opacity:1"
       id="path8"
       d="m 76.714292,54.379905 c -0.741652,-0.151178 -1.494034,-0.277674 -2.252723,-0.346501 -0.08454,-0.0077 -0.242543,-0.08769 -0.254392,-0.01526 -0.03267,0.199694 0.107019,0.392672 0.160531,0.589007 2.361203,2.029805 4.746626,4.040321 7.241721,5.949134 2.198776,1.682119 3.339828,2.470619 5.571232,4.063935 2.66429,1.834247 1.445867,1.000714 3.65237,2.503734 0.01007,0.0074 0.02227,-0.0048 0.0122,-0.01225 v 0 c -2.066714,-1.645398 -0.910735,-0.748708 -3.487012,-2.671747 -4.345525,-3.236161 -8.636052,-6.528391 -12.684502,-10.041463 -0.155322,-0.03041 -0.323808,-0.02938 -0.465967,-0.09122 -0.06555,-0.02851 0.146187,-0.01857 0.219579,-0.01594 0.537994,0.01917 1.151607,0.09798 1.68351,0.166244 0.186385,0.02392 0.371746,0.05341 0.55762,0.08012 0.129644,0.02788 0.175482,-0.129873 0.04584,-0.157762 z" />
    <path
       style="fill:none;stroke:#ffffff;stroke-width:1.1;stroke-opacity:1"
       id="path9"
       d="m 73.095322,23.437144 c 3.48588,-2.159375 7.003428,-4.286128 10.664769,-6.138441 0.771605,-0.390363 1.558986,-0.748725 2.33848,-1.123088 1.305039,-0.630177 2.668638,-1.113871 4.03361,-1.591375 0.127765,-0.04469 0.253712,-0.09455 0.381995,-0.137734 0.0072,-0.0024 0.02994,-0.0016 0.02291,0.0014 -0.05676,0.02457 -0.116094,0.04268 -0.174143,0.06402 -0.01318,0.0073 -0.0028,0.02595 0.01035,0.01863 v 0 c 0.05978,-0.0441 0.133506,-0.07385 0.179342,-0.132313 0.0127,-0.01621 -0.03659,-0.02557 -0.05709,-0.02362 -0.138906,0.01322 -0.279127,0.02896 -0.412988,0.06835 -0.284498,0.08372 -0.559541,0.19683 -0.837689,0.299703 -1.595374,0.590052 -1.43196,0.543507 -3.220479,1.275943 -0.786255,0.365598 -1.578663,0.718248 -2.358769,1.096796 -3.714326,1.802389 -7.338176,3.80257 -10.787411,6.073564 -0.175453,0.15352 0.04166,0.401646 0.217109,0.248126 z" />
    <path
       style="fill:none;stroke:#ffffff;stroke-width:0.867322;stroke-opacity:1"
       id="path10"
       d="m 90.893332,14.713435 c 2.450134,2.478756 5.238027,4.713292 8.132005,6.831434 0.83121,0.608372 1.682883,1.197225 2.524323,1.795838 1.88329,1.354466 3.89758,2.568327 5.94527,3.742397 0.0228,0.01378 0.0463,-0.013 0.0235,-0.02677 v 0 c -1.97053,-1.25356 -3.90434,-2.545097 -5.77352,-3.902412 -2.370189,-1.724944 -4.737551,-3.446055 -6.95978,-5.304028 -1.484436,-1.241118 -1.688525,-1.468065 -2.980914,-2.67387 -0.230364,-0.214928 -0.461946,-0.428953 -0.692917,-0.64343 -0.154125,-0.127875 -0.372089,0.05297 -0.217965,0.180843 z" />
    <path
       style="fill:none;stroke:#ffffff;stroke-width:1.1;stroke-opacity:1"
       id="path11"
       d="m 82.374101,62.421256 c 0.229958,3.326471 0.98581,6.589176 1.292238,9.908539 0.145803,1.242027 0.244826,2.51286 0.328247,3.744968 0.453858,-0.04609 0.08445,-1.1591 -0.05879,-0.412551 1.507239,1.530406 3.373359,2.681202 5.289272,3.632665 1.53137,0.709229 3.19419,1.214123 4.900002,1.096006 1.318495,-0.05172 2.631113,-0.419561 3.806493,-1.00685 0.822198,-0.446096 1.913487,-1.047909 1.852866,-2.13114 -0.142276,-0.66421 -0.539274,-1.384777 -0.844023,-1.905576 0.203106,0.823014 0.918552,1.691231 0.478426,2.544312 -0.590195,0.857198 -1.597565,1.352221 -2.557484,1.671701 -2.172676,0.75089 -4.614953,0.645961 -6.71421,-0.290564 -2.078105,-0.857612 -4.001269,-2.095186 -5.685444,-3.581197 -0.284597,-0.512589 -0.798282,-0.432274 -0.521833,0.198027 0.561273,0.762149 0.266974,-0.931451 0.275593,-1.287104 -0.330552,-4.092308 -1.032916,-8.141662 -1.592543,-12.206111 -0.0015,-0.173873 -0.28173,-0.14587 -0.248806,0.02488 z" />
    <path
       style="fill:none;stroke:#ffffff;stroke-width:1.1;stroke-opacity:1"
       id="path12"
       d="m 101.35142,60.229921 c 0.45562,4.738643 0.0554,9.505519 -0.21214,14.243606 -0.0555,2.027327 -0.0319,1.127773 -0.0721,2.698631 -7.9e-4,0.01413 0.0192,0.01521 0.02,0.0011 v 0 c 0.12961,-1.564505 0.0491,-0.669266 0.25443,-2.684523 0.44545,-4.75133 0.84373,-9.548083 0.37887,-14.314144 -0.0391,-0.260911 -0.40812,-0.205563 -0.36899,0.05535 z" />
    <path
       style="fill:none;stroke:#ffffff;stroke-width:1.1;stroke-opacity:1"
       id="path13"
       d="m 91.735736,80.333815 c 0.05686,2.916703 0.05547,5.834423 0.139988,8.750602 0.157709,0.488062 0.593472,-0.201775 0.936992,0.03667 0.792521,0.131555 1.547363,0.42538 2.339893,0.560094 0.362566,0.0995 0.947451,0.134147 1.064416,-0.316848 0.06441,-0.396507 -0.178482,-0.940729 -0.259592,-1.19985 0.04155,0.234837 0.124411,0.626746 -0.0054,0.154562 -0.850989,-2.927441 -1.311953,-5.951461 -1.628977,-8.97866 0.110122,2.149712 0.357976,4.291498 0.679322,6.419124 0.210213,1.190928 0.538388,2.35651 0.871716,3.517666 -0.414806,0.212043 -0.871189,-0.04743 -1.294197,-0.104792 -0.729127,-0.169453 -1.458138,-0.462365 -2.215104,-0.421433 -0.206251,0.04267 -0.594426,0.318588 -0.164292,0.307158 0.02886,-0.399641 -3.53e-4,-0.814641 0.0098,-1.22362 -0.03915,-2.239835 -0.04153,-4.480123 -0.07908,-6.71998 -0.06703,-0.283309 0.11911,-1.076735 -0.360269,-0.914348 l -0.03139,0.06276 -0.0038,0.07093 z" />
    <path
       style="fill:none;stroke:#ffffff;stroke-width:1.14122;stroke-opacity:1"
       id="path15"
       d="m 67.931403,10.274025 c -0.0098,1.267604 -0.07316,2.527885 -0.167277,3.790489 -0.02714,0.481891 -0.06579,0.963091 -0.08141,1.445673 -0.05633,1.740777 -0.04962,4.728907 -0.05033,6.236379 -0.002,4.232474 0.0049,7.508884 0.06943,11.847509 0.04486,3.017319 0.115308,6.034047 0.172963,9.05107 0.28485,13.577062 0.697236,27.151508 0.838418,40.732267 0.06827,6.56766 0.04789,10.368467 0.04111,16.773708 0.0228,4.80848 0.04265,9.61768 0.143695,14.42505 0.02639,1.25572 0.01799,2.56599 0.182677,3.81647 0.02526,-0.032 0.05054,-0.0641 0.07581,-0.0961 0.005,-0.0148 -0.01295,-0.0228 -0.01792,-0.008 v 0 c 0.003,0.0341 0.0061,0.0682 0.009,0.10218 0.107552,-1.26205 0.07536,-2.55572 0.07526,-3.81865 -5.09e-4,-4.80673 -0.04353,-9.61336 -0.03516,-14.42013 0.0078,-6.798211 0.02775,-9.744046 -0.04023,-16.782707 -0.131158,-13.582062 -0.524535,-27.157991 -0.81689,-40.736016 -0.06059,-3.015106 -0.132085,-6.029943 -0.181773,-9.045319 -0.08471,-5.140776 -0.08653,-7.025132 -0.09038,-11.840201 -0.0011,-1.18678 -0.0089,-4.657853 0.02874,-6.209536 0.01168,-0.480513 0.04337,-0.960086 0.06506,-1.440128 0.06692,-1.274914 0.08613,-2.547645 0.02532,-3.823835 0,-0.20257 -0.246174,-0.20257 -0.246174,0 z" />
    <path
       style="fill:none;stroke:#ffffff;stroke-width:1.1;stroke-opacity:1"
       id="path16"
       d="m 97.859912,3.4394364 c -0.267534,2.9794412 -0.438277,5.9671048 -0.518774,8.9575256 -0.02712,1.007727 -0.06168,2.015976 -0.04534,3.023935 0.01405,0.865365 0.09095,1.728566 0.136429,2.592849 0.02342,0.634889 0.0468,1.269779 0.07021,1.904668 2.64e-4,0.01414 0.02035,0.01363 0.02,-5.02e-4 v 0 c -0.009,-0.634828 -0.01797,-1.269656 -0.02695,-1.904484 0.329163,-7.748442 -0.11875,3.122555 0.189381,-5.602311 0.09312,-2.6366262 0.275074,-5.2665477 0.409604,-7.900743 0.01823,-0.3567036 0.02342,-0.7139538 0.0351,-1.0709304 0,-0.1906767 -0.269656,-0.1906767 -0.269656,0 z" />
    <path
       style="fill:none;stroke:#ffffff;stroke-width:1.1;stroke-opacity:1"
       id="path17"
       d="m 99.405086,78.110989 c 0.136774,6.290876 0.02815,12.582954 0.06973,18.874441 0.01019,1.540833 0.03556,3.08152 0.05334,4.62228 0.0026,1.18541 0.0051,2.37081 0.0076,3.55621 -5.1e-5,0.0185 0.02609,0.0185 0.02614,7e-5 v 0 c 0.009,-1.18533 0.01807,-2.37066 0.02711,-3.556 0.131871,-6.365743 0.07022,-3.049001 0.178811,-9.770402 0.06604,-4.087447 0.160557,-8.177255 0.07557,-12.265371 -0.0104,-0.499944 -0.04122,-0.999255 -0.06182,-1.498883 -0.02662,-0.266245 -0.403156,-0.228592 -0.376531,0.03766 z" />
    <path
       style="fill:none;stroke:#ffffff;stroke-width:1.1;stroke-opacity:1"
       id="path18"
       d="m 68.316923,11.525676 c 0.399569,-0.191529 0.799399,-0.382518 1.198708,-0.574589 2.31865,-1.1152872 2.492653,-1.2391833 5.212686,-2.3537292 3.378565,-1.3843831 4.954384,-1.9050633 8.432062,-3.2052001 1.551649,-0.5800862 3.099072,-1.1714117 4.648607,-1.7571174 5.349391,-2.0634584 2.827179,-1.1091672 7.562501,-2.87378792 0.01326,-0.004892 0.0063,-0.0236574 -0.0069,-0.018765 v 0 C 90.617329,2.4741527 93.157626,1.5696942 87.737636,3.4388645 c -2.773222,0.9690089 -6.37295,2.2113621 -9.140957,3.2380899 -3.555894,1.3189764 -7.09014,2.7193472 -10.432441,4.5242936 -0.229405,0.107955 -0.07673,0.432384 0.152672,0.324428 z" />
    <path
       style="fill:none;stroke:#ffffff;stroke-width:1.1;stroke-opacity:1"
       id="path19"
       d="m 56.048754,6.1078211 c 1.55603,0.059508 3.06056,0.5693924 4.470328,1.2035714 0.696177,0.313173 1.364861,0.6843514 2.052924,1.0149747 0.829167,0.3984257 1.665684,0.7813717 2.498523,1.1720577 0.773999,0.370941 1.547998,0.7418821 2.322,1.1128231 0.01273,0.0062 0.02143,-0.01185 0.0087,-0.018 v 0 C 66.630097,10.21685 65.858961,9.8404579 65.087825,9.4640659 64.278669,9.0280219 63.468943,8.5930339 62.660358,8.1559327 61.980871,7.7886201 61.319159,7.3867421 60.623614,7.0508284 59.200679,6.36362 57.638857,5.8473431 56.048751,5.8115209 c -0.209515,0 -0.209515,0.2962997 0,0.2962997 z" />
    <path
       style="fill:none;stroke:#ffffff;stroke-width:1.23237;stroke-opacity:1"
       id="path20"
       d="m 55.341047,6.0108101 c 0.06102,-0.1065314 0.262492,-0.454541 0.322242,-0.5727967 0.03678,-0.072812 0.06016,-0.1586359 0.101587,-0.2264836 0.009,-0.014768 0.04982,-0.02331 0.04148,-0.00781 C 55.447015,5.8711613 55.609471,5.1159078 55.570814,6.4299993 55.05892,15.262956 54.535703,24.09536 54.176961,32.943864 53.991827,37.510215 53.85443,42.080052 53.693165,46.648147 53.422151,60.81385 53.340688,61.84085 53.31561,75.960174 c -0.01341,7.552547 0.03469,15.938413 0.224793,23.539159 0.185327,7.409927 0.318376,9.034827 0.695649,16.032797 0.463216,7.05624 0.256444,3.81131 0.625852,9.73412 10e-4,0.0186 0.02006,0.0165 0.01895,-0.002 v 0 c -0.328186,-5.92642 -0.155326,-2.67867 -0.509744,-9.74412 -0.270843,-6.81565 -0.383971,-8.85403 -0.517733,-16.029368 -0.328122,-17.601328 -0.146785,-35.218788 0.264566,-52.813713 0.159853,-4.565058 0.296731,-9.131777 0.479555,-13.695174 0.22377,-5.5855 0.562068,-12.092449 0.86719,-17.799527 0.150973,-2.823831 0.259991,-4.382296 0.361782,-7.0832363 0.02077,-0.551124 0.02656,-1.1031378 0.03984,-1.6547069 0.01341,-0.6457892 0.129915,-1.0365104 -0.207564,-1.5441643 -0.02983,-0.044878 -0.06942,0.076285 -0.09804,0.1226632 -0.155813,0.2525341 -0.244814,0.5697398 -0.368889,0.8500845 -0.07034,0.1463534 0.07888,0.284337 0.149216,0.1379834 z" />
    <path
       style="fill:none;stroke:#ffffff;stroke-width:1.1;stroke-opacity:1"
       id="path21"
       d="m 57.518875,6.3402082 c 0.457875,-0.1788485 0.921753,-0.3430288 1.373627,-0.5365459 0.764974,-0.3276055 1.516486,-0.6857984 2.27579,-1.0263415 2.524225,-1.1320994 4.065513,-1.8366247 6.681465,-2.893403 3.959799,-1.59965997 3.600801,-1.4138031 7.512994,-2.70954236 0.01617,-0.005207 0.0088,-0.0280841 -0.0074,-0.0228769 v 0 C 73.480095,-0.26218872 69.513001,0.9561733 67.735287,1.6066261 64.225793,2.890725 60.893506,4.583509 57.451296,6.0248079 c -0.22302,0.04779 -0.155435,0.3631907 0.06759,0.3154003 z" />
    <path
       style="fill:none;stroke:#ffffff;stroke-width:1.1;stroke-opacity:1"
       id="path22"
       d="m 77.046147,-1.2348923 c 2.992421,0.48999648 5.927825,1.26169716 8.95391,1.54940139 0.955643,0.0908574 1.916456,0.11501385 2.874682,0.17252074 0.862353,0.006002 1.724707,0.0120028 2.587058,0.0180044 0.01413,2.3799e-4 0.01447,-0.0197591 2.65e-4,-0.0199972 v 0 C 90.601759,0.46204655 89.741455,0.43905638 88.881152,0.41606607 87.933343,0.29936098 86.982531,0.20489281 86.037728,0.06595081 84.492313,-0.16131627 82.614189,-0.534027 81.06345,-0.84481666 79.814432,-1.0951377 79.068743,-1.2821371 77.857528,-1.4539369 c -0.256884,-0.036436 -0.516583,-0.04908 -0.774874,-0.073619 -0.206944,-0.025868 -0.243528,0.266796 -0.03658,0.2926641 z" />
    <path
       style="fill:none;stroke:#ffffff;stroke-width:1.06795;stroke-opacity:1"
       id="path23"
       d="m 39.42899,142.27977 c -0.17712,0.21255 -0.322551,0.44787 -0.462205,0.68561 -0.0259,0.0441 -0.0504,0.089 -0.07589,0.13329 -0.01454,0.0253 -0.06381,0.0539 -0.0442,0.0755 0.08206,0.0905 0.201248,0.13909 0.301873,0.20863 0.6469,-0.24867 0.693764,-0.2439 1.431224,-0.68742 2.656451,-1.59763 5.139628,-3.49099 7.686259,-5.24909 1.57546,-1.08764 3.162166,-2.15908 4.743249,-3.23861 6.851853,-4.62249 13.870407,-8.99069 21.040837,-13.10716 5.978523,-3.43219 11.634887,-6.52445 17.809425,-9.59163 2.892731,-1.43695 5.837034,-2.76876 8.755548,-4.15315 8.57725,-3.86175 17.32865,-7.33669 26.20854,-10.445501 0.013,-0.0045 0.007,-0.02278 -0.007,-0.01832 v 0 c -2.14781,0.72119 -4.16787,1.390557 -6.32202,2.166369 -6.76361,2.435912 -13.45121,5.083532 -20.01593,8.011432 -2.933306,1.36449 -5.893992,2.67218 -8.799919,4.09348 -6.257982,3.06078 -11.818858,6.08224 -17.865107,9.54212 -7.185243,4.11165 -14.210419,8.48951 -21.071855,13.11597 -6.127839,4.19228 -3.006578,2.02477 -8.146281,5.64294 -1.051886,0.74049 -2.991434,2.13215 -4.201367,2.89531 -0.623508,0.39328 -0.763926,0.44193 -1.31417,0.6901 0.01235,0.0873 0.0059,0.17946 0.03705,0.26204 0.0097,0.0258 0.0214,-0.0507 0.03327,-0.0755 0.02152,-0.045 0.0445,-0.0894 0.06686,-0.13402 0.120936,-0.24142 0.245049,-0.48157 0.348942,-0.73098 0.06496,-0.0969 -0.07285,-0.18834 -0.137804,-0.0914 z" />
    <path
       style="fill:none;stroke:#ffffff;stroke-width:1.02565;stroke-opacity:1"
       id="path24"
       d="m 65.710043,155.49724 c 0.12,-0.088 0.243743,-0.17033 0.359998,-0.26408 0.662182,-0.53405 1.285091,-1.12359 1.908552,-1.70857 1.516574,-1.42292 2.997416,-2.89044 4.518414,-4.30779 1.245875,-1.16098 2.510921,-2.2975 3.766379,-3.44624 10.055939,-8.85846 20.80821,-16.76987 31.952204,-23.92312 2.44914,-1.57208 4.94395,-3.05875 7.41593,-4.58813 5.65521,-3.36799 11.43475,-6.49642 17.38945,-9.19333 1.84575,-0.83595 3.87673,-1.69972 5.82461,-2.30692 0.40554,-0.12641 0.8245,-0.19511 1.23676,-0.29267 0.0123,-0.003 0.009,-0.0219 -0.004,-0.0189 v 0 c -0.41382,0.0939 -0.83255,0.16533 -1.24146,0.28192 -1.97928,0.56428 -4.01269,1.31169 -5.90278,2.1171 -6.01995,2.5652 -11.76992,5.79194 -17.46159,9.10798 -2.48593,1.51216 -4.99775,2.97524 -7.4578,4.53648 -2.51263,1.59463 -4.99364,3.24816 -7.45779,4.92956 -8.5176,5.81198 -16.794339,12.05807 -24.585257,18.97529 -1.256579,1.15295 -2.523551,2.2927 -3.769735,3.45889 -2.239363,2.0956 -4.36016,4.34565 -6.676873,6.34183 -0.195932,0.1418 -0.0112,0.44259 0.184726,0.3008 z" />
    <path
       style="fill:none;stroke:#ffffff;stroke-width:1.04637;stroke-opacity:1"
       id="path25"
       d="m 38.498171,144.84884 c 1.789026,0.96886 3.763934,1.52104 5.714857,2.05666 0.904761,0.2484 5.11448,1.33564 5.895531,1.53806 4.4028,1.09847 8.688507,2.59527 13.008706,3.96907 3.867965,1.22999 0.738592,0.18474 3.707493,1.19014 0.01277,0.005 0.01886,-0.0136 0.0062,-0.018 v 0 c -2.175809,-0.74299 -4.31218,-1.58885 -6.483696,-2.34484 -3.344384,-1.16431 -6.722155,-2.24315 -10.146826,-3.14707 -1.960498,-0.51819 -3.925975,-1.0179 -5.881284,-1.55532 -1.923793,-0.52876 -3.872555,-1.07045 -5.65149,-1.99511 -0.21666,-0.11977 -0.386072,0.18662 -0.169415,0.30642 z" />
    <path
       style="fill:none;stroke:#ffffff;stroke-width:1.1;stroke-opacity:1"
       id="path26"
       d="m 41.433778,153.25846 c -0.226911,0.13018 -0.458097,0.25318 -0.680734,0.39055 -1.449458,0.89431 -2.822245,1.90692 -4.180386,2.93207 -1.831853,1.3827 -2.354522,1.81243 -4.179879,3.25447 -1.979424,1.56673 -4.07114,2.98005 -6.165572,4.38562 -0.918578,0.61646 -1.758818,1.16123 -2.572333,1.90163 -0.01096,0.009 0.0017,0.0245 0.01264,0.0155 v 0 c 0.862464,-0.62841 0.01258,-0.0338 1.343355,-0.83781 0.459482,-0.27761 0.913396,-0.56441 1.365613,-0.85371 2.13256,-1.36423 4.214168,-2.80592 6.216106,-4.35692 1.867327,-1.45922 2.320066,-1.82628 4.185022,-3.23279 1.553229,-1.17142 3.118531,-2.34702 4.819244,-3.29963 0.211412,-0.11532 0.04833,-0.4143 -0.16308,-0.29898 z" />
    <path
       style="fill:none;stroke:#ffffff;stroke-width:1.1;stroke-opacity:1"
       id="path27"
       d="m 42.242112,153.44692 c 2.390079,0.55707 4.784322,1.10593 7.211071,1.47807 0.542749,0.009 1.211421,0.25879 1.747935,0.018 0.05141,-0.0231 0.08003,-0.0794 0.120039,-0.11906 0.01024,-0.01 -0.0036,-0.0242 -0.01381,-0.0145 v 0 c -0.03699,0.0337 -0.0625,0.0887 -0.110966,0.10121 -0.436287,0.1129 -1.302302,-0.15856 -1.704036,-0.20236 -2.399012,-0.50037 -4.795266,-1.01282 -7.179093,-1.58154 -0.226392,-0.0503 -0.297541,0.26986 -0.07115,0.32017 z" />
    <path
       style="fill:none;stroke:#ffffff;stroke-width:1.1;stroke-opacity:1"
       id="path28"
       d="m 52.146786,154.40818 c -4.595698,4.58655 -9.086748,9.27641 -13.670055,13.8754 -1.23229,1.26075 -2.119675,2.12639 -3.242071,3.40168 -0.579113,0.658 -0.497784,0.55319 -0.797395,1.06221 -0.0075,0.012 0.0095,0.0226 0.01698,0.0106 v 0 c 0.352211,-0.53578 0.137248,-0.24994 0.881143,-0.97438 0.449099,-0.43736 0.903593,-0.86913 1.35539,-1.3037 0.671363,-0.656 1.342725,-1.312 2.014088,-1.96801 2.487866,-2.47417 2.928775,-2.89496 5.460432,-5.49011 2.727306,-2.79571 5.39545,-5.6513 8.190809,-8.37971 0.165425,-0.14801 -0.0439,-0.38196 -0.209323,-0.23395 z" />
    <path
       style="fill:none;stroke:#ffffff;stroke-width:1.1;stroke-opacity:1"
       id="path29"
       d="m 24.333642,167.41839 c 2.392957,0.30355 4.79336,0.55094 7.168466,0.98273 0.646719,0.11758 1.287484,0.26583 1.931226,0.39875 0.0138,0.003 0.01816,-0.0164 0.0044,-0.0195 v 0 c -1.78605,-0.42855 -2.269222,-0.56731 -4.136491,-0.91409 -1.746563,-0.32436 -2.163696,-0.35551 -3.819121,-0.58097 -0.367055,-0.05 -0.733826,-0.10206 -1.100738,-0.15308 -0.202366,-0.0337 -0.250064,0.25245 -0.0477,0.28618 z" />
    <path
       style="fill:none;stroke:#ffffff;stroke-width:1.1;stroke-opacity:1"
       id="path30"
       d="m 26.076619,167.44059 c -0.654383,-0.53037 -1.222935,-0.15728 -1.721578,0.36186 -0.132005,0.15865 -0.263941,0.31508 -0.392084,0.47627 -0.01539,0.0193 -0.06594,0.0899 -0.04945,0.0363 -0.01733,0.0214 -0.02055,-0.10537 -0.02633,-0.0784 -0.177053,0.8253 -0.111479,0.34528 0.141221,1.44844 0.116485,0.50851 0.2169,1.02057 0.325351,1.53085 0.391668,2.0325 0.566732,4.09624 0.82843,6.14678 0.4563,3.57536 0.116894,0.39205 0.422238,3.43616 0.0013,0.0141 0.0212,0.0123 0.01992,-0.002 v 0 c -0.175567,-2.15763 -0.09456,-1.00569 -0.232112,-3.45657 -0.15893,-2.07093 -0.419306,-4.13551 -0.749669,-6.1856 -0.0061,-0.0292 -0.427153,-2.16376 -0.573262,-2.48409 -0.06094,-0.1336 -0.213871,-0.2013 -0.318572,-0.30426 -0.03234,-0.0318 0.147496,0.0887 0.127307,0.0481 0.145455,0.004 0.162308,-0.0882 0.250408,-0.19783 0.09502,-0.11823 0.207086,-0.22225 0.293479,-0.34777 0.340474,-0.32989 0.805994,-0.71704 1.312933,-0.464 0.08041,0.0401 0.143865,0.10773 0.215797,0.1616 0.08908,0.0891 0.215063,-0.0369 0.125981,-0.12598 z" />
    <path
       style="fill:none;stroke:#ffffff;stroke-width:1.1;stroke-opacity:1"
       id="path31"
       d="m 27.464029,180.68916 c 1.934438,-0.64762 3.997574,-0.89067 6.032237,-0.89843 0.392549,-0.002 0.784735,0.0241 1.177102,0.0361 0.274716,0.0367 0.549433,0.0734 0.824149,0.11006 0.01399,0.002 0.01694,-0.0177 0.003,-0.0198 v 0 c -0.27451,-0.0453 -0.549019,-0.0906 -0.823528,-0.13586 -0.393719,-0.0496 -0.785321,-0.12068 -1.181157,-0.14872 -2.067757,-0.14648 -4.177403,0.1259 -6.142252,0.78037 -0.195332,0.0781 -0.08483,0.35438 0.110497,0.27624 z" />
    <path
       style="fill:none;stroke:#ffffff;stroke-width:1.1;stroke-opacity:1"
       id="path32"
       d="m 33.741477,170.37349 c 0.02743,0.40746 0.04133,0.81607 0.08229,1.22239 0.22526,2.23465 0.604961,4.45059 0.985771,6.66248 0.491773,2.85641 0.293169,1.78378 0.821873,4.38967 0.0023,0.0139 0.02205,0.0107 0.01973,-0.003 v 0 c -0.535775,-4.09696 -1.218166,-8.17584 -1.632345,-12.28756 -0.01153,-0.19609 -0.288843,-0.17978 -0.277309,0.0163 z" />
    <path
       style="fill:none;stroke:#ffffff;stroke-width:1.1;stroke-opacity:1"
       id="path33"
       d="m 36.556705,181.79508 c 3.809784,-4.91809 8.25231,-9.29303 12.680253,-13.64514 3.105982,-3.06551 1.626096,-1.66144 4.419337,-4.23353 0.01042,-0.01 -0.0031,-0.0243 -0.01352,-0.0147 v 0 c -2.800178,2.56646 -1.287608,1.19563 -4.54515,4.10428 -0.948404,0.90382 -1.907436,1.79661 -2.845211,2.71146 -1.782062,1.73847 -3.894814,3.87811 -5.59701,5.70879 -1.207418,1.29856 -2.453541,2.7027 -3.545132,4.11343 -0.275809,0.35644 -0.518549,0.73728 -0.777823,1.10593 -0.10572,0.15858 0.118547,0.30809 0.224267,0.14951 z" />
    <path
       style="fill:none;stroke:#ffffff;stroke-width:1.1;stroke-opacity:1"
       id="path34"
       d="m 53.067298,155.50218 c -0.02146,1.66294 0.155451,3.3177 0.248412,4.9751 0.03616,0.64473 0.04924,1.29054 0.07387,1.93582 5.3e-4,0.0141 0.0204,0.0136 0.02,-5.3e-4 v 0 c -0.04283,-2.30798 0.0044,-4.6162 -0.13557,-6.92184 -0.0081,-0.14616 -0.21482,-0.13467 -0.2067,0.0115 z" />
    <path
       style="fill:none;stroke:#ffffff;stroke-width:1.1;stroke-opacity:1"
       id="path35"
       d="m 38.890158,146.96143 c 0.130224,2.19036 0.02022,0.98459 0.383302,3.61206 0.0017,0.018 0.02708,0.0156 0.0254,-0.002 v 0 c -0.128399,-2.63437 -0.08818,-1.43093 -0.138299,-3.60969 0,-0.19121 -0.270405,-0.19121 -0.270405,0 z" />
    <path
       style="fill:none;stroke:#ffffff;stroke-width:1.1;stroke-opacity:1"
       id="path36"
       d="m 66.875678,156.83543 c -0.0043,3.218 -0.01879,-0.49299 0.07796,3.57048 0.01656,0.69612 0.0131,1.39257 0.01963,2.08886 5.9e-5,0.0141 0.02006,0.014 0.02,-9e-5 v 0 c 7.94e-4,-0.69628 -0.01021,-1.39267 0.0026,-2.08883 0.01275,-0.69762 0.0493,-1.3946 0.07395,-2.09191 0.0055,-0.49003 0.01109,-0.98005 0.01662,-1.47008 0.006,-0.14898 -0.204722,-0.1574 -0.21068,-0.008 z" />
    <path
       style="fill:none;stroke:#ffffff;stroke-width:1.1;stroke-opacity:1"
       id="path37"
       d="m 55.608531,164.02845 c 2.944818,0.26442 5.730491,1.25333 8.497755,2.22862 0.01323,0.005 0.02032,-0.0137 0.0071,-0.0187 v 0 c -2.734273,-1.11325 -5.518177,-2.30469 -8.504854,-2.4849 -0.194432,0 -0.194432,0.27497 0,0.27497 z" />
    <path
       style="fill:none;stroke:#ffffff;stroke-width:1.1;stroke-opacity:1"
       id="path38"
       d="m 67.619839,164.85203 c 0.352909,-0.32341 0.71193,-0.64028 1.058727,-0.97023 2.869653,-2.73031 1.955573,-2.01186 5.716035,-5.46269 4.818102,-4.4214 7.976547,-7.16795 13.348411,-11.35001 3.191354,-2.4845 6.481239,-4.83978 9.721856,-7.25967 10.686362,-7.62283 21.828162,-14.62119 33.594722,-20.46324 3.36705,-1.67172 6.845,-3.11007 10.2675,-4.66511 0.0129,-0.006 0.005,-0.024 -0.008,-0.0183 v 0 c -3.44621,1.51067 -6.94306,2.9107 -10.33863,4.532 -3.86685,1.84632 -7.69735,3.777 -11.43865,5.86608 -9.32693,5.20802 -13.56466,8.35111 -22.392297,14.32535 -3.250796,2.41986 -6.552224,4.77314 -9.752386,7.25957 -5.148596,4.00031 -8.72826,7.07732 -13.378293,11.38023 -2.531375,2.3424 -3.473517,3.36313 -5.654723,5.5223 -0.330229,0.32689 -0.666335,0.64779 -0.999503,0.97169 -0.23476,0.18058 0.02061,0.51258 0.255384,0.332 z" />
    <path
       style="fill:none;stroke:#ffffff;stroke-width:1.1;stroke-opacity:1"
       id="path39"
       d="m 141.49877,106.41495 c -0.20487,2.07757 -0.10303,4.1697 -0.0825,6.25247 0.007,0.67299 0.001,1.34604 0.002,2.01907 -6.2e-4,0.0145 0.0202,0.0148 0.0204,2.4e-4 v 0 c 0.0856,-2.73895 0.21983,-5.47637 0.42885,-8.20892 0.0445,-0.26057 -0.324,-0.32351 -0.36851,-0.0629 z" />
    <path
       style="fill:none;stroke:#ffffff;stroke-width:1.1;stroke-opacity:1"
       id="path40"
       d="m 128.45216,97.902119 c 2.64384,0.562117 5.17538,1.624787 7.48744,3.022211 0.79256,0.47903 1.52221,1.05517 2.28331,1.58275 0.0116,0.008 0.0231,-0.008 0.0115,-0.0164 v 0 c -2.97141,-2.10178 -6.03791,-4.372355 -9.73521,-4.917783 -0.23277,-0.03326 -0.2798,0.295944 -0.047,0.329197 z" />
    <path
       style="fill:none;stroke:#ffffff;stroke-width:1.1;stroke-opacity:1"
       id="path41"
       d="m 91.025169,146.1949 c 2.946034,0.76563 5.910122,1.46397 8.835501,2.3078 1.39084,0.40119 5.61698,1.71652 6.9334,2.12385 1.11322,0.33607 2.22644,0.67214 3.33966,1.00822 0.014,0.005 0.0204,-0.0153 0.006,-0.0198 v 0 c -1.09933,-0.37823 -2.19865,-0.75646 -3.29798,-1.13469 -3.02626,-1.05304 -3.8735,-1.38289 -6.891242,-2.29967 -2.917536,-0.88635 -5.879634,-1.60336 -8.83154,-2.36249 -0.266441,-0.0666 -0.360643,0.3102 -0.0942,0.37681 z" />
    <path
       style="fill:none;stroke:#ffffff;stroke-width:1.1;stroke-opacity:1"
       id="path42"
       d="m 119.84273,128.01226 c 0.51529,0.1735 1.02455,0.36606 1.54587,0.5205 1.25489,0.37176 3.71641,0.96474 4.89949,1.25783 2.65335,0.65732 5.29888,1.33654 7.9406,2.03904 0.55906,0.16658 1.11811,0.33316 1.67716,0.49974 0.0134,0.004 0.0197,-0.0146 0.006,-0.019 v 0 c -0.54926,-0.20011 -1.09851,-0.40022 -1.64777,-0.60032 -2.43658,-0.80748 -2.41534,-0.83169 -5.03753,-1.55797 -1.14018,-0.31579 -4.36176,-1.13818 -5.54063,-1.45026 -0.72033,-0.19069 -1.44367,-0.37133 -2.15775,-0.58425 -0.51326,-0.15303 -1.01508,-0.34208 -1.52261,-0.51312 -0.28835,-0.11534 -0.45147,0.29245 -0.16312,0.40779 z" />
    <path
       style="fill:none;stroke:#ffffff;stroke-width:1.1;stroke-opacity:1"
       id="path43"
       d="m 109.89748,151.43481 c 0.80912,-0.73157 0.90999,-0.83328 1.97894,-1.71506 0.6728,-0.55499 1.33601,-1.12315 2.03628,-1.64304 3.68311,-2.73442 7.64233,-5.04575 11.57439,-7.39418 4.52552,-2.60521 9.02792,-5.24842 13.56611,-7.8315 0.0123,-0.007 0.003,-0.0243 -0.01,-0.0175 v 0 c -4.59209,2.49045 -9.19379,4.96387 -13.74579,7.52737 -5.47638,3.17966 -11.14015,6.29676 -15.63091,10.8432 -0.16313,0.16312 0.0676,0.39382 0.23069,0.23069 z" />
    <path
       style="fill:none;stroke:#ffffff;stroke-width:1.1;stroke-opacity:1"
       id="path44"
       d="m 111.88845,151.11785 c -0.14437,2.0418 -0.11445,4.09096 -0.0904,6.13584 0.0202,1.71407 0.047,3.68837 0.1327,5.41031 0.0326,0.65571 0.0916,1.30985 0.13739,1.96478 0.0181,0.43163 0.0363,0.86326 0.0544,1.29489 2.1e-4,0.0141 0.0202,0.0138 0.02,-2.6e-4 v 0 c 0.005,-0.43214 0.0108,-0.86428 0.0162,-1.29642 0.0194,-0.65677 0.056,-1.31324 0.0582,-1.97029 0.003,-0.85003 -0.0337,-1.69977 -0.0431,-2.54975 -0.0329,-2.98086 -0.0363,-5.96282 0.0362,-8.94312 0.0325,-0.22743 -0.28914,-0.27338 -0.32163,-0.0459 z" />
    <path
       style="fill:none;stroke:#ffffff;stroke-width:0.675447;stroke-opacity:1"
       id="path44-6"
       d="m 139.27928,133.04546 c -0.0886,1.25376 -0.0703,2.51203 -0.0555,3.76767 0.0124,1.05251 0.0289,2.26482 0.0815,3.32217 0.02,0.40263 0.0562,0.8043 0.0844,1.20645 0.0111,0.26504 0.0223,0.53008 0.0334,0.79512 1.3e-4,0.009 0.0124,0.008 0.0123,-1.6e-4 v 0 c 0.003,-0.26535 0.007,-0.5307 0.01,-0.79605 0.0119,-0.40329 0.0344,-0.80639 0.0357,-1.20985 0.002,-0.52195 -0.0207,-1.04373 -0.0265,-1.56565 -0.0202,-1.83038 -0.0223,-3.66143 0.0222,-5.49146 0.02,-0.13966 -0.17755,-0.16787 -0.1975,-0.0282 z" />
    <path
       style="fill:none;stroke:#ffffff;stroke-width:1.59175;stroke-opacity:1"
       id="path45"
       d="m 81.053376,157.56724 c 2.40967,0.57816 4.7777,1.40902 7.151842,2.19179 5.185177,1.70957 15.536862,5.0807 20.647932,6.96664 0.0171,0.007 -13.377219,-4.47114 -13.394301,-4.47796 v 0 c -4.725064,-1.97132 -9.458657,-4.00797 -14.338355,-5.21201 -0.284821,-0.0627 -0.351954,0.46886 -0.06713,0.53151 z"
       sodipodi:nodetypes="sscsscss" />
    <path
       style="fill:none;stroke:#ffffff;stroke-width:1.1;stroke-opacity:1"
       id="path46"
       d="m 126.64601,148.98804 c -0.0242,1.85719 -0.01,3.7147 0.0109,5.57185 0.009,0.76512 0.0474,2.49636 0.0196,3.32873 -0.0124,0.37175 -0.0538,0.74197 -0.0807,1.11295 -0.0453,0.25929 -0.0907,0.51857 -0.13606,0.77785 -0.003,0.0138 0.0163,0.0183 0.0195,0.005 v 0 c 0.0738,-0.2566 0.14766,-0.51319 0.22149,-0.76979 0.0621,-0.37271 0.14548,-0.7425 0.18642,-1.11814 0.13416,-1.23086 0.1021,-2.07387 0.10451,-3.33748 0.004,-1.85231 -0.006,-3.70464 0.006,-5.55693 0.01,-0.24883 -0.34232,-0.26236 -0.35189,-0.0135 z" />
    <path
       style="fill:none;stroke:#ffffff;stroke-width:1.23589;stroke-opacity:1"
       id="path47"
       d="m 128.27931,148.50575 c 3.12625,1.32677 6.3858,2.40575 9.61463,3.53016 5.16402,1.79833 2.13885,0.78594 7.36305,2.48113 4.27595,1.17951 2.25857,0.63546 6.04944,1.6396 0.0164,0.004 0.0235,-0.0155 0.007,-0.0199 v 0 c -3.77926,-1.02226 -1.78671,-0.42708 -5.96021,-1.82803 -1.2172,-0.43663 -2.43442,-0.87327 -3.6516,-1.3099 -1.21258,-0.44032 -2.42302,-0.88503 -3.63776,-1.32095 -2.75443,-0.98843 -5.5411,-1.91482 -8.27452,-2.9461 -0.4484,-0.16917 -0.88983,-0.35164 -1.33475,-0.52747 -0.24819,-0.10657 -0.42368,0.19486 -0.17549,0.30143 z" />
    <path
       style="fill:none;stroke:#ffffff;stroke-width:1.1;stroke-opacity:1"
       id="path48"
       d="m 129.56321,147.81418 c 0.21925,-0.22149 0.42127,-0.46148 0.65775,-0.66448 1.05815,-0.90829 2.30062,-1.76089 3.45563,-2.51623 1.95126,-1.27607 2.589,-1.60895 4.56741,-2.7506 0.0249,-0.0134 0.006,-0.0486 -0.0189,-0.0352 v 0 c -0.76383,0.38013 -1.53912,0.73806 -2.2915,1.14039 -1.6437,0.87895 -2.99996,1.6925 -4.51869,2.75562 -0.50791,0.35554 -1.00789,0.72466 -1.47996,1.12657 -0.26501,0.22563 -0.48359,0.50069 -0.72539,0.75104 -0.1364,0.25006 0.21724,0.44295 0.35364,0.19289 z" />
    <path
       style="fill:none;stroke:#ffffff;stroke-width:1.1;stroke-opacity:1"
       id="path49"
       d="m 138.98487,142.23615 c 2.63699,0.78631 5.36891,1.19253 8.05208,1.78701 3.13625,0.69486 3.26611,0.76615 6.41509,1.60608 2.5137,0.74438 5.05241,1.39455 7.60102,2.0058 0.0137,0.004 0.0188,-0.0157 0.005,-0.0193 v 0 c -2.51858,-0.72709 -5.01867,-1.51253 -7.5316,-2.25908 -2.88263,-0.80729 -3.53057,-1.02386 -6.41268,-1.69528 -2.66481,-0.6208 -5.37037,-1.04751 -8.02153,-1.72617 -0.21282,-0.076 -0.32032,0.22497 -0.10749,0.30098 z" />
    <path
       style="fill:none;stroke:#ffffff;stroke-width:1.1;stroke-opacity:1"
       id="path50"
       d="m 153.20525,156.7912 c 1.91411,-2.05474 3.95965,-3.98678 6.10282,-5.80106 1.56989,-1.32898 2.28153,-1.84605 3.84485,-3.04106 0.0116,-0.008 1.5e-4,-0.0245 -0.0115,-0.0164 v 0 c -0.61198,0.38918 -1.23988,0.75439 -1.83595,1.16753 -3.08555,2.13859 -5.87177,4.67619 -8.43483,7.41218 -0.19715,0.23657 0.13742,0.51538 0.33456,0.2788 z" />
    <path
       style="fill:none;stroke:#ffffff;stroke-width:1.1;stroke-opacity:1"
       id="path51"
       d="m 152.39814,157.43354 c 0.018,2.79588 -0.0535,5.59162 -0.0662,8.38716 -0.014,3.09173 0.0628,0.49878 -0.0282,2.96124 -5.3e-4,0.0141 0.0193,0.015 0.02,7.9e-4 v 0 c 0.25843,-4.87293 -0.20334,3.56978 0.21677,-2.95569 0.1798,-2.79264 0.1959,-5.59654 0.20722,-8.39361 0,-0.24717 -0.34955,-0.24717 -0.34955,0 z" />
    <path
       style="fill:none;stroke:#ffffff;stroke-width:1.30744;stroke-opacity:1"
       id="path52"
       d="m 129.07435,160.60683 c 0.88495,0.40591 1.38519,0.64869 2.3791,1.01441 2.15487,0.79288 3.95697,1.31709 6.16758,2.00857 5.3415,1.67081 2.83603,0.86521 8.37856,2.71074 1.33175,0.48053 2.66351,0.96106 3.99526,1.44157 0.0193,0.007 0.0272,-0.0291 0.008,-0.0365 v 0 c -1.31787,-0.55168 -2.63575,-1.10336 -3.95362,-1.65505 -1.44158,-0.55107 -2.87632,-1.13552 -4.32474,-1.65324 -4.17898,-1.4937 -8.44637,-2.54861 -12.56857,-4.32297 -0.2592,-0.0774 -0.34066,0.41512 -0.0814,0.49251 z" />
    <path
       style="fill:none;stroke:#ffffff;stroke-width:1.1;stroke-opacity:1"
       id="path53"
       d="m 163.57404,148.94454 c -0.26469,3.04202 -0.47594,6.0966 -0.5303,9.15087 -0.0119,0.66775 -7.9e-4,1.33571 -0.001,2.00357 -0.0133,0.52166 -0.0266,1.04331 -0.0399,1.56497 -5.3e-4,0.0144 0.0197,0.0153 0.0203,0.001 v 0 c 0.0345,-0.5207 0.069,-1.04141 0.10351,-1.56211 0.0598,-0.66537 0.13257,-1.3297 0.17948,-1.9961 0.10339,-1.46873 0.15312,-2.94079 0.24404,-4.41035 0.0802,-1.29583 0.16908,-2.4554 0.23728,-3.74065 0.0175,-0.32981 0.0271,-0.66 0.0406,-0.99 0.0149,-0.17932 -0.23867,-0.20046 -0.25362,-0.0211 z" />
    <path
       style="fill:none;stroke:#ffffff;stroke-width:1.00017;stroke-opacity:1"
       id="path54"
       d="m 153.41425,169.01639 c 2.37929,-2.08164 4.83724,-4.03302 7.37232,-5.82525 0.60612,-0.42851 1.22436,-0.83132 1.83654,-1.24697 0.0103,-0.007 0.002,-0.0243 -0.007,-0.0176 v 0 c -1.42471,0.88264 -2.59311,1.58202 -3.99267,2.5575 -1.85474,1.29274 -3.64897,2.72327 -5.36185,4.27663 -0.14919,0.13152 0.004,0.38726 0.15345,0.25574 z" />
    <path
       style="fill:none;stroke:#ffffff;stroke-width:1.1;stroke-opacity:1"
       id="path55"
       d="m 115.95639,165.87911 c -0.0676,0.0409 -0.13528,0.0818 -0.20292,0.12266 -0.008,-0.004 -0.0317,-0.008 -0.0236,-0.0109 1.66783,-0.65682 0.31327,0.0756 2.49945,-1.6356 2.51249,-1.96661 2.25291,-1.73363 4.89184,-3.59457 0.0244,-0.0164 10e-4,-0.0509 -0.0232,-0.0345 v 0 c -1.58096,1.01477 -3.55847,2.25264 -5.08613,3.35617 -1.26787,0.91587 -1.67569,1.02616 -2.21526,2.28184 -0.0534,0.12436 0.55871,-0.30915 0.3659,-0.17604 0.21858,-0.14572 0.0125,-0.45484 -0.20607,-0.30912 z" />
  </g>
</svg>
