<?xml version="1.0" encoding="UTF-8" standalone="no"?>
<svg
   width="150mm"
   height="151mm"
   version="1.1"
   viewBox="0 0 150 151"
   id="svg55"
   sodipodi:docname="repairs.svg"
   inkscape:version="1.4 (e7c3feb100, 2024-10-09)"
   xmlns:inkscape="http://www.inkscape.org/namespaces/inkscape"
   xmlns:sodipodi="http://sodipodi.sourceforge.net/DTD/sodipodi-0.dtd"
   xmlns="http://www.w3.org/2000/svg"
   xmlns:svg="http://www.w3.org/2000/svg">
  <defs
     id="defs55" />
  <sodipodi:namedview
     id="namedview55"
     pagecolor="#5400ff"
     bordercolor="#cccccc"
     borderopacity="1"
     inkscape:showpageshadow="0"
     inkscape:pageopacity="1"
     inkscape:pagecheckerboard="0"
     inkscape:deskcolor="#d1d1d1"
     inkscape:document-units="mm"
     inkscape:zoom="1.5226683"
     inkscape:cx="283.38411"
     inkscape:cy="314.90771"
     inkscape:window-width="1920"
     inkscape:window-height="1140"
     inkscape:window-x="0"
     inkscape:window-y="0"
     inkscape:window-maximized="1"
     inkscape:current-layer="g55" />
  <g
     transform="translate(-26 -86.3)"
     fill="none"
     stroke="#fff"
     id="g55">
    <path
       d="m 75.5,211 c 0.59,4.64 0.693,9.32 0.609,14 -0.0052,0.287 0.401,0.295 0.406,0.007 0.0843,-4.69 -0.0196,-9.4 -0.613,-14.1 -0.0392,-0.285 -0.442,-0.229 -0.402,0.0555 z"
       id="path1"
       style="stroke-width:0.894" />
    <path
       d="m 77,211 c 2.28,-1.37 4.65,-2.6 6.97,-3.91 0.777,-0.44 1.54,-0.898 2.32,-1.35 0.248,-0.144 0.0441,-0.496 -0.204,-0.351 -0.769,0.447 -1.53,0.904 -2.31,1.34 -2.34,1.32 -4.72,2.56 -7.02,3.95 -0.228,0.175 0.0197,0.497 0.248,0.322 z"
       id="path2"
       style="stroke-width:0.894" />
    <path
       d="m 77.3,226 c 1.97,0.434 3.98,0.686 5.95,1.07 0.858,0.168 1.71,0.375 2.56,0.562 0.281,0.0615 0.368,-0.335 0.087,-0.397 -0.86,-0.189 -1.72,-0.396 -2.58,-0.566 -1.98,-0.388 -3.99,-0.641 -5.96,-1.07 -0.284,-0.0449 -0.347,0.356 -0.0635,0.401 z"
       id="path3"
       style="stroke-width:0.894" />
    <path
       d="m 76.5,212 c 0.343,0.114 0.678,0.255 1.03,0.342 0.884,0.219 3.12,0.587 3.94,0.747 1.62,0.318 3.21,0.734 4.82,1.15 0.245,0.0523 0.49,0.105 0.736,0.157 0.281,0.0599 0.366,-0.337 0.0847,-0.397 -0.24,-0.051 -0.479,-0.102 -0.719,-0.153 -1.61,-0.415 -3.21,-0.834 -4.84,-1.15 -0.702,-0.137 -3.09,-0.537 -3.88,-0.733 -0.343,-0.0847 -0.671,-0.222 -1.01,-0.334 -0.267,-0.106 -0.417,0.272 -0.15,0.378 z"
       id="path4"
       style="stroke-width:0.894" />
    <path
       d="m 87.1,214 c 3.38,-1.78 6.69,-3.7 9.9,-5.8 0.24,-0.157 0.0178,-0.497 -0.223,-0.34 -3.19,2.09 -6.49,4 -9.86,5.78 -0.255,0.132 -0.0686,0.493 0.187,0.361 z"
       id="path5"
       style="stroke-width:0.894" />
    <path
       d="m 86.6,215 c 0.59,3.92 0.958,7.87 1.29,11.8 0.0244,0.286 0.429,0.252 0.405,-0.0346 -0.338,-3.96 -0.707,-7.91 -1.3,-11.8 -0.0401,-0.284 -0.442,-0.228 -0.402,0.0568 z"
       id="path6"
       style="stroke-width:0.894" />
    <path
       d="m 86.9,206 c 1.71,0.469 3.52,0.518 5.27,0.721 1.01,0.117 2.01,0.238 3.01,0.392 0.867,0.134 1.73,0.315 2.59,0.472 0.283,0.0515 0.355,-0.348 0.0728,-0.4 -0.87,-0.158 -1.74,-0.341 -2.61,-0.475 -1,-0.155 -2.01,-0.276 -3.02,-0.393 -1.74,-0.202 -3.54,-0.251 -5.25,-0.718 -0.284,-0.0449 -0.347,0.356 -0.0635,0.401 z"
       id="path7"
       style="stroke-width:0.894" />
    <path
       d="m 97.3,208 c 1.39,0.994 2.67,2.12 4.04,3.14 0.677,0.509 1.37,0.992 2.06,1.49 0.233,0.168 0.471,-0.161 0.238,-0.329 -0.682,-0.493 -1.37,-0.973 -2.05,-1.48 -1.37,-1.03 -2.66,-2.16 -4.05,-3.15 -0.237,-0.163 -0.467,0.172 -0.23,0.335 z"
       id="path8"
       style="stroke-width:0.894" />
    <path
       d="m 97.5,214 c -2.08,0.576 -2.98,2.44 -3.3,4.46 -0.103,0.66 -0.0789,1.33 -0.118,2 0.196,1.68 0.15,2.1 0.692,3.69 0.162,0.474 0.401,0.918 0.602,1.38 0.116,0.263 0.488,0.0997 0.372,-0.163 -0.194,-0.44 -0.425,-0.865 -0.582,-1.32 -0.526,-1.53 -0.484,-1.94 -0.678,-3.56 0.0354,-0.641 0.0118,-1.29 0.106,-1.92 0.273,-1.84 1.04,-3.57 2.92,-4.16 0.287,-0.0116 0.271,-0.418 -0.0164,-0.406 z"
       id="path9"
       style="stroke-width:0.894" />
    <path
       d="m 98,214 c 0.833,0.0131 1.23,0.0128 2.14,0.0665 1.62,0.0959 3.33,0.263 4.94,0.389 1.47,0.115 2.94,0.219 4.41,0.329 1.88,0.151 3.77,0.301 5.65,0.452 13,1.2 25.9,2.71 38.8,4.5 0.488,-1.18 1.99,0.768 2.77,0.264 0.142,-0.0917 0.127,-0.362 0.0362,-0.505 -0.124,-0.196 -0.393,-0.245 -0.589,-0.368 -0.247,-0.146 -0.454,0.204 -0.206,0.35 0.155,0.0847 0.291,0.228 0.465,0.254 0.108,0.0165 0.401,-0.0995 0.299,-0.138 -0.851,-0.319 -2,0.943 -2.72,-0.26 -12.9,-1.79 -25.9,-3.3 -38.9,-4.5 -1.88,-0.151 -3.77,-0.301 -5.65,-0.452 -1.47,-0.11 -2.93,-0.214 -4.4,-0.329 -1.63,-0.127 -3.32,-0.293 -4.96,-0.39 -0.928,-0.0547 -1.29,-0.0532 -2.12,-0.0654 -0.286,-0.024 -0.32,0.381 -0.034,0.405 z"
       id="path10"
       style="stroke-width:0.894" />
    <path
       d="m 96.5,226 c 0.52,-0.35 1.06,-0.203 1.66,-0.14 0.702,0.0728 1.4,0.152 2.11,0.22 1.43,0.139 2.87,0.267 4.3,0.4 2.31,0.195 4.62,0.382 6.94,0.586 6.83,0.603 11.2,0.997 18.1,1.82 5.03,0.604 9.95,1.31 14.9,2.11 1.4,0.225 2.8,0.483 4.21,0.725 1.12,-0.614 2.06,0.708 3.12,0.653 0.0868,-0.005 -0.148,-0.225 -0.349,-0.425 -0.284,-0.0404 -0.341,0.362 -0.057,0.402 0.21,-0.0245 0.462,0.0533 0.631,-0.0738 0.0874,-0.0656 -0.0355,-0.251 -0.133,-0.3 -0.956,-0.479 -2.31,0.128 -3.14,-0.658 -1.4,-0.242 -2.81,-0.501 -4.21,-0.726 -5,-0.8 -9.93,-1.5 -15,-2.11 -6.87,-0.826 -11.3,-1.22 -18.1,-1.82 -2.31,-0.204 -4.62,-0.39 -6.93,-0.586 -1.43,-0.133 -2.87,-0.261 -4.3,-0.399 -0.704,-0.0681 -1.41,-0.149 -2.11,-0.221 -0.714,-0.0723 -1.35,-0.204 -1.96,0.23 -0.223,0.182 0.034,0.496 0.257,0.315 z"
       id="path11"
       style="stroke-width:0.894" />
    <path
       d="m 158,220 c -0.228,-0.006 -0.459,-0.0514 -0.685,-0.016 -2.3,0.361 -3.99,2.29 -4.91,4.32 -0.287,0.633 -0.427,1.32 -0.64,1.98 -0.0483,0.615 -0.0967,1.23 -0.145,1.85 -0.0217,0.286 0.383,0.317 0.405,0.0305 0.0423,-0.584 0.0846,-1.17 0.127,-1.75 0.201,-0.634 0.331,-1.29 0.603,-1.9 0.857,-1.91 2.41,-3.72 4.56,-4.12 0.184,-0.034 0.374,-0.003 0.561,-0.004 0.273,0.0899 0.4,-0.296 0.127,-0.386 z"
       id="path12"
       style="stroke-width:0.894" />
    <path
       d="m 161.52129,220.6099 c -0.258,-0.113 -0.589,-0.274 -0.866,-0.326 -0.627,-0.117 -1.32,-0.0124 -1.91,0.202 -0.237,0.0852 -0.457,0.209 -0.686,0.314 -1.46,0.843 -2.35,2.15 -3.11,3.61 -0.64,1.3 -0.677,2.72 -0.629,4.14 0.11,1.03 0.306,2.18 0.92,3.05 0.108,0.153 0.246,0.283 0.369,0.425 0.546,0.548 1.25,0.759 1.98,0.93 0.28,0.065 0.372,-0.331 0.092,-0.396 -0.647,-0.149 -1.28,-0.324 -1.77,-0.803 -0.107,-0.12 -0.228,-0.229 -0.322,-0.359 -0.582,-0.807 -0.759,-1.9 -0.866,-2.86 -0.0464,-1.35 -0.0216,-2.7 0.583,-3.94 0.712,-1.36 1.56,-2.64 2.92,-3.43 0.207,-0.0967 0.406,-0.211 0.62,-0.29 0.51,-0.188 1.14,-0.305 1.68,-0.207 0.24,0.043 0.553,0.19 0.779,0.286 0.245,0.15 0.457,-0.197 0.211,-0.347 z"
       id="path13"
       style="stroke-width:0.894" />
    <path
       d="m 164.52129,221.6099 c -0.492,-0.307 -1.01,-0.584 -1.61,-0.534 -0.173,0.0145 -0.341,0.0675 -0.512,0.101 -0.919,0.316 -1.78,0.85 -2.48,1.53 -0.156,0.151 -0.296,0.318 -0.444,0.477 -0.428,0.44 -0.729,0.96 -1,1.5 -0.176,0.346 -0.322,0.612 -0.432,0.987 -0.0531,0.181 -0.0797,0.368 -0.12,0.552 -0.208,1.07 -0.195,2.1 -0.0353,3.17 0.146,0.9 0.526,1.72 0.997,2.5 0.45,0.732 0.797,1.18 1.65,1.4 0.386,0.0703 0.195,0.0414 0.572,0.0879 0.285,0.0349 0.334,-0.368 0.0493,-0.403 -0.346,-0.0419 -0.171,-0.0157 -0.526,-0.0796 -0.724,-0.162 -1.03,-0.608 -1.4,-1.22 -0.443,-0.725 -0.803,-1.5 -0.942,-2.35 -0.153,-1.03 -0.167,-2 0.0309,-3.03 0.0341,-0.165 0.0559,-0.332 0.102,-0.494 0.104,-0.363 0.242,-0.607 0.413,-0.944 0.258,-0.51 0.538,-0.999 0.942,-1.41 0.137,-0.149 0.267,-0.305 0.412,-0.447 0.649,-0.631 1.45,-1.13 2.3,-1.44 0.138,-0.031 0.274,-0.0776 0.414,-0.0929 0.526,-0.057 0.966,0.199 1.39,0.462 0.237,0.163 0.467,-0.172 0.23,-0.335 z"
       id="path14"
       style="stroke-width:0.894" />
    <path
       d="m 168.52129,222.6099 c -0.466,-0.386 -1.02,-0.751 -1.65,-0.719 -0.137,0.007 -0.271,0.0448 -0.406,0.0671 -0.862,0.254 -1.57,0.81 -2.19,1.44 -0.75,0.87 -1.15,1.96 -1.54,3.02 -0.181,0.757 -0.429,1.51 -0.543,2.28 -0.0625,0.424 -0.0598,0.62 -0.0773,1.04 -0.0271,0.927 0.18,1.83 0.459,2.71 0.23,0.629 0.62,1.22 1.17,1.62 0.123,0.0897 0.259,0.16 0.389,0.24 0.353,0.167 0.745,0.333 1.15,0.324 0.127,-0.002 0.251,-0.0427 0.376,-0.064 0.282,-0.0554 0.204,-0.454 -0.0783,-0.399 -0.0833,0.0197 -0.164,0.0557 -0.25,0.0592 -0.342,0.0136 -0.68,-0.129 -0.982,-0.268 -0.669,-0.401 -1.12,-0.89 -1.38,-1.63 -0.266,-0.832 -0.464,-1.69 -0.44,-2.57 0.0155,-0.39 0.0136,-0.594 0.0704,-0.983 0.109,-0.749 0.352,-1.48 0.524,-2.21 0.377,-1.01 0.75,-2.04 1.45,-2.87 0.556,-0.575 1.2,-1.08 1.97,-1.33 0.105,-0.0205 0.208,-0.0519 0.314,-0.0614 0.534,-0.0475 1,0.295 1.4,0.612 0.211,0.195 0.487,-0.104 0.275,-0.299 z"
       id="path15"
       style="stroke-width:0.894" />
    <path
       d="m 171.89196,223.30862 c -0.53406,-1.24934 -2.12838,-1.5101 -2.8395,-0.34798 -1.37555,1.84731 -2.33897,4.28063 -2.31714,6.82677 0.009,1.90238 0.55309,3.93861 1.8226,5.11509 0.86255,0.78947 2.06879,0.37318 2.78653,-0.493 1.88745,-1.90849 2.80339,-4.92664 2.93746,-7.87124 0.0882,-1.20768 0.12185,-2.72372 -0.77223,-3.50912 -0.70346,-0.33853 -0.0268,0.60494 0.22466,0.78725 0.48606,1.35734 0.22151,2.87436 0.0805,4.28967 -0.36046,2.57782 -1.45349,5.11207 -3.2844,6.52623 -0.84952,0.66397 -1.95828,0.12659 -2.46239,-0.86431 -1.24661,-2.0261 -1.27114,-4.84978 -0.54419,-7.14889 0.44294,-1.38014 1.13161,-2.65183 1.97921,-3.70214 0.73446,-0.75099 1.78103,-0.15209 2.24652,0.66194 0.0954,-0.0111 0.19359,-0.15599 0.14243,-0.27027 z"
       id="path16"
       style="stroke-width:0.762001" />
    <path
       d="m 88.5,229 c 1.94,0.912 3.83,1.91 5.6,3.11 0.492,0.334 0.962,0.699 1.44,1.05 0.232,0.169 0.471,-0.16 0.239,-0.329 -0.488,-0.354 -0.964,-0.725 -1.46,-1.06 -1.84,-1.24 -3.79,-2.32 -5.84,-3.18 -0.287,0.0116 -0.271,0.418 0.0164,0.406 z"
       id="path17"
       style="stroke-width:0.894" />
    <path
       d="m 103,228 c -1.71,1.08 -3.35,2.28 -5,3.45 -0.234,0.166 2.36e-4,0.498 0.235,0.332 1.64,-1.16 3.26,-2.34 4.96,-3.42 0.252,-0.139 0.0553,-0.495 -0.196,-0.356 z"
       id="path18"
       style="stroke-width:0.894" />
    <path
       d="m 83.4,231 c 0.205,0.0138 0.412,0.0141 0.616,0.0414 1.04,0.139 2.07,0.347 3.11,0.531 2.54,0.452 2.72,0.496 5.32,0.992 0.282,0.0538 0.358,-0.345 0.0761,-0.399 -2.6,-0.497 -2.79,-0.54 -5.33,-0.993 -0.0224,-0.004 -2.79,-0.488 -3.15,-0.536 -0.218,-0.0284 -0.439,-0.028 -0.659,-0.0419 -0.287,0.0116 -0.271,0.418 0.0164,0.406 z"
       id="path19"
       style="stroke-width:0.894" />
    <path
       d="m 79.386288,227.38218 c 1.745136,1.68092 0.829538,0.77448 2.76114,2.71775 0.272528,0.27491 0.567767,-0.23251 0.295239,-0.50585 -1.948337,-1.96369 -1.012418,-1.04468 -2.796999,-2.74917 -0.290457,-0.24193 -0.549837,0.29691 -0.260575,0.53884 z"
       id="path20"
       style="stroke-width:1.22506" />
    <path
       d="m32.8 185c-1.05-0.322-2.18-0.263-3.13 0.323-0.238 0.147-0.443 0.34-0.665 0.51-1.47 1.48-1.99 3.49-2.32 5.49-0.132 1.37-0.226 2.75-0.0922 4.12 0.0698 0.717 0.17 1.14 0.308 1.85 0.501 2.21 1.64 4.16 2.79 6.09 1.12 1.73 2.28 3.46 3.71 4.95 0.265 0.276 0.548 0.535 0.822 0.802 1.35 1.18 2.72 2.53 4.31 3.39 0.31 0.168 0.64 0.297 0.959 0.445 2.31 0.813 4.02 0.523 6.24-0.335 0.958-0.401 1.88-0.917 2.68-1.6 0.497-0.428 0.657-0.652 1.09-1.16 1.15-1.66 1.63-3.61 1.57-5.62-0.0135-0.441-0.0723-0.879-0.109-1.32-0.347-2.11-1.11-4.13-2.25-5.94-0.245-0.39-0.522-0.758-0.783-1.14-1.71-2.4-3.93-4.35-6.06-6.36-1.74-1.58-3.59-3.23-5.84-4.04-0.463-0.166-0.95-0.252-1.43-0.379-0.459-0.0771-0.918-0.154-1.38-0.231-0.349-0.0583-0.431 0.435-0.0825 0.493 0.444 0.0739 0.888 0.148 1.33 0.222 0.448 0.116 0.907 0.193 1.34 0.349 2.2 0.786 4.01 2.41 5.71 3.95 2.11 1.98 4.3 3.91 5.99 6.28 0.253 0.367 0.522 0.724 0.76 1.1 1.1 1.75 1.84 3.7 2.18 5.74 0.0356 0.422 0.0926 0.844 0.107 1.27 0.0638 1.89-0.379 3.73-1.45 5.3-0.399 0.464-0.567 0.696-1.02 1.09-0.753 0.651-1.64 1.14-2.55 1.53-2.05 0.797-3.72 1.1-5.85 0.347-0.301-0.138-0.612-0.258-0.904-0.415-1.55-0.833-2.91-2.18-4.22-3.33-0.266-0.259-0.541-0.51-0.799-0.778-1.41-1.47-2.55-3.17-3.66-4.87-1.12-1.88-2.23-3.78-2.72-5.93-0.132-0.675-0.232-1.1-0.299-1.78-0.131-1.33-0.0396-2.68 0.0865-4.01 0.304-1.87 0.771-3.76 2.13-5.17 0.192-0.152 0.37-0.323 0.576-0.455 0.831-0.532 1.83-0.581 2.75-0.298 0.335 0.112 0.494-0.363 0.158-0.474z"
       stroke-width="1.1"
       id="path21" />
    <path
       d="m35.9 194c0.0244-0.122 0.138-0.542 0.0262-0.654-0.547-0.547-0.896 0.0506-1.09 0.588-0.468 1.29-0.241 2.39-0.169 3.75 0.188 0.766 0.302 1.55 0.564 2.3 0.248 0.703 0.524 1.42 0.959 2.02 0.388 0.539 0.878 1.04 1.47 1.35 1.17 0.617 2.43 0.51 3.13-0.793 0.36-0.676 0.265-1.51 0.397-2.26-0.613-2.01-0.614-2.85-2.07-4.43-0.441-0.478-1.05-0.769-1.57-1.15-0.287-0.207-0.579 0.199-0.293 0.406 0.484 0.342 1.05 0.596 1.45 1.03 1.35 1.44 1.39 2.25 1.99 4.07-0.078 0.654 0.018 1.35-0.234 1.96-0.841 2.03-2.96 0.768-3.81-0.398-0.42-0.576-0.685-1.26-0.925-1.93-0.255-0.714-0.367-1.47-0.551-2.21-0.124-2.08-0.252-1.7 0.107-3.47 0.0368-0.182 0.126-0.35 0.163-0.532 0.0158-0.0764-0.0549-0.174-0.0054-0.234 0.104-0.127-0.0178 0.773-0.0207 0.491-0.0693 0.347 0.421 0.445 0.49 0.0981z"
       stroke-width="1.1"
       id="path22" />
    <g
       id="g54">
      <path
         d="m 101,135 c 0.246,-17.7 26.6,-22 35.1,-7.74 8.37,10.9 14.1,35 -2.72,40.6 12.8,2.43 14.3,-34.1 -4.2,-46.9 -10.5,-6.88 -27.3,-1.34 -28.1,12.1 z"
         id="path23" />
      <path
         d="m 32.1,179 c -0.678,1.64 -1.11,3.37 -1.56,5.08 -0.0908,0.342 0.392,0.47 0.483,0.128 0.448,-1.69 0.869,-3.39 1.53,-5 0.144,-0.323 -0.313,-0.526 -0.457,-0.203 z"
         id="path24" />
      <path
         d="m 32.415046,177.98619 c 0.695688,-1.32083 1.994912,-2.21163 3.189834,-3.03076 1.863268,-1.12629 3.787295,-2.13996 5.63031,-3.30721 2.794902,-1.89422 5.680942,-3.65534 8.617614,-5.31407 3.05819,-1.56657 6.045495,-3.26625 8.941661,-5.12976 3.756915,-2.57 7.604969,-4.99666 11.442896,-7.41307 0.655181,-0.40854 1.316439,-0.81298 1.964532,-1.22869 1.802509,-1.13653 1.802509,-1.17749 3.605019,-2.27307 1.853141,-1.12629 3.726535,-2.21163 5.589803,-3.32769 3.959445,-2.31402 7.939142,-4.60757 11.847954,-7.02399 4.212606,-2.67239 8.485971,-5.24239 12.860601,-7.72024 2.50123,-1.34131 4.83032,-2.97956 7.18978,-4.54614 0.17823,-0.10648 0.35645,-0.21194 0.53367,-0.31843 0.30784,-0.1843 0.0509,-0.62458 -0.25721,-0.4413 -0.18431,0.11058 -0.36962,0.22116 -0.55392,0.33072 -2.35947,1.55633 -4.67842,3.18434 -7.16953,4.52566 -4.33413,2.47785 -8.607491,5.05809 -12.860603,7.73048 -3.908812,2.41642 -7.878383,4.70996 -11.847954,7.02399 -1.853141,1.12629 -3.736662,2.21163 -5.589803,3.33793 -1.812636,1.09558 -1.792383,1.12629 -3.605019,2.27307 -0.653156,0.41161 -1.306313,0.81707 -1.964532,1.22868 -3.85818,2.41642 -7.706234,4.84307 -11.442896,7.41307 -2.88604,1.86351 -5.863218,3.55295 -8.911282,5.11953 -2.946798,1.65873 -5.832838,3.43008 -8.637867,5.3243 -1.853141,1.16726 -3.787294,2.18092 -5.650562,3.31746 -1.28606,0.88567 -2.673385,1.85326 -3.382237,3.29697 -0.113416,0.34301 0.367591,0.50581 0.479994,0.16178 z"
         id="path25"
         style="stroke-width:1.01826" />
      <path
         d="m 36.3,184 c 0.691,-1.65 1.45,-3.28 2.32,-4.84 0.172,-0.309 -0.265,-0.552 -0.437,-0.243 -0.895,1.61 -1.69,3.28 -2.38,4.99 -0.0693,0.347 0.421,0.445 0.49,0.0981 z"
         id="path26" />
      <path
         d="m 39.510615,178.99156 c 1.795212,-2.06468 4.054355,-3.6615 6.222729,-5.30917 3.217262,-2.49186 6.727003,-4.5362 10.186316,-6.60088 0.479059,-0.27461 0.953076,-0.55634 1.432135,-0.82282 1.664101,-0.92453 1.000478,-0.4882 2.62222,-1.43409 1.109401,-0.64686 2.198631,-1.34255 3.277775,-2.03416 2.561707,-1.65785 5.214184,-3.1733 7.856574,-4.69893 3.035724,-1.72904 6.071448,-3.47843 9.046659,-5.31935 2.602049,-1.67819 5.234355,-3.28518 7.806147,-5.00405 1.623759,-1.08828 3.237433,-2.21724 4.851107,-3.32586 3.560168,-2.33929 7.190933,-4.55654 10.791443,-6.84498 2.31966,-1.51545 4.66957,-2.96988 7.10017,-4.30226 2.01709,-0.99979 4.04427,-1.98331 5.99076,-3.11228 0.90971,-0.51566 1.78513,-1.09845 2.73316,-1.53579 0.3187,-0.6367 -0.23398,-0.44548 -0.42056,-0.41802 -0.35199,0.0574 -0.2713,0.55939 0.0805,0.50244 0.36711,-0.0634 0.3893,-0.0135 0.20574,-0.57364 -0.008,-0.0255 -0.0502,0.0182 -0.0753,0.0273 -0.96518,0.4465 -1.85572,1.02725 -2.78359,1.55614 -1.9364,1.13913 -3.96358,2.10536 -5.97059,3.11227 -2.44068,1.33238 -4.80068,2.80715 -7.13042,4.32261 -3.600509,2.28844 -7.231275,4.51585 -10.791443,6.85514 -1.613673,1.10862 -3.217262,2.22742 -4.841021,3.3157 -2.561707,1.71887 -5.204098,3.32586 -7.796061,5.00405 -2.975211,1.83075 -5.990764,3.5903 -9.036574,5.30917 -2.64239,1.5358 -5.304952,3.05125 -7.876745,4.7091 -1.069059,0.69264 -2.148203,1.38323 -3.247518,2.024 -1.593503,0.9286 -0.968205,0.51668 -2.62222,1.43409 -0.485111,0.26851 -0.961145,0.55126 -1.442221,0.82688 -3.499655,2.07486 -7.039652,4.12936 -10.287171,6.63139 -2.19863,1.66802 -4.48803,3.29535 -6.313498,5.40071 -0.222889,0.28072 0.171453,0.59805 0.393333,0.31733 z"
         id="path27"
         style="stroke-width:1.01281" />
      <path
         d="m 36.7,184 c 0.135,-0.139 0.263,-0.284 0.404,-0.416 0.959,-0.89 2.01,-1.69 3.02,-2.52 2.36,-1.92 0.378,-0.304 2.82,-2.29 1.5,-1.27 3.12,-2.37 4.68,-3.54 1.48,-1.11 2.88,-2.17 4.41,-3.21 2.21,-1.54 4.55,-2.86 6.82,-4.31 2.21,-1.44 4.34,-3 6.57,-4.41 2.35,-1.37 4.75,-2.66 7.13,-3.98 2.25,-1.17 4.42,-2.49 6.61,-3.75 1.37,-0.79 2.67,-1.49 4.06,-2.25 3.92,-2.1 7.87,-4.15 11.8,-6.31 4.24,-2.43 8.32,-5.1 12.4,-7.73 3.3,-2.1 6.67,-4.06 10.1,-5.89 1.16,-0.618 2.31,-1.28 3.35,-2.08 0.281,-0.215 -0.0233,-0.612 -0.304,-0.397 -1.02,0.786 -2.15,1.42 -3.29,2.03 -3.46,1.84 -6.85,3.8 -10.2,5.91 -4.1,2.63 -8.18,5.3 -12.4,7.72 -3.89,2.16 -7.84,4.21 -11.8,6.31 -1.4,0.765 -2.69,1.46 -4.07,2.26 -2.19,1.27 -4.35,2.58 -6.6,3.75 -2.39,1.32 -4.79,2.62 -7.15,3.99 -2.24,1.41 -4.36,2.97 -6.58,4.41 -2.27,1.45 -4.62,2.77 -6.83,4.32 -0.488,0.334 -0.983,0.66 -1.47,1 -1.53,1.08 -1.43,1.08 -2.95,2.22 -1.57,1.18 -3.2,2.29 -4.7,3.56 -1.35,1.1 -2.7,2.19 -4.05,3.3 -0.506,0.415 -1.33,1.08 -1.83,1.55 -0.153,0.143 -0.29,0.301 -0.435,0.451 -0.221,0.276 0.17,0.588 0.39,0.312 z"
         id="path28" />
      <path
         d="m 33.1,178 c 0.202,-0.0354 0.402,-0.0825 0.606,-0.106 0.671,-0.0781 1.28,-0.0748 1.96,-0.103 1.44,-0.0597 1.03,-0.0391 2.42,-0.166 0.352,-0.0324 0.306,-0.53 -0.0458,-0.498 -1.67,0.154 -3.35,0.12 -5.01,0.378 -0.35,0.05 -0.279,0.545 0.0707,0.495 z"
         id="path29" />
      <path
         d="m 40.9,187 c 2.35,-2.19 4.88,-4.18 7.45,-6.11 0.283,-0.212 -0.0177,-0.612 -0.3,-0.4 -2.59,1.94 -5.14,3.95 -7.5,6.16 -0.25,0.25 0.104,0.604 0.354,0.354 z"
         id="path30" />
      <path
         d="m 49.251865,180.97392 c 11.478401,-10.57579 25.507558,-18.10088 38.367619,-26.94794 9.682243,-5.93871 19.768356,-11.18593 29.652536,-16.7789 2.71018,-1.78975 9.69287,-4.33201 9.94795,-5.23705 -8.16242,3.12189 -15.62338,7.91151 -23.27565,12.10115 -9.724756,5.26756 -19.236949,10.88086 -28.270876,17.18566 -9.331515,6.09125 -19.130668,11.89777 -26.995499,19.62624 0.02615,0.20541 0.351792,0.34066 0.484644,0.12813 z"
         id="path31"
         style="stroke-width:1.03961" />
      <path
         d="m 47.6,193 c 4.71,-4.2 9.83,-7.9 14.9,-11.6 7.07,-4.92 14.2,-9.8 21.3,-14.7 1.04,-0.713 2.08,-1.43 3.12,-2.14 1.98,-1.34 4.71,-3.13 6.69,-4.45 3.32,-2.22 6.61,-4.47 9.95,-6.66 5.57,-3.69 11.4,-6.97 17.2,-10.2 3.43,-1.81 6.81,-3.7 10.2,-5.54 0.311,-0.167 0.0749,-0.608 -0.237,-0.44 -3.42,1.84 -6.81,3.72 -10.2,5.54 -5.87,3.21 -11.7,6.5 -17.3,10.2 -3.34,2.19 -6.63,4.45 -9.95,6.67 -1.99,1.33 -4.71,3.12 -6.69,4.46 -1.05,0.707 -2.08,1.43 -3.13,2.14 -7.09,4.9 -14.2,9.77 -21.3,14.7 -5.13,3.68 -10.3,7.39 -15,11.6 -0.268,0.23 0.057,0.61 0.325,0.38 z"
         id="path32" />
      <path
         d="m 48.974059,181.50363 c 1.654066,1.47316 3.223308,3.04126 4.806688,4.58415 0.366156,0.35753 0.848239,-0.18545 0.482082,-0.54298 -1.611654,-1.57255 -3.195034,-3.15994 -4.877375,-4.64348 -0.407154,-0.30561 -0.817136,0.29819 -0.411395,0.6038 z"
         id="path33"
         style="stroke-width:1.44822" />
      <path
         d="m 53,200 c 0.184,0.308 -0.538,-0.0918 -0.488,0.0643 0.0455,0.141 0.152,0.307 0.298,0.328 0.233,0.034 0.449,-0.148 0.682,-0.185 1.36,-0.217 1.79,-0.156 3.22,-0.16 0.555,0.0548 1.11,0.11 1.67,0.164 0.352,0.0345 0.401,-0.463 0.0488,-0.498 -0.572,-0.0556 -1.14,-0.111 -1.72,-0.167 -1.28,0.005 -2.12,-0.0571 -3.37,0.182 -0.477,0.0918 -1.24,0.139 -0.813,0.834 0.0294,0.0485 0.564,-0.0733 0.565,-0.0736 0.347,-0.0693 0.249,-0.56 -0.0981,-0.49 z"
         id="path34" />
      <path
         d="m 59.006423,200.00797 c 1.660231,-0.94711 3.310214,-1.90764 4.970444,-2.85666 2.541588,-1.43792 5.031935,-2.95253 7.522281,-4.46714 3.176985,-1.91722 6.282231,-3.92072 9.346484,-5.99132 2.828541,-1.97474 5.718573,-3.84403 8.588108,-5.77084 0.572881,-0.38632 1.137565,-0.77936 1.721721,-1.15992 1.854948,-1.21744 3.740643,-2.38695 5.575096,-3.63314 1.04533,-0.70842 2.674816,-1.86929 3.699653,-2.60743 3.49468,-2.40611 6.97911,-4.82181 10.35082,-7.34297 0.59543,-0.44192 1.1888,-0.88096 1.78321,-1.32288 2.26488,-1.68716 1.30154,-1.01613 3.56642,-2.62659 1.82421,-1.29413 3.66891,-2.5595 5.47261,-3.86321 2.10092,-1.44751 4.06859,-3.05797 6.19,-4.47672 1.06583,-0.71513 1.60899,-0.99695 2.73631,-1.62964 1.77296,-0.92315 3.62791,-1.7255 5.37012,-2.71287 0.52881,-0.30197 1.2503,-0.78128 1.77296,-1.12158 0.29721,-0.19459 0.003,-0.58667 -0.29412,-0.39303 -0.49807,0.32593 -1.24005,0.81866 -1.73197,1.1024 -1.74222,0.99696 -3.59716,1.79261 -5.38037,2.72246 -1.14782,0.65185 -1.69099,0.92507 -2.78756,1.65841 -2.1214,1.41874 -4.09933,3.0292 -6.19,4.4863 -1.81394,1.30371 -3.65865,2.56908 -5.47261,3.8632 -2.27512,1.62005 -1.31178,0.94423 -3.57667,2.63619 -0.59337,0.44384 -1.1888,0.88288 -1.7832,1.32288 -3.40245,2.51157 -6.88689,4.93685 -10.35083,7.33338 -1.015606,0.72183 -2.654315,1.89805 -3.689398,2.59784 -1.834452,1.24619 -3.720146,2.4157 -5.575096,3.63314 -0.578006,0.3796 -1.147814,0.77168 -1.72172,1.15992 -2.869535,1.91722 -5.759566,3.7961 -8.588108,5.77084 -3.054005,2.0706 -6.159251,4.06452 -9.325988,5.98174 -2.490345,1.51461 -4.970444,3.02921 -7.512032,4.45754 -1.670478,0.95766 -3.340958,1.92681 -5.011437,2.88543 -0.290028,0.20322 0.01763,0.58667 0.30745,0.38344 z"
         id="path35"
         style="stroke-width:0.99117" />
      <path
         d="m 52.870804,199.02463 c 2.57684,-1.53025 4.996315,-3.26577 7.39612,-5.02928 4.120976,-3.18179 8.448492,-6.10232 12.884196,-8.84556 3.993118,-2.46331 8.025577,-4.86132 12.097376,-7.222 3.521025,-2.07143 6.865015,-4.39479 10.228676,-6.6715 0.626505,-0.42268 1.258913,-0.8407 1.878534,-1.26898 1.701501,-1.17567 2.360464,-1.64221 4.002954,-2.89253 1.12122,-0.85284 2.61618,-2.05277 3.7374,-2.89254 0.6629,-0.49453 1.33759,-0.9704 2.0064,-1.45559 2.35062,-1.59557 4.74059,-3.13514 7.11089,-4.71204 0.80551,-0.53559 1.60315,-1.09169 2.40964,-1.61422 1.32776,-0.86589 3.55053,-2.23938 4.9078,-3.07915 3.67838,-2.2767 7.54364,-4.26416 11.21219,-6.54086 0.29114,-0.18102 0.0208,-0.57105 -0.26947,-0.39003 -3.66856,2.28603 -7.53382,4.26416 -11.21221,6.54086 -1.3671,0.84724 -3.58004,2.2114 -4.91763,3.08849 -0.80944,0.52811 -1.60315,1.08236 -2.40964,1.61422 -2.3703,1.57689 -4.7701,3.1258 -7.13057,4.72136 -0.6747,0.48799 -1.35727,0.9704 -2.02606,1.46493 -1.13106,0.84723 -2.59651,2.02478 -3.72757,2.89254 -1.632652,1.24098 -2.281779,1.70752 -3.98328,2.87386 -0.622572,0.42829 -1.249078,0.8463 -1.878535,1.26898 -3.363661,2.26738 -6.707651,4.58141 -10.228676,6.65284 -4.061964,2.36068 -8.094423,4.75869 -12.097376,7.23134 -4.475044,2.74324 -8.812396,5.6731 -12.982549,8.86422 -2.399805,1.76351 -4.81928,3.4897 -7.386283,5.01995 -0.278338,0.19781 0.01691,0.57104 0.295058,0.37323 z"
         id="path36"
         style="stroke-width:0.95797" />
      <path
         d="m 53.2,208 c 1.95,-0.401 3.92,-0.76 5.87,-1.14 0.347,-0.0675 0.252,-0.558 -0.0954,-0.491 -1.97,0.383 -3.95,0.743 -5.92,1.15 -0.34,0.0971 -0.203,0.578 0.137,0.481 z"
         id="path37" />
      <path
         d="m 58.4,201 c 0.488,1.03 0.942,2.06 1.36,3.12 0.13,0.329 0.595,0.145 0.465,-0.184 -0.427,-1.08 -0.89,-2.14 -1.39,-3.18 -0.175,-0.307 -0.61,-0.0589 -0.434,0.248 z"
         id="path38" />
      <path
         d="m 59.996032,206.99582 c 2.660177,-2.8348 5.893925,-5.00916 9.02878,-7.22416 5.290688,-3.75941 10.680268,-7.35625 16.119293,-10.87181 2.937073,-1.98131 6.022484,-3.71876 9.009003,-5.60863 1.384479,-0.87076 2.709623,-1.75778 4.064435,-2.66207 4.835787,-3.31234 9.523237,-6.83805 14.240357,-10.26217 3.35242,-2.4995 6.88284,-4.73482 10.38359,-7.07175 3.23375,-2.22516 1.65149,-1.14814 4.77645,-3.25138 3.10519,-2.18452 6.28949,-4.29792 9.17712,-6.78726 0.38865,-0.42471 0.27394,-0.22353 0.42622,-0.54664 0.11571,-0.33936 -0.35106,-0.50701 -0.46676,-0.16764 0.16316,-0.0737 0.0327,-0.0192 -0.27789,0.32513 -2.86785,2.47918 -6.04225,4.57225 -9.12767,6.75678 -3.12497,2.10324 -1.53281,1.02622 -4.76657,3.25138 -3.47108,2.34709 -7.0015,4.58242 -10.38359,7.08191 -4.74678,3.43427 -9.43424,6.95999 -14.240352,10.26218 -1.354812,0.89616 -2.679956,1.78825 -4.054547,2.65191 -2.996407,1.88986 -6.081818,3.62732 -9.02878,5.60863 -5.429136,3.55619 -10.87805,7.15303 -16.119293,10.9734 -3.164524,2.23532 -6.41805,4.43001 -9.098006,7.28513 -0.247227,0.25401 0.102848,0.6137 0.350077,0.35968 z"
         id="path39"
         style="stroke-width:1.00239" />
      <path
         d="m 49.1,214 c -0.405,-0.685 -0.946,-1.26 -1.46,-1.86 0.299,0.535 1.38,0.53 1.79,0.596 0.514,0.0819 1.03,0.155 1.55,0.234 2.01,0.314 1.05,0.165 2.9,0.448 0.349,0.0535 0.425,-0.441 0.0757,-0.494 -1.48,-0.226 -2.96,-0.446 -4.44,-0.681 -0.479,-0.0761 -1.7,-0.39 -2.25,-0.146 -0.113,0.0494 -0.0033,0.246 -0.0049,0.369 0.508,0.59 1.04,1.16 1.44,1.83 0.212,0.283 0.612,-0.0171 0.4,-0.3 z"
         id="path40" />
      <path
         d="m55.5 214c3.49-2.71 7.09-5.3 10.6-7.92 4.59-3.37 9.26-6.63 14.1-9.69 3.69-2.25 7.47-4.36 11.2-6.59 3.67-2.3 7.25-4.75 10.8-7.21 4.76-3.38 9.61-6.62 14.5-9.86 4.39-2.94 8.68-6.01 12.9-9.13 0.318-0.233-0.0155-0.676-0.333-0.444-4.25 3.11-8.54 6.19-12.9 9.12-4.86 3.24-9.72 6.48-14.5 9.86-3.56 2.45-7.13 4.89-10.8 7.19-3.71 2.23-7.49 4.34-11.2 6.59-4.81 3.07-9.49 6.34-14.1 9.71-3.57 2.63-7.18 5.23-10.7 7.95-0.298 0.257 0.0706 0.673 0.368 0.416z"
         stroke-width="1.11"
         id="path41" />
      <path
         d="m 111,129 c 7.74,-1.87 15.8,2.62 19.9,9.13 2.12,3.4 3.28,7.29 4.41,11.1 1.11,4.58 0.66,10.1 -2.96,13.5 -0.724,0.69 -1.66,2.68 -0.272,1.03 2.1,-2.34 4.11,-5.1 4.13,-8.38 0.383,-7.81 -2.92,-15.5 -8.05,-21.3 -4.4,-4.15 -11.1,-7.77 -17.2,-5.04 z"
         id="path43" />
      <path
         d="m 84.1,143 c -5.86,-8.79 -3.69,-20.1 -0.0594,-29.3 2.57,-6.79 5.65,-14 12,-18 6.72,-4.76 15.7,-5.69 23.4,-2.88 19,5.49 33.6,20.7 43.2,37.5 4.56,12.5 6.24,27.1 0.637,39.6 -5.49,11.8 -18.1,19.8 -31.1,19.6 -8.03,0.147 -15.8,-3.13 -22.1,-7.92 15.3,14.8 43.9,8.86 53.1,-10.1 4.32,-8.9 5.24,-19.1 3.33,-28.8 -1.32,-6.66 -2.82,-13.5 -7.06,-19 -6.62,-9.31 -14.6,-17.9 -24.2,-24.2 -10.2,-6.64 -23.3,-11.2 -35.3,-6.73 -10.9,5.22 -16.1,17.2 -18.6,28.4 -1.31,6.08 -2.17,12.8 0.351,18.7 0.6,1.21 1.43,2.32 2.47,3.19 z"
         id="path44" />
      <path
         d="m 100,93 c 2.46,-1.79 5.2,-3.18 7.95,-4.48 0.361,-0.223 0.768,-0.345 1.15,-0.527 0.252,-0.12 0.441,-0.284 0.709,-0.371 0.335,-0.112 0.177,-0.586 -0.158,-0.474 -0.318,0.109 -0.47,0.253 -0.749,0.386 -0.385,0.183 -0.796,0.311 -1.16,0.534 -5.13,2.25 -6.14,2.95 -8.06,4.54 -0.272,0.226 0.0485,0.61 0.32,0.384 z"
         id="path45" />
      <path
         d="m 110,87.6 c 35.3,-3.38 67.1,33.1 62.1,67.5 -3.1,15.5 -13.3,31.1 -29.2,35.5 19.9,-4.28 30.3,-26.9 30.3,-45.5 -2.24,-30.6 -29.7,-59.8 -61.4,-58.2 z"
         id="path46" />
      <path
         d="m 89.8,114 c -1.02,-0.719 -1.98,0.572 -1.97,1.54 -0.585,2.86 0.472,5.8 2.09,8.12 1.19,1.43 2.7,2.98 4.7,2.94 1.48,-0.008 2.33,-1.48 2.45,-2.8 0.198,-2.32 -0.522,-4.7 -1.81,-6.62 -0.752,-1.01 -1.91,-1.59 -3.01,-2.1 -1.29,0.254 0.752,0.836 1.16,1.14 1.7,0.941 2.49,2.86 2.92,4.66 0.366,1.61 0.68,3.7 -0.71,4.93 -1.51,0.876 -3.24,-0.259 -4.3,-1.34 -1.38,-1.3 -2.23,-3.04 -2.81,-4.82 -0.444,-1.7 -0.518,-3.61 0.192,-5.24 0.287,-0.393 1.53,0.45 1.11,-0.409 z"
         id="path47" />
      <path
         d="m 109,97.7 c -1.15,-0.474 -2.48,-0.459 -3.65,-0.0574 -1.02,0.49 -1.64,1.55 -1.77,2.65 -0.267,1.89 0.24,3.82 1.14,5.48 1.19,2.1 2.96,3.97 5.22,4.9 0.769,0.32 1.66,0.324 2.4,-0.07 0.738,-0.202 1.23,-0.816 1.75,-1.34 1.15,-1.59 1.13,-3.69 0.935,-5.56 -0.242,-1.94 -0.852,-3.88 -2.11,-5.41 -0.42,-0.632 -1.1,-1.03 -1.65,-1.55 -0.678,-0.24 -0.33,0.617 0.0891,0.728 0.595,0.449 1.12,0.959 1.51,1.6 1.24,1.74 1.67,3.92 1.75,6.02 0.0241,1.42 -0.123,3.03 -1.15,4.12 -0.423,0.497 -0.931,0.857 -1.55,1.07 -1.08,0.428 -2.22,-0.184 -3.13,-0.759 -2.12,-1.41 -3.76,-3.57 -4.48,-6.01 -0.37,-1.42 -0.537,-3.03 0.152,-4.39 0.364,-0.632 0.993,-1.13 1.74,-1.19 0.894,-0.172 1.83,-0.0916 2.68,0.249 0.27,0.0258 0.367,-0.382 0.11,-0.48 z"
         id="path48" />
      <path
         d="m 132,105 c -2.94,0.36 -3.31,4.06 -2.89,6.41 0.601,4.16 3.68,8.36 8.06,8.89 3.24,0.0331 4.97,-3.61 4.52,-6.47 -0.323,-3.75 -2.14,-7.71 -5.5,-9.64 -0.953,-1.01 -4.19,-0.342 -1.44,0.004 3.49,0.937 5.3,4.57 6.19,7.79 0.624,2.65 0.447,6.35 -2.45,7.57 -2.81,0.86 -5.53,-1.42 -7.07,-3.57 -1.73,-2.59 -2.5,-6.05 -1.46,-9.03 0.358,-0.835 2.03,-1.46 2.05,-1.97 z"
         id="path49" />
      <path
         d="m 153,130 c -6.58,2.56 -5.06,12.7 0.859,15.2 6.83,3.27 12,-7.12 6.37,-11.5 -1.37,-0.994 3.71,4.71 1.71,6.67 -1.35,7.73 -11.7,5.04 -12.5,-1.51 -0.875,-3.33 0.534,-7.16 3.6,-8.87 z"
         id="path50" />
      <path
         d="m 153,159 c -3.55,2.66 -4.47,7.93 -2.39,11.8 0.868,2.77 3.97,4.25 6.57,2.81 2.51,-0.783 3.93,-3.42 3.68,-5.95 -0.252,-2.81 -1.41,-5.85 -3.84,-7.46 -1.22,-0.906 -4.39,0.644 -3.76,1.46 1.3,-1.23 3.52,-1.85 4.65,-0.0437 1.98,2.25 2.95,5.55 2.18,8.47 -0.812,2.46 -3.67,3.89 -6.14,3.47 -2.17,-0.556 -2.91,-2.99 -3.59,-4.86 -1.12,-3.41 0.393,-7.21 3.01,-9.47 -0.0425,-0.148 -0.214,-0.236 -0.36,-0.197 z"
         id="path51" />
      <path
         d="m 136,174 c -2.05,1.4 -2.99,4.12 -2.33,6.5 0.48,2.44 1.44,4.98 3.41,6.61 1.77,1.13 4.34,0.127 5.02,-1.82 0.959,-2.58 0.965,-5.79 -0.835,-8.01 -0.747,-0.975 -2.1,-1.38 -3.28,-1.08 -1.19,-0.228 -1.07,0.946 0.0198,0.463 1.45,-0.427 2.97,0.518 3.5,1.88 1.05,2.27 0.967,5.07 -0.235,7.26 -1.01,1.5 -3.57,1.82 -4.64,0.21 -1.75,-2.12 -2.63,-4.9 -2.66,-7.63 0.109,-1.66 1.14,-3.11 2.41,-4.11 0.0624,-0.203 -0.21,-0.417 -0.383,-0.276 z"
         id="path52" />
      <path
         d="m 111,178 c 1.02,0.571 2.19,1.16 3.41,0.924 1.14,-0.221 1.6,-0.679 2.54,-1.32 0.279,-0.511 0.559,-1.02 0.838,-1.53 0.164,-0.313 -0.278,-0.546 -0.443,-0.233 -0.226,0.451 -0.453,0.902 -0.679,1.35 -0.806,0.561 -1.28,1.01 -2.26,1.23 -1.12,0.244 -2.21,-0.332 -3.15,-0.853 -0.303,-0.182 -0.56,0.247 -0.257,0.429 z"
         id="path53" />
    </g>
  </g>
</svg>
